<?xml version="1.0" encoding="UTF-8" standalone="no"?>
<!-- Created with Inkscape (http://www.inkscape.org/) -->

<svg
   xmlns:dc="http://purl.org/dc/elements/1.1/"
   xmlns:cc="http://creativecommons.org/ns#"
   xmlns:rdf="http://www.w3.org/1999/02/22-rdf-syntax-ns#"
   xmlns:svg="http://www.w3.org/2000/svg"
   xmlns="http://www.w3.org/2000/svg"
   xmlns:sodipodi="http://sodipodi.sourceforge.net/DTD/sodipodi-0.dtd"
   xmlns:inkscape="http://www.inkscape.org/namespaces/inkscape"
   version="1.1"
   id="svg2"
   xml:space="preserve"
   width="215.64799"
   height="67.609062"
   viewBox="0 0 215.648 67.609062"
   sodipodi:docname="google.svg"
   inkscape:version="0.92.2 5c3e80d, 2017-08-06"><metadata
     id="metadata8"><rdf:RDF><cc:Work
         rdf:about=""><dc:format>image/svg+xml</dc:format><dc:type
           rdf:resource="http://purl.org/dc/dcmitype/StillImage" /><dc:title></dc:title></cc:Work></rdf:RDF></metadata><defs
     id="defs6"><clipPath
       clipPathUnits="userSpaceOnUse"
       id="clipPath18"><path
         d="M 0,16 H 44 V 0 H 0 Z"
         id="path16"
         inkscape:connector-curvature="0" /></clipPath></defs><sodipodi:namedview
     pagecolor="#ffffff"
     bordercolor="#666666"
     borderopacity="1"
     objecttolerance="10"
     gridtolerance="10"
     guidetolerance="10"
     inkscape:pageopacity="0"
     inkscape:pageshadow="2"
     inkscape:window-width="2013"
     inkscape:window-height="1557"
     id="namedview4"
     showgrid="false"
     inkscape:zoom="10.704545"
     inkscape:cx="83.673455"
     inkscape:cy="32.0662"
     inkscape:window-x="45"
     inkscape:window-y="0"
     inkscape:window-maximized="0"
     inkscape:current-layer="g10"
     fit-margin-top="0"
     fit-margin-left="0"
     fit-margin-right="0"
     fit-margin-bottom="0" /><g
     id="g10"
     inkscape:groupmode="layer"
     inkscape:label="googlelogo_color"
     transform="matrix(1.3333333,0,0,-1.3333333,80.310398,46.209532)"><g
       id="g12"
       transform="matrix(4,0,0,4,-61.9056,-27.91125)"><g
         id="g14"
         clip-path="url(#clipPath18)"><g
           id="g20"
           transform="translate(5.4072,5.8081)"><path
             d="m 0,0 c -2.711,0 -4.989,2.207 -4.989,4.917 0,2.711 2.278,4.917 4.989,4.917 1.499,0 2.566,-0.587 3.37,-1.355 L 2.423,7.532 C 1.847,8.072 1.067,8.491 0,8.491 c -1.979,0 -3.526,-1.595 -3.526,-3.574 0,-1.979 1.547,-3.574 3.526,-3.574 1.283,0 2.015,0.516 2.482,0.984 0.384,0.383 0.636,0.935 0.732,1.691 H 0 V 5.361 H 4.521 C 4.569,5.121 4.593,4.833 4.593,4.521 4.593,3.514 4.317,2.267 3.43,1.379 2.566,0.48 1.463,0 0,0"
             style="fill:#4285f4;fill-opacity:1;fill-rule:nonzero;stroke:none"
             id="path22"
             inkscape:connector-curvature="0" /></g><g
           id="g24"
           transform="translate(15.7717,8.9746)"><path
             d="m 0,0 c 0,1.139 -0.821,1.919 -1.771,1.919 -0.952,0 -1.771,-0.78 -1.771,-1.919 0,-1.127 0.819,-1.919 1.771,-1.919 C -0.821,-1.919 0,-1.127 0,0 m 1.378,0 c 0,-1.823 -1.414,-3.167 -3.149,-3.167 -1.736,0 -3.151,1.344 -3.151,3.167 0,1.835 1.415,3.166 3.151,3.166 1.735,0 3.149,-1.331 3.149,-3.166"
             style="fill:#ea4335;fill-opacity:1;fill-rule:nonzero;stroke:none"
             id="path26"
             inkscape:connector-curvature="0" /></g><g
           id="g28"
           transform="translate(22.7708,8.9746)"><path
             d="m 0,0 c 0,1.139 -0.82,1.919 -1.771,1.919 -0.951,0 -1.771,-0.78 -1.771,-1.919 0,-1.127 0.82,-1.919 1.771,-1.919 C -0.82,-1.919 0,-1.127 0,0 m 1.379,0 c 0,-1.823 -1.415,-3.167 -3.15,-3.167 -1.736,0 -3.15,1.344 -3.15,3.167 0,1.835 1.414,3.166 3.15,3.166 1.735,0 3.15,-1.331 3.15,-3.166"
             style="fill:#fbbc05;fill-opacity:1;fill-rule:nonzero;stroke:none"
             id="path30"
             inkscape:connector-curvature="0" /></g><g
           id="g32"
           transform="translate(29.7759,8.9624)"><path
             d="m 0,0 c 0,1.115 -0.743,1.931 -1.69,1.931 -0.96,0 -1.764,-0.816 -1.764,-1.931 0,-1.104 0.804,-1.907 1.764,-1.907 C -0.743,-1.907 0,-1.104 0,0 m 1.224,2.986 v -5.685 c 0,-2.338 -1.379,-3.298 -3.011,-3.298 -1.535,0 -2.458,1.032 -2.806,1.871 l 1.211,0.504 c 0.216,-0.516 0.744,-1.128 1.595,-1.128 1.044,0 1.691,0.648 1.691,1.859 v 0.456 h -0.048 c -0.311,-0.383 -0.911,-0.719 -1.667,-0.719 -1.583,0 -3.034,1.379 -3.034,3.154 0,1.787 1.451,3.178 3.034,3.178 0.756,0 1.356,-0.336 1.667,-0.707 h 0.048 v 0.515 z"
             style="fill:#4285f4;fill-opacity:1;fill-rule:nonzero;stroke:none"
             id="path34"
             inkscape:connector-curvature="0" /></g><path
           d="m 33.794,6 h -1.391 v 9.307 h 1.391 z"
           style="fill:#34a853;fill-opacity:1;fill-rule:nonzero;stroke:none"
           id="path36"
           inkscape:connector-curvature="0" /><g
           id="g38"
           transform="translate(36.3912,9.0703)"><path
             d="M 0,0 2.83,1.175 C 2.674,1.571 2.206,1.847 1.654,1.847 0.947,1.847 -0.036,1.223 0,0 m 3.322,-1.139 1.079,-0.72 C 4.054,-2.375 3.214,-3.262 1.763,-3.262 c -1.799,0 -3.143,1.391 -3.143,3.166 0,1.883 1.356,3.166 2.986,3.166 1.644,0 2.448,-1.307 2.711,-2.014 L 4.461,0.696 0.228,-1.056 c 0.324,-0.635 0.827,-0.959 1.535,-0.959 0.708,0 1.199,0.348 1.559,0.876"
             style="fill:#ea4335;fill-opacity:1;fill-rule:nonzero;stroke:none"
             id="path40"
             inkscape:connector-curvature="0" /></g></g></g></g></svg>