<?xml version="1.0" encoding="utf-8" standalone="no"?>
<!DOCTYPE svg PUBLIC "-//W3C//DTD SVG 1.1//EN"
  "http://www.w3.org/Graphics/SVG/1.1/DTD/svg11.dtd">
<svg xmlns:xlink="http://www.w3.org/1999/xlink" width="432pt" height="360pt" viewBox="0 0 432 360" xmlns="http://www.w3.org/2000/svg" version="1.1">
 <metadata>
  <rdf:RDF xmlns:dc="http://purl.org/dc/elements/1.1/" xmlns:cc="http://creativecommons.org/ns#" xmlns:rdf="http://www.w3.org/1999/02/22-rdf-syntax-ns#">
   <cc:Work>
    <dc:type rdf:resource="http://purl.org/dc/dcmitype/StillImage"/>
    <dc:date>1980-01-01T00:00:00+00:00</dc:date>
    <dc:format>image/svg+xml</dc:format>
    <dc:creator>
     <cc:Agent>
      <dc:title>Matplotlib v3.8.4, https://matplotlib.org/</dc:title>
     </cc:Agent>
    </dc:creator>
   </cc:Work>
  </rdf:RDF>
 </metadata>
 <defs>
  <style type="text/css">*{stroke-linejoin: round; stroke-linecap: butt}</style>
 </defs>
 <g id="figure_1">
  <g id="patch_1">
   <path d="M 0 360 
L 432 360 
L 432 0 
L 0 0 
z
" style="fill: #ffffff"/>
  </g>
  <g id="axes_1">
   <g id="patch_2">
    <path d="M 54 288 
L 388.8 288 
L 388.8 43.2 
L 54 43.2 
z
" style="fill: #ffffff"/>
   </g>
   <g id="matplotlib.axis_1">
    <g id="xtick_1">
     <g id="line2d_1">
      <path d="M 81.9 288 
L 81.9 43.2 
" clip-path="url(#pb50b1ef25f)" style="fill: none; stroke: #b0b0b0; stroke-width: 0.8; stroke-linecap: square"/>
     </g>
     <g id="line2d_2">
      <defs>
       <path id="mda0f996105" d="M 0 0 
L 0 3.5 
" style="stroke: #000000; stroke-width: 0.8"/>
      </defs>
      <g>
       <use xlink:href="#mda0f996105" x="81.9" y="288" style="stroke: #000000; stroke-width: 0.8"/>
      </g>
     </g>
     <g id="text_1">
      <!-- 512 B -->
      <g transform="translate(66.677317 320.968497) rotate(-45) scale(0.1 -0.1)">
       <defs>
        <path id="DejaVuSans-35" d="M 691 4666 
L 3169 4666 
L 3169 4134 
L 1269 4134 
L 1269 2991 
Q 1406 3038 1543 3061 
Q 1681 3084 1819 3084 
Q 2600 3084 3056 2656 
Q 3513 2228 3513 1497 
Q 3513 744 3044 326 
Q 2575 -91 1722 -91 
Q 1428 -91 1123 -41 
Q 819 9 494 109 
L 494 744 
Q 775 591 1075 516 
Q 1375 441 1709 441 
Q 2250 441 2565 725 
Q 2881 1009 2881 1497 
Q 2881 1984 2565 2268 
Q 2250 2553 1709 2553 
Q 1456 2553 1204 2497 
Q 953 2441 691 2322 
L 691 4666 
z
" transform="scale(0.015625)"/>
        <path id="DejaVuSans-31" d="M 794 531 
L 1825 531 
L 1825 4091 
L 703 3866 
L 703 4441 
L 1819 4666 
L 2450 4666 
L 2450 531 
L 3481 531 
L 3481 0 
L 794 0 
L 794 531 
z
" transform="scale(0.015625)"/>
        <path id="DejaVuSans-32" d="M 1228 531 
L 3431 531 
L 3431 0 
L 469 0 
L 469 531 
Q 828 903 1448 1529 
Q 2069 2156 2228 2338 
Q 2531 2678 2651 2914 
Q 2772 3150 2772 3378 
Q 2772 3750 2511 3984 
Q 2250 4219 1831 4219 
Q 1534 4219 1204 4116 
Q 875 4013 500 3803 
L 500 4441 
Q 881 4594 1212 4672 
Q 1544 4750 1819 4750 
Q 2544 4750 2975 4387 
Q 3406 4025 3406 3419 
Q 3406 3131 3298 2873 
Q 3191 2616 2906 2266 
Q 2828 2175 2409 1742 
Q 1991 1309 1228 531 
z
" transform="scale(0.015625)"/>
        <path id="DejaVuSans-20" transform="scale(0.015625)"/>
        <path id="DejaVuSans-42" d="M 1259 2228 
L 1259 519 
L 2272 519 
Q 2781 519 3026 730 
Q 3272 941 3272 1375 
Q 3272 1813 3026 2020 
Q 2781 2228 2272 2228 
L 1259 2228 
z
M 1259 4147 
L 1259 2741 
L 2194 2741 
Q 2656 2741 2882 2914 
Q 3109 3088 3109 3444 
Q 3109 3797 2882 3972 
Q 2656 4147 2194 4147 
L 1259 4147 
z
M 628 4666 
L 2241 4666 
Q 2963 4666 3353 4366 
Q 3744 4066 3744 3513 
Q 3744 3084 3544 2831 
Q 3344 2578 2956 2516 
Q 3422 2416 3680 2098 
Q 3938 1781 3938 1306 
Q 3938 681 3513 340 
Q 3088 0 2303 0 
L 628 0 
L 628 4666 
z
" transform="scale(0.015625)"/>
       </defs>
       <use xlink:href="#DejaVuSans-35"/>
       <use xlink:href="#DejaVuSans-31" x="63.623047"/>
       <use xlink:href="#DejaVuSans-32" x="127.246094"/>
       <use xlink:href="#DejaVuSans-20" x="190.869141"/>
       <use xlink:href="#DejaVuSans-42" x="222.65625"/>
      </g>
     </g>
    </g>
    <g id="xtick_2">
     <g id="line2d_3">
      <path d="M 137.7 288 
L 137.7 43.2 
" clip-path="url(#pb50b1ef25f)" style="fill: none; stroke: #b0b0b0; stroke-width: 0.8; stroke-linecap: square"/>
     </g>
     <g id="line2d_4">
      <g>
       <use xlink:href="#mda0f996105" x="137.7" y="288" style="stroke: #000000; stroke-width: 0.8"/>
      </g>
     </g>
     <g id="text_2">
      <!-- 4 KiB -->
      <g transform="translate(124.873746 318.572067) rotate(-45) scale(0.1 -0.1)">
       <defs>
        <path id="DejaVuSans-34" d="M 2419 4116 
L 825 1625 
L 2419 1625 
L 2419 4116 
z
M 2253 4666 
L 3047 4666 
L 3047 1625 
L 3713 1625 
L 3713 1100 
L 3047 1100 
L 3047 0 
L 2419 0 
L 2419 1100 
L 313 1100 
L 313 1709 
L 2253 4666 
z
" transform="scale(0.015625)"/>
        <path id="DejaVuSans-4b" d="M 628 4666 
L 1259 4666 
L 1259 2694 
L 3353 4666 
L 4166 4666 
L 1850 2491 
L 4331 0 
L 3500 0 
L 1259 2247 
L 1259 0 
L 628 0 
L 628 4666 
z
" transform="scale(0.015625)"/>
        <path id="DejaVuSans-69" d="M 603 3500 
L 1178 3500 
L 1178 0 
L 603 0 
L 603 3500 
z
M 603 4863 
L 1178 4863 
L 1178 4134 
L 603 4134 
L 603 4863 
z
" transform="scale(0.015625)"/>
       </defs>
       <use xlink:href="#DejaVuSans-34"/>
       <use xlink:href="#DejaVuSans-20" x="63.623047"/>
       <use xlink:href="#DejaVuSans-4b" x="95.410156"/>
       <use xlink:href="#DejaVuSans-69" x="160.986328"/>
       <use xlink:href="#DejaVuSans-42" x="188.769531"/>
      </g>
     </g>
    </g>
    <g id="xtick_3">
     <g id="line2d_5">
      <path d="M 193.5 288 
L 193.5 43.2 
" clip-path="url(#pb50b1ef25f)" style="fill: none; stroke: #b0b0b0; stroke-width: 0.8; stroke-linecap: square"/>
     </g>
     <g id="line2d_6">
      <g>
       <use xlink:href="#mda0f996105" x="193.5" y="288" style="stroke: #000000; stroke-width: 0.8"/>
      </g>
     </g>
     <g id="text_3">
      <!-- 32 KiB -->
      <g transform="translate(176.174779 323.071034) rotate(-45) scale(0.1 -0.1)">
       <defs>
        <path id="DejaVuSans-33" d="M 2597 2516 
Q 3050 2419 3304 2112 
Q 3559 1806 3559 1356 
Q 3559 666 3084 287 
Q 2609 -91 1734 -91 
Q 1441 -91 1130 -33 
Q 819 25 488 141 
L 488 750 
Q 750 597 1062 519 
Q 1375 441 1716 441 
Q 2309 441 2620 675 
Q 2931 909 2931 1356 
Q 2931 1769 2642 2001 
Q 2353 2234 1838 2234 
L 1294 2234 
L 1294 2753 
L 1863 2753 
Q 2328 2753 2575 2939 
Q 2822 3125 2822 3475 
Q 2822 3834 2567 4026 
Q 2313 4219 1838 4219 
Q 1578 4219 1281 4162 
Q 984 4106 628 3988 
L 628 4550 
Q 988 4650 1302 4700 
Q 1616 4750 1894 4750 
Q 2613 4750 3031 4423 
Q 3450 4097 3450 3541 
Q 3450 3153 3228 2886 
Q 3006 2619 2597 2516 
z
" transform="scale(0.015625)"/>
       </defs>
       <use xlink:href="#DejaVuSans-33"/>
       <use xlink:href="#DejaVuSans-32" x="63.623047"/>
       <use xlink:href="#DejaVuSans-20" x="127.246094"/>
       <use xlink:href="#DejaVuSans-4b" x="159.033203"/>
       <use xlink:href="#DejaVuSans-69" x="224.609375"/>
       <use xlink:href="#DejaVuSans-42" x="252.392578"/>
      </g>
     </g>
    </g>
    <g id="xtick_4">
     <g id="line2d_7">
      <path d="M 249.3 288 
L 249.3 43.2 
" clip-path="url(#pb50b1ef25f)" style="fill: none; stroke: #b0b0b0; stroke-width: 0.8; stroke-linecap: square"/>
     </g>
     <g id="line2d_8">
      <g>
       <use xlink:href="#mda0f996105" x="249.3" y="288" style="stroke: #000000; stroke-width: 0.8"/>
      </g>
     </g>
     <g id="text_4">
      <!-- 256 KiB -->
      <g transform="translate(227.475812 327.570001) rotate(-45) scale(0.1 -0.1)">
       <defs>
        <path id="DejaVuSans-36" d="M 2113 2584 
Q 1688 2584 1439 2293 
Q 1191 2003 1191 1497 
Q 1191 994 1439 701 
Q 1688 409 2113 409 
Q 2538 409 2786 701 
Q 3034 994 3034 1497 
Q 3034 2003 2786 2293 
Q 2538 2584 2113 2584 
z
M 3366 4563 
L 3366 3988 
Q 3128 4100 2886 4159 
Q 2644 4219 2406 4219 
Q 1781 4219 1451 3797 
Q 1122 3375 1075 2522 
Q 1259 2794 1537 2939 
Q 1816 3084 2150 3084 
Q 2853 3084 3261 2657 
Q 3669 2231 3669 1497 
Q 3669 778 3244 343 
Q 2819 -91 2113 -91 
Q 1303 -91 875 529 
Q 447 1150 447 2328 
Q 447 3434 972 4092 
Q 1497 4750 2381 4750 
Q 2619 4750 2861 4703 
Q 3103 4656 3366 4563 
z
" transform="scale(0.015625)"/>
       </defs>
       <use xlink:href="#DejaVuSans-32"/>
       <use xlink:href="#DejaVuSans-35" x="63.623047"/>
       <use xlink:href="#DejaVuSans-36" x="127.246094"/>
       <use xlink:href="#DejaVuSans-20" x="190.869141"/>
       <use xlink:href="#DejaVuSans-4b" x="222.65625"/>
       <use xlink:href="#DejaVuSans-69" x="288.232422"/>
       <use xlink:href="#DejaVuSans-42" x="316.015625"/>
      </g>
     </g>
    </g>
    <g id="xtick_5">
     <g id="line2d_9">
      <path d="M 305.1 288 
L 305.1 43.2 
" clip-path="url(#pb50b1ef25f)" style="fill: none; stroke: #b0b0b0; stroke-width: 0.8; stroke-linecap: square"/>
     </g>
     <g id="line2d_10">
      <g>
       <use xlink:href="#mda0f996105" x="305.1" y="288" style="stroke: #000000; stroke-width: 0.8"/>
      </g>
     </g>
     <g id="text_5">
      <!-- 1 MiB -->
      <g transform="translate(290.809814 320.035999) rotate(-45) scale(0.1 -0.1)">
       <defs>
        <path id="DejaVuSans-4d" d="M 628 4666 
L 1569 4666 
L 2759 1491 
L 3956 4666 
L 4897 4666 
L 4897 0 
L 4281 0 
L 4281 4097 
L 3078 897 
L 2444 897 
L 1241 4097 
L 1241 0 
L 628 0 
L 628 4666 
z
" transform="scale(0.015625)"/>
       </defs>
       <use xlink:href="#DejaVuSans-31"/>
       <use xlink:href="#DejaVuSans-20" x="63.623047"/>
       <use xlink:href="#DejaVuSans-4d" x="95.410156"/>
       <use xlink:href="#DejaVuSans-69" x="181.689453"/>
       <use xlink:href="#DejaVuSans-42" x="209.472656"/>
      </g>
     </g>
    </g>
    <g id="xtick_6">
     <g id="line2d_11">
      <path d="M 360.9 288 
L 360.9 43.2 
" clip-path="url(#pb50b1ef25f)" style="fill: none; stroke: #b0b0b0; stroke-width: 0.8; stroke-linecap: square"/>
     </g>
     <g id="line2d_12">
      <g>
       <use xlink:href="#mda0f996105" x="360.9" y="288" style="stroke: #000000; stroke-width: 0.8"/>
      </g>
     </g>
     <g id="text_6">
      <!-- 16 MiB -->
      <g transform="translate(342.110847 324.534966) rotate(-45) scale(0.1 -0.1)">
       <use xlink:href="#DejaVuSans-31"/>
       <use xlink:href="#DejaVuSans-36" x="63.623047"/>
       <use xlink:href="#DejaVuSans-20" x="127.246094"/>
       <use xlink:href="#DejaVuSans-4d" x="159.033203"/>
       <use xlink:href="#DejaVuSans-69" x="245.3125"/>
       <use xlink:href="#DejaVuSans-42" x="273.095703"/>
      </g>
     </g>
    </g>
    <g id="text_7">
     <!-- Block size -->
     <g transform="translate(196.592969 340.639) scale(0.1 -0.1)">
      <defs>
       <path id="DejaVuSans-6c" d="M 603 4863 
L 1178 4863 
L 1178 0 
L 603 0 
L 603 4863 
z
" transform="scale(0.015625)"/>
       <path id="DejaVuSans-6f" d="M 1959 3097 
Q 1497 3097 1228 2736 
Q 959 2375 959 1747 
Q 959 1119 1226 758 
Q 1494 397 1959 397 
Q 2419 397 2687 759 
Q 2956 1122 2956 1747 
Q 2956 2369 2687 2733 
Q 2419 3097 1959 3097 
z
M 1959 3584 
Q 2709 3584 3137 3096 
Q 3566 2609 3566 1747 
Q 3566 888 3137 398 
Q 2709 -91 1959 -91 
Q 1206 -91 779 398 
Q 353 888 353 1747 
Q 353 2609 779 3096 
Q 1206 3584 1959 3584 
z
" transform="scale(0.015625)"/>
       <path id="DejaVuSans-63" d="M 3122 3366 
L 3122 2828 
Q 2878 2963 2633 3030 
Q 2388 3097 2138 3097 
Q 1578 3097 1268 2742 
Q 959 2388 959 1747 
Q 959 1106 1268 751 
Q 1578 397 2138 397 
Q 2388 397 2633 464 
Q 2878 531 3122 666 
L 3122 134 
Q 2881 22 2623 -34 
Q 2366 -91 2075 -91 
Q 1284 -91 818 406 
Q 353 903 353 1747 
Q 353 2603 823 3093 
Q 1294 3584 2113 3584 
Q 2378 3584 2631 3529 
Q 2884 3475 3122 3366 
z
" transform="scale(0.015625)"/>
       <path id="DejaVuSans-6b" d="M 581 4863 
L 1159 4863 
L 1159 1991 
L 2875 3500 
L 3609 3500 
L 1753 1863 
L 3688 0 
L 2938 0 
L 1159 1709 
L 1159 0 
L 581 0 
L 581 4863 
z
" transform="scale(0.015625)"/>
       <path id="DejaVuSans-73" d="M 2834 3397 
L 2834 2853 
Q 2591 2978 2328 3040 
Q 2066 3103 1784 3103 
Q 1356 3103 1142 2972 
Q 928 2841 928 2578 
Q 928 2378 1081 2264 
Q 1234 2150 1697 2047 
L 1894 2003 
Q 2506 1872 2764 1633 
Q 3022 1394 3022 966 
Q 3022 478 2636 193 
Q 2250 -91 1575 -91 
Q 1294 -91 989 -36 
Q 684 19 347 128 
L 347 722 
Q 666 556 975 473 
Q 1284 391 1588 391 
Q 1994 391 2212 530 
Q 2431 669 2431 922 
Q 2431 1156 2273 1281 
Q 2116 1406 1581 1522 
L 1381 1569 
Q 847 1681 609 1914 
Q 372 2147 372 2553 
Q 372 3047 722 3315 
Q 1072 3584 1716 3584 
Q 2034 3584 2315 3537 
Q 2597 3491 2834 3397 
z
" transform="scale(0.015625)"/>
       <path id="DejaVuSans-7a" d="M 353 3500 
L 3084 3500 
L 3084 2975 
L 922 459 
L 3084 459 
L 3084 0 
L 275 0 
L 275 525 
L 2438 3041 
L 353 3041 
L 353 3500 
z
" transform="scale(0.015625)"/>
       <path id="DejaVuSans-65" d="M 3597 1894 
L 3597 1613 
L 953 1613 
Q 991 1019 1311 708 
Q 1631 397 2203 397 
Q 2534 397 2845 478 
Q 3156 559 3463 722 
L 3463 178 
Q 3153 47 2828 -22 
Q 2503 -91 2169 -91 
Q 1331 -91 842 396 
Q 353 884 353 1716 
Q 353 2575 817 3079 
Q 1281 3584 2069 3584 
Q 2775 3584 3186 3129 
Q 3597 2675 3597 1894 
z
M 3022 2063 
Q 3016 2534 2758 2815 
Q 2500 3097 2075 3097 
Q 1594 3097 1305 2825 
Q 1016 2553 972 2059 
L 3022 2063 
z
" transform="scale(0.015625)"/>
      </defs>
      <use xlink:href="#DejaVuSans-42"/>
      <use xlink:href="#DejaVuSans-6c" x="68.603516"/>
      <use xlink:href="#DejaVuSans-6f" x="96.386719"/>
      <use xlink:href="#DejaVuSans-63" x="157.568359"/>
      <use xlink:href="#DejaVuSans-6b" x="212.548828"/>
      <use xlink:href="#DejaVuSans-20" x="270.458984"/>
      <use xlink:href="#DejaVuSans-73" x="302.246094"/>
      <use xlink:href="#DejaVuSans-69" x="354.345703"/>
      <use xlink:href="#DejaVuSans-7a" x="382.128906"/>
      <use xlink:href="#DejaVuSans-65" x="434.619141"/>
     </g>
    </g>
   </g>
   <g id="matplotlib.axis_2">
    <g id="ytick_1">
     <g id="line2d_13">
      <path d="M 54 274.861121 
L 388.8 274.861121 
" clip-path="url(#pb50b1ef25f)" style="fill: none; stroke: #b0b0b0; stroke-width: 0.8; stroke-linecap: square"/>
     </g>
     <g id="line2d_14">
      <defs>
       <path id="m9d707d3529" d="M 0 0 
L -3.5 0 
" style="stroke: #000000; stroke-width: 0.8"/>
      </defs>
      <g>
       <use xlink:href="#m9d707d3529" x="54" y="274.861121" style="stroke: #000000; stroke-width: 0.8"/>
      </g>
     </g>
     <g id="text_8">
      <!-- −0.15 -->
      <g transform="translate(16.354687 278.66034) scale(0.1 -0.1)">
       <defs>
        <path id="DejaVuSans-2212" d="M 678 2272 
L 4684 2272 
L 4684 1741 
L 678 1741 
L 678 2272 
z
" transform="scale(0.015625)"/>
        <path id="DejaVuSans-30" d="M 2034 4250 
Q 1547 4250 1301 3770 
Q 1056 3291 1056 2328 
Q 1056 1369 1301 889 
Q 1547 409 2034 409 
Q 2525 409 2770 889 
Q 3016 1369 3016 2328 
Q 3016 3291 2770 3770 
Q 2525 4250 2034 4250 
z
M 2034 4750 
Q 2819 4750 3233 4129 
Q 3647 3509 3647 2328 
Q 3647 1150 3233 529 
Q 2819 -91 2034 -91 
Q 1250 -91 836 529 
Q 422 1150 422 2328 
Q 422 3509 836 4129 
Q 1250 4750 2034 4750 
z
" transform="scale(0.015625)"/>
        <path id="DejaVuSans-2e" d="M 684 794 
L 1344 794 
L 1344 0 
L 684 0 
L 684 794 
z
" transform="scale(0.015625)"/>
       </defs>
       <use xlink:href="#DejaVuSans-2212"/>
       <use xlink:href="#DejaVuSans-30" x="83.789062"/>
       <use xlink:href="#DejaVuSans-2e" x="147.412109"/>
       <use xlink:href="#DejaVuSans-31" x="179.199219"/>
       <use xlink:href="#DejaVuSans-35" x="242.822266"/>
      </g>
     </g>
    </g>
    <g id="ytick_2">
     <g id="line2d_15">
      <path d="M 54 247.233836 
L 388.8 247.233836 
" clip-path="url(#pb50b1ef25f)" style="fill: none; stroke: #b0b0b0; stroke-width: 0.8; stroke-linecap: square"/>
     </g>
     <g id="line2d_16">
      <g>
       <use xlink:href="#m9d707d3529" x="54" y="247.233836" style="stroke: #000000; stroke-width: 0.8"/>
      </g>
     </g>
     <g id="text_9">
      <!-- −0.10 -->
      <g transform="translate(16.354687 251.033055) scale(0.1 -0.1)">
       <use xlink:href="#DejaVuSans-2212"/>
       <use xlink:href="#DejaVuSans-30" x="83.789062"/>
       <use xlink:href="#DejaVuSans-2e" x="147.412109"/>
       <use xlink:href="#DejaVuSans-31" x="179.199219"/>
       <use xlink:href="#DejaVuSans-30" x="242.822266"/>
      </g>
     </g>
    </g>
    <g id="ytick_3">
     <g id="line2d_17">
      <path d="M 54 219.606552 
L 388.8 219.606552 
" clip-path="url(#pb50b1ef25f)" style="fill: none; stroke: #b0b0b0; stroke-width: 0.8; stroke-linecap: square"/>
     </g>
     <g id="line2d_18">
      <g>
       <use xlink:href="#m9d707d3529" x="54" y="219.606552" style="stroke: #000000; stroke-width: 0.8"/>
      </g>
     </g>
     <g id="text_10">
      <!-- −0.05 -->
      <g transform="translate(16.354687 223.40577) scale(0.1 -0.1)">
       <use xlink:href="#DejaVuSans-2212"/>
       <use xlink:href="#DejaVuSans-30" x="83.789062"/>
       <use xlink:href="#DejaVuSans-2e" x="147.412109"/>
       <use xlink:href="#DejaVuSans-30" x="179.199219"/>
       <use xlink:href="#DejaVuSans-35" x="242.822266"/>
      </g>
     </g>
    </g>
    <g id="ytick_4">
     <g id="line2d_19">
      <path d="M 54 191.979267 
L 388.8 191.979267 
" clip-path="url(#pb50b1ef25f)" style="fill: none; stroke: #b0b0b0; stroke-width: 0.8; stroke-linecap: square"/>
     </g>
     <g id="line2d_20">
      <g>
       <use xlink:href="#m9d707d3529" x="54" y="191.979267" style="stroke: #000000; stroke-width: 0.8"/>
      </g>
     </g>
     <g id="text_11">
      <!-- 0.00 -->
      <g transform="translate(24.734375 195.778486) scale(0.1 -0.1)">
       <use xlink:href="#DejaVuSans-30"/>
       <use xlink:href="#DejaVuSans-2e" x="63.623047"/>
       <use xlink:href="#DejaVuSans-30" x="95.410156"/>
       <use xlink:href="#DejaVuSans-30" x="159.033203"/>
      </g>
     </g>
    </g>
    <g id="ytick_5">
     <g id="line2d_21">
      <path d="M 54 164.351982 
L 388.8 164.351982 
" clip-path="url(#pb50b1ef25f)" style="fill: none; stroke: #b0b0b0; stroke-width: 0.8; stroke-linecap: square"/>
     </g>
     <g id="line2d_22">
      <g>
       <use xlink:href="#m9d707d3529" x="54" y="164.351982" style="stroke: #000000; stroke-width: 0.8"/>
      </g>
     </g>
     <g id="text_12">
      <!-- 0.05 -->
      <g transform="translate(24.734375 168.151201) scale(0.1 -0.1)">
       <use xlink:href="#DejaVuSans-30"/>
       <use xlink:href="#DejaVuSans-2e" x="63.623047"/>
       <use xlink:href="#DejaVuSans-30" x="95.410156"/>
       <use xlink:href="#DejaVuSans-35" x="159.033203"/>
      </g>
     </g>
    </g>
    <g id="ytick_6">
     <g id="line2d_23">
      <path d="M 54 136.724698 
L 388.8 136.724698 
" clip-path="url(#pb50b1ef25f)" style="fill: none; stroke: #b0b0b0; stroke-width: 0.8; stroke-linecap: square"/>
     </g>
     <g id="line2d_24">
      <g>
       <use xlink:href="#m9d707d3529" x="54" y="136.724698" style="stroke: #000000; stroke-width: 0.8"/>
      </g>
     </g>
     <g id="text_13">
      <!-- 0.10 -->
      <g transform="translate(24.734375 140.523917) scale(0.1 -0.1)">
       <use xlink:href="#DejaVuSans-30"/>
       <use xlink:href="#DejaVuSans-2e" x="63.623047"/>
       <use xlink:href="#DejaVuSans-31" x="95.410156"/>
       <use xlink:href="#DejaVuSans-30" x="159.033203"/>
      </g>
     </g>
    </g>
    <g id="ytick_7">
     <g id="line2d_25">
      <path d="M 54 109.097413 
L 388.8 109.097413 
" clip-path="url(#pb50b1ef25f)" style="fill: none; stroke: #b0b0b0; stroke-width: 0.8; stroke-linecap: square"/>
     </g>
     <g id="line2d_26">
      <g>
       <use xlink:href="#m9d707d3529" x="54" y="109.097413" style="stroke: #000000; stroke-width: 0.8"/>
      </g>
     </g>
     <g id="text_14">
      <!-- 0.15 -->
      <g transform="translate(24.734375 112.896632) scale(0.1 -0.1)">
       <use xlink:href="#DejaVuSans-30"/>
       <use xlink:href="#DejaVuSans-2e" x="63.623047"/>
       <use xlink:href="#DejaVuSans-31" x="95.410156"/>
       <use xlink:href="#DejaVuSans-35" x="159.033203"/>
      </g>
     </g>
    </g>
    <g id="ytick_8">
     <g id="line2d_27">
      <path d="M 54 81.470129 
L 388.8 81.470129 
" clip-path="url(#pb50b1ef25f)" style="fill: none; stroke: #b0b0b0; stroke-width: 0.8; stroke-linecap: square"/>
     </g>
     <g id="line2d_28">
      <g>
       <use xlink:href="#m9d707d3529" x="54" y="81.470129" style="stroke: #000000; stroke-width: 0.8"/>
      </g>
     </g>
     <g id="text_15">
      <!-- 0.20 -->
      <g transform="translate(24.734375 85.269347) scale(0.1 -0.1)">
       <use xlink:href="#DejaVuSans-30"/>
       <use xlink:href="#DejaVuSans-2e" x="63.623047"/>
       <use xlink:href="#DejaVuSans-32" x="95.410156"/>
       <use xlink:href="#DejaVuSans-30" x="159.033203"/>
      </g>
     </g>
    </g>
    <g id="ytick_9">
     <g id="line2d_29">
      <path d="M 54 53.842844 
L 388.8 53.842844 
" clip-path="url(#pb50b1ef25f)" style="fill: none; stroke: #b0b0b0; stroke-width: 0.8; stroke-linecap: square"/>
     </g>
     <g id="line2d_30">
      <g>
       <use xlink:href="#m9d707d3529" x="54" y="53.842844" style="stroke: #000000; stroke-width: 0.8"/>
      </g>
     </g>
     <g id="text_16">
      <!-- 0.25 -->
      <g transform="translate(24.734375 57.642063) scale(0.1 -0.1)">
       <use xlink:href="#DejaVuSans-30"/>
       <use xlink:href="#DejaVuSans-2e" x="63.623047"/>
       <use xlink:href="#DejaVuSans-32" x="95.410156"/>
       <use xlink:href="#DejaVuSans-35" x="159.033203"/>
      </g>
     </g>
    </g>
    <g id="ytick_10">
     <g id="line2d_31">
      <path d="M 54 261.047479 
L 388.8 261.047479 
" clip-path="url(#pb50b1ef25f)" style="fill: none; stroke: #b0b0b0; stroke-width: 0.8; stroke-linecap: square"/>
     </g>
     <g id="line2d_32">
      <defs>
       <path id="medb0e5e76a" d="M 0 0 
L -2 0 
" style="stroke: #000000; stroke-width: 0.6"/>
      </defs>
      <g>
       <use xlink:href="#medb0e5e76a" x="54" y="261.047479" style="stroke: #000000; stroke-width: 0.6"/>
      </g>
     </g>
    </g>
    <g id="ytick_11">
     <g id="line2d_33">
      <path d="M 54 233.420194 
L 388.8 233.420194 
" clip-path="url(#pb50b1ef25f)" style="fill: none; stroke: #b0b0b0; stroke-width: 0.8; stroke-linecap: square"/>
     </g>
     <g id="line2d_34">
      <g>
       <use xlink:href="#medb0e5e76a" x="54" y="233.420194" style="stroke: #000000; stroke-width: 0.6"/>
      </g>
     </g>
    </g>
    <g id="ytick_12">
     <g id="line2d_35">
      <path d="M 54 205.792909 
L 388.8 205.792909 
" clip-path="url(#pb50b1ef25f)" style="fill: none; stroke: #b0b0b0; stroke-width: 0.8; stroke-linecap: square"/>
     </g>
     <g id="line2d_36">
      <g>
       <use xlink:href="#medb0e5e76a" x="54" y="205.792909" style="stroke: #000000; stroke-width: 0.6"/>
      </g>
     </g>
    </g>
    <g id="ytick_13">
     <g id="line2d_37">
      <path d="M 54 178.165625 
L 388.8 178.165625 
" clip-path="url(#pb50b1ef25f)" style="fill: none; stroke: #b0b0b0; stroke-width: 0.8; stroke-linecap: square"/>
     </g>
     <g id="line2d_38">
      <g>
       <use xlink:href="#medb0e5e76a" x="54" y="178.165625" style="stroke: #000000; stroke-width: 0.6"/>
      </g>
     </g>
    </g>
    <g id="ytick_14">
     <g id="line2d_39">
      <path d="M 54 150.53834 
L 388.8 150.53834 
" clip-path="url(#pb50b1ef25f)" style="fill: none; stroke: #b0b0b0; stroke-width: 0.8; stroke-linecap: square"/>
     </g>
     <g id="line2d_40">
      <g>
       <use xlink:href="#medb0e5e76a" x="54" y="150.53834" style="stroke: #000000; stroke-width: 0.6"/>
      </g>
     </g>
    </g>
    <g id="ytick_15">
     <g id="line2d_41">
      <path d="M 54 122.911056 
L 388.8 122.911056 
" clip-path="url(#pb50b1ef25f)" style="fill: none; stroke: #b0b0b0; stroke-width: 0.8; stroke-linecap: square"/>
     </g>
     <g id="line2d_42">
      <g>
       <use xlink:href="#medb0e5e76a" x="54" y="122.911056" style="stroke: #000000; stroke-width: 0.6"/>
      </g>
     </g>
    </g>
    <g id="ytick_16">
     <g id="line2d_43">
      <path d="M 54 95.283771 
L 388.8 95.283771 
" clip-path="url(#pb50b1ef25f)" style="fill: none; stroke: #b0b0b0; stroke-width: 0.8; stroke-linecap: square"/>
     </g>
     <g id="line2d_44">
      <g>
       <use xlink:href="#medb0e5e76a" x="54" y="95.283771" style="stroke: #000000; stroke-width: 0.6"/>
      </g>
     </g>
    </g>
    <g id="ytick_17">
     <g id="line2d_45">
      <path d="M 54 67.656486 
L 388.8 67.656486 
" clip-path="url(#pb50b1ef25f)" style="fill: none; stroke: #b0b0b0; stroke-width: 0.8; stroke-linecap: square"/>
     </g>
     <g id="line2d_46">
      <g>
       <use xlink:href="#medb0e5e76a" x="54" y="67.656486" style="stroke: #000000; stroke-width: 0.6"/>
      </g>
     </g>
    </g>
    <g id="text_17">
     <!-- Relative difference -->
     <g transform="translate(10.275 212.527344) rotate(-90) scale(0.1 -0.1)">
      <defs>
       <path id="DejaVuSans-52" d="M 2841 2188 
Q 3044 2119 3236 1894 
Q 3428 1669 3622 1275 
L 4263 0 
L 3584 0 
L 2988 1197 
Q 2756 1666 2539 1819 
Q 2322 1972 1947 1972 
L 1259 1972 
L 1259 0 
L 628 0 
L 628 4666 
L 2053 4666 
Q 2853 4666 3247 4331 
Q 3641 3997 3641 3322 
Q 3641 2881 3436 2590 
Q 3231 2300 2841 2188 
z
M 1259 4147 
L 1259 2491 
L 2053 2491 
Q 2509 2491 2742 2702 
Q 2975 2913 2975 3322 
Q 2975 3731 2742 3939 
Q 2509 4147 2053 4147 
L 1259 4147 
z
" transform="scale(0.015625)"/>
       <path id="DejaVuSans-61" d="M 2194 1759 
Q 1497 1759 1228 1600 
Q 959 1441 959 1056 
Q 959 750 1161 570 
Q 1363 391 1709 391 
Q 2188 391 2477 730 
Q 2766 1069 2766 1631 
L 2766 1759 
L 2194 1759 
z
M 3341 1997 
L 3341 0 
L 2766 0 
L 2766 531 
Q 2569 213 2275 61 
Q 1981 -91 1556 -91 
Q 1019 -91 701 211 
Q 384 513 384 1019 
Q 384 1609 779 1909 
Q 1175 2209 1959 2209 
L 2766 2209 
L 2766 2266 
Q 2766 2663 2505 2880 
Q 2244 3097 1772 3097 
Q 1472 3097 1187 3025 
Q 903 2953 641 2809 
L 641 3341 
Q 956 3463 1253 3523 
Q 1550 3584 1831 3584 
Q 2591 3584 2966 3190 
Q 3341 2797 3341 1997 
z
" transform="scale(0.015625)"/>
       <path id="DejaVuSans-74" d="M 1172 4494 
L 1172 3500 
L 2356 3500 
L 2356 3053 
L 1172 3053 
L 1172 1153 
Q 1172 725 1289 603 
Q 1406 481 1766 481 
L 2356 481 
L 2356 0 
L 1766 0 
Q 1100 0 847 248 
Q 594 497 594 1153 
L 594 3053 
L 172 3053 
L 172 3500 
L 594 3500 
L 594 4494 
L 1172 4494 
z
" transform="scale(0.015625)"/>
       <path id="DejaVuSans-76" d="M 191 3500 
L 800 3500 
L 1894 563 
L 2988 3500 
L 3597 3500 
L 2284 0 
L 1503 0 
L 191 3500 
z
" transform="scale(0.015625)"/>
       <path id="DejaVuSans-64" d="M 2906 2969 
L 2906 4863 
L 3481 4863 
L 3481 0 
L 2906 0 
L 2906 525 
Q 2725 213 2448 61 
Q 2172 -91 1784 -91 
Q 1150 -91 751 415 
Q 353 922 353 1747 
Q 353 2572 751 3078 
Q 1150 3584 1784 3584 
Q 2172 3584 2448 3432 
Q 2725 3281 2906 2969 
z
M 947 1747 
Q 947 1113 1208 752 
Q 1469 391 1925 391 
Q 2381 391 2643 752 
Q 2906 1113 2906 1747 
Q 2906 2381 2643 2742 
Q 2381 3103 1925 3103 
Q 1469 3103 1208 2742 
Q 947 2381 947 1747 
z
" transform="scale(0.015625)"/>
       <path id="DejaVuSans-66" d="M 2375 4863 
L 2375 4384 
L 1825 4384 
Q 1516 4384 1395 4259 
Q 1275 4134 1275 3809 
L 1275 3500 
L 2222 3500 
L 2222 3053 
L 1275 3053 
L 1275 0 
L 697 0 
L 697 3053 
L 147 3053 
L 147 3500 
L 697 3500 
L 697 3744 
Q 697 4328 969 4595 
Q 1241 4863 1831 4863 
L 2375 4863 
z
" transform="scale(0.015625)"/>
       <path id="DejaVuSans-72" d="M 2631 2963 
Q 2534 3019 2420 3045 
Q 2306 3072 2169 3072 
Q 1681 3072 1420 2755 
Q 1159 2438 1159 1844 
L 1159 0 
L 581 0 
L 581 3500 
L 1159 3500 
L 1159 2956 
Q 1341 3275 1631 3429 
Q 1922 3584 2338 3584 
Q 2397 3584 2469 3576 
Q 2541 3569 2628 3553 
L 2631 2963 
z
" transform="scale(0.015625)"/>
       <path id="DejaVuSans-6e" d="M 3513 2113 
L 3513 0 
L 2938 0 
L 2938 2094 
Q 2938 2591 2744 2837 
Q 2550 3084 2163 3084 
Q 1697 3084 1428 2787 
Q 1159 2491 1159 1978 
L 1159 0 
L 581 0 
L 581 3500 
L 1159 3500 
L 1159 2956 
Q 1366 3272 1645 3428 
Q 1925 3584 2291 3584 
Q 2894 3584 3203 3211 
Q 3513 2838 3513 2113 
z
" transform="scale(0.015625)"/>
      </defs>
      <use xlink:href="#DejaVuSans-52"/>
      <use xlink:href="#DejaVuSans-65" x="64.982422"/>
      <use xlink:href="#DejaVuSans-6c" x="126.505859"/>
      <use xlink:href="#DejaVuSans-61" x="154.289062"/>
      <use xlink:href="#DejaVuSans-74" x="215.568359"/>
      <use xlink:href="#DejaVuSans-69" x="254.777344"/>
      <use xlink:href="#DejaVuSans-76" x="282.560547"/>
      <use xlink:href="#DejaVuSans-65" x="341.740234"/>
      <use xlink:href="#DejaVuSans-20" x="403.263672"/>
      <use xlink:href="#DejaVuSans-64" x="435.050781"/>
      <use xlink:href="#DejaVuSans-69" x="498.527344"/>
      <use xlink:href="#DejaVuSans-66" x="526.310547"/>
      <use xlink:href="#DejaVuSans-66" x="561.515625"/>
      <use xlink:href="#DejaVuSans-65" x="596.720703"/>
      <use xlink:href="#DejaVuSans-72" x="658.244141"/>
      <use xlink:href="#DejaVuSans-65" x="697.107422"/>
      <use xlink:href="#DejaVuSans-6e" x="758.630859"/>
      <use xlink:href="#DejaVuSans-63" x="822.009766"/>
      <use xlink:href="#DejaVuSans-65" x="876.990234"/>
     </g>
    </g>
   </g>
   <g id="patch_3">
    <path d="M 67.95 191.979267 
L 74.925 191.979267 
L 74.925 274.44128 
L 67.95 274.44128 
z
" clip-path="url(#pb50b1ef25f)" style="fill: #72ab97; stroke: #000000; stroke-width: 0.5; stroke-linejoin: miter"/>
   </g>
   <g id="patch_4">
    <path d="M 123.75 191.979267 
L 130.725 191.979267 
L 130.725 260.946892 
L 123.75 260.946892 
z
" clip-path="url(#pb50b1ef25f)" style="fill: #72ab97; stroke: #000000; stroke-width: 0.5; stroke-linejoin: miter"/>
   </g>
   <g id="patch_5">
    <path d="M 179.55 191.979267 
L 186.525 191.979267 
L 186.525 241.696629 
L 179.55 241.696629 
z
" clip-path="url(#pb50b1ef25f)" style="fill: #72ab97; stroke: #000000; stroke-width: 0.5; stroke-linejoin: miter"/>
   </g>
   <g id="patch_6">
    <path d="M 235.35 191.979267 
L 242.325 191.979267 
L 242.325 211.79077 
L 235.35 211.79077 
z
" clip-path="url(#pb50b1ef25f)" style="fill: #72ab97; stroke: #000000; stroke-width: 0.5; stroke-linejoin: miter"/>
   </g>
   <g id="patch_7">
    <path d="M 291.15 191.979267 
L 298.125 191.979267 
L 298.125 205.038291 
L 291.15 205.038291 
z
" clip-path="url(#pb50b1ef25f)" style="fill: #72ab97; stroke: #000000; stroke-width: 0.5; stroke-linejoin: miter"/>
   </g>
   <g id="patch_8">
    <path d="M 346.95 191.979267 
L 353.925 191.979267 
L 353.925 193.299689 
L 346.95 193.299689 
z
" clip-path="url(#pb50b1ef25f)" style="fill: #72ab97; stroke: #000000; stroke-width: 0.5; stroke-linejoin: miter"/>
   </g>
   <g id="patch_9">
    <path d="M 74.925 191.979267 
L 81.9 191.979267 
L 81.9 276.125327 
L 74.925 276.125327 
z
" clip-path="url(#pb50b1ef25f)" style="fill: #728ca6; stroke: #000000; stroke-width: 0.5; stroke-linejoin: miter"/>
   </g>
   <g id="patch_10">
    <path d="M 130.725 191.979267 
L 137.7 191.979267 
L 137.7 275.083857 
L 130.725 275.083857 
z
" clip-path="url(#pb50b1ef25f)" style="fill: #728ca6; stroke: #000000; stroke-width: 0.5; stroke-linejoin: miter"/>
   </g>
   <g id="patch_11">
    <path d="M 186.525 191.979267 
L 193.5 191.979267 
L 193.5 191.238182 
L 186.525 191.238182 
z
" clip-path="url(#pb50b1ef25f)" style="fill: #728ca6; stroke: #000000; stroke-width: 0.5; stroke-linejoin: miter"/>
   </g>
   <g id="patch_12">
    <path d="M 242.325 191.979267 
L 249.3 191.979267 
L 249.3 191.005769 
L 242.325 191.005769 
z
" clip-path="url(#pb50b1ef25f)" style="fill: #728ca6; stroke: #000000; stroke-width: 0.5; stroke-linejoin: miter"/>
   </g>
   <g id="patch_13">
    <path d="M 298.125 191.979267 
L 305.1 191.979267 
L 305.1 191.979267 
L 298.125 191.979267 
z
" clip-path="url(#pb50b1ef25f)" style="fill: #728ca6; stroke: #000000; stroke-width: 0.5; stroke-linejoin: miter"/>
   </g>
   <g id="patch_14">
    <path d="M 353.925 191.979267 
L 360.9 191.979267 
L 360.9 191.979267 
L 353.925 191.979267 
z
" clip-path="url(#pb50b1ef25f)" style="fill: #728ca6; stroke: #000000; stroke-width: 0.5; stroke-linejoin: miter"/>
   </g>
   <g id="patch_15">
    <path d="M 81.9 191.979267 
L 88.875 191.979267 
L 88.875 248.384152 
L 81.9 248.384152 
z
" clip-path="url(#pb50b1ef25f)" style="fill: #ffdcaa; stroke: #000000; stroke-width: 0.5; stroke-linejoin: miter"/>
   </g>
   <g id="patch_16">
    <path d="M 137.7 191.979267 
L 144.675 191.979267 
L 144.675 55.608305 
L 137.7 55.608305 
z
" clip-path="url(#pb50b1ef25f)" style="fill: #ffdcaa; stroke: #000000; stroke-width: 0.5; stroke-linejoin: miter"/>
   </g>
   <g id="patch_17">
    <path d="M 193.5 191.979267 
L 200.475 191.979267 
L 200.475 113.151581 
L 193.5 113.151581 
z
" clip-path="url(#pb50b1ef25f)" style="fill: #ffdcaa; stroke: #000000; stroke-width: 0.5; stroke-linejoin: miter"/>
   </g>
   <g id="patch_18">
    <path d="M 249.3 191.979267 
L 256.275 191.979267 
L 256.275 191.977793 
L 249.3 191.977793 
z
" clip-path="url(#pb50b1ef25f)" style="fill: #ffdcaa; stroke: #000000; stroke-width: 0.5; stroke-linejoin: miter"/>
   </g>
   <g id="patch_19">
    <path d="M 305.1 191.979267 
L 312.075 191.979267 
L 312.075 191.979267 
L 305.1 191.979267 
z
" clip-path="url(#pb50b1ef25f)" style="fill: #ffdcaa; stroke: #000000; stroke-width: 0.5; stroke-linejoin: miter"/>
   </g>
   <g id="patch_20">
    <path d="M 360.9 191.979267 
L 367.875 191.979267 
L 367.875 191.606909 
L 360.9 191.606909 
z
" clip-path="url(#pb50b1ef25f)" style="fill: #ffdcaa; stroke: #000000; stroke-width: 0.5; stroke-linejoin: miter"/>
   </g>
   <g id="patch_21">
    <path d="M 88.875 191.979267 
L 95.85 191.979267 
L 95.85 247.602863 
L 88.875 247.602863 
z
" clip-path="url(#pb50b1ef25f)" style="fill: #ffc6aa; stroke: #000000; stroke-width: 0.5; stroke-linejoin: miter"/>
   </g>
   <g id="patch_22">
    <path d="M 144.675 191.979267 
L 151.65 191.979267 
L 151.65 191.846829 
L 144.675 191.846829 
z
" clip-path="url(#pb50b1ef25f)" style="fill: #ffc6aa; stroke: #000000; stroke-width: 0.5; stroke-linejoin: miter"/>
   </g>
   <g id="patch_23">
    <path d="M 200.475 191.979267 
L 207.45 191.979267 
L 207.45 138.908821 
L 200.475 138.908821 
z
" clip-path="url(#pb50b1ef25f)" style="fill: #ffc6aa; stroke: #000000; stroke-width: 0.5; stroke-linejoin: miter"/>
   </g>
   <g id="patch_24">
    <path d="M 256.275 191.979267 
L 263.25 191.979267 
L 263.25 191.979267 
L 256.275 191.979267 
z
" clip-path="url(#pb50b1ef25f)" style="fill: #ffc6aa; stroke: #000000; stroke-width: 0.5; stroke-linejoin: miter"/>
   </g>
   <g id="patch_25">
    <path d="M 312.075 191.979267 
L 319.05 191.979267 
L 319.05 191.979267 
L 312.075 191.979267 
z
" clip-path="url(#pb50b1ef25f)" style="fill: #ffc6aa; stroke: #000000; stroke-width: 0.5; stroke-linejoin: miter"/>
   </g>
   <g id="patch_26">
    <path d="M 367.875 191.979267 
L 374.85 191.979267 
L 374.85 176.978501 
L 367.875 176.978501 
z
" clip-path="url(#pb50b1ef25f)" style="fill: #ffc6aa; stroke: #000000; stroke-width: 0.5; stroke-linejoin: miter"/>
   </g>
   <g id="LineCollection_1">
    <path d="M 71.4375 274.785543 
L 71.4375 274.097017 
" clip-path="url(#pb50b1ef25f)" style="fill: none; stroke: #000000; stroke-width: 0.5"/>
    <path d="M 127.2375 261.424628 
L 127.2375 260.469157 
" clip-path="url(#pb50b1ef25f)" style="fill: none; stroke: #000000; stroke-width: 0.5"/>
    <path d="M 183.0375 241.903152 
L 183.0375 241.490105 
" clip-path="url(#pb50b1ef25f)" style="fill: none; stroke: #000000; stroke-width: 0.5"/>
    <path d="M 238.8375 211.844238 
L 238.8375 211.737301 
" clip-path="url(#pb50b1ef25f)" style="fill: none; stroke: #000000; stroke-width: 0.5"/>
    <path d="M 294.6375 205.101723 
L 294.6375 204.97486 
" clip-path="url(#pb50b1ef25f)" style="fill: none; stroke: #000000; stroke-width: 0.5"/>
    <path d="M 350.4375 193.368116 
L 350.4375 193.231261 
" clip-path="url(#pb50b1ef25f)" style="fill: none; stroke: #000000; stroke-width: 0.5"/>
   </g>
   <g id="line2d_47">
    <defs>
     <path id="m5dbafc27e9" d="M 1.5 0 
L -1.5 -0 
" style="stroke: #000000"/>
    </defs>
    <g clip-path="url(#pb50b1ef25f)">
     <use xlink:href="#m5dbafc27e9" x="71.4375" y="274.785543" style="stroke: #000000"/>
     <use xlink:href="#m5dbafc27e9" x="127.2375" y="261.424628" style="stroke: #000000"/>
     <use xlink:href="#m5dbafc27e9" x="183.0375" y="241.903152" style="stroke: #000000"/>
     <use xlink:href="#m5dbafc27e9" x="238.8375" y="211.844238" style="stroke: #000000"/>
     <use xlink:href="#m5dbafc27e9" x="294.6375" y="205.101723" style="stroke: #000000"/>
     <use xlink:href="#m5dbafc27e9" x="350.4375" y="193.368116" style="stroke: #000000"/>
    </g>
   </g>
   <g id="line2d_48">
    <g clip-path="url(#pb50b1ef25f)">
     <use xlink:href="#m5dbafc27e9" x="71.4375" y="274.097017" style="stroke: #000000"/>
     <use xlink:href="#m5dbafc27e9" x="127.2375" y="260.469157" style="stroke: #000000"/>
     <use xlink:href="#m5dbafc27e9" x="183.0375" y="241.490105" style="stroke: #000000"/>
     <use xlink:href="#m5dbafc27e9" x="238.8375" y="211.737301" style="stroke: #000000"/>
     <use xlink:href="#m5dbafc27e9" x="294.6375" y="204.97486" style="stroke: #000000"/>
     <use xlink:href="#m5dbafc27e9" x="350.4375" y="193.231261" style="stroke: #000000"/>
    </g>
   </g>
   <g id="LineCollection_2">
    <path d="M 78.4125 276.872727 
L 78.4125 275.377928 
" clip-path="url(#pb50b1ef25f)" style="fill: none; stroke: #000000; stroke-width: 0.5"/>
    <path d="M 134.2125 276.037881 
L 134.2125 274.129833 
" clip-path="url(#pb50b1ef25f)" style="fill: none; stroke: #000000; stroke-width: 0.5"/>
    <path d="M 190.0125 191.430627 
L 190.0125 191.045738 
" clip-path="url(#pb50b1ef25f)" style="fill: none; stroke: #000000; stroke-width: 0.5"/>
    <path d="M 245.8125 191.203299 
L 245.8125 190.80824 
" clip-path="url(#pb50b1ef25f)" style="fill: none; stroke: #000000; stroke-width: 0.5"/>
    <path d="M 301.6125 191.979267 
L 301.6125 191.979267 
" clip-path="url(#pb50b1ef25f)" style="fill: none; stroke: #000000; stroke-width: 0.5"/>
    <path d="M 357.4125 191.979267 
L 357.4125 191.979267 
" clip-path="url(#pb50b1ef25f)" style="fill: none; stroke: #000000; stroke-width: 0.5"/>
   </g>
   <g id="line2d_49">
    <g clip-path="url(#pb50b1ef25f)">
     <use xlink:href="#m5dbafc27e9" x="78.4125" y="276.872727" style="stroke: #000000"/>
     <use xlink:href="#m5dbafc27e9" x="134.2125" y="276.037881" style="stroke: #000000"/>
     <use xlink:href="#m5dbafc27e9" x="190.0125" y="191.430627" style="stroke: #000000"/>
     <use xlink:href="#m5dbafc27e9" x="245.8125" y="191.203299" style="stroke: #000000"/>
     <use xlink:href="#m5dbafc27e9" x="301.6125" y="191.979267" style="stroke: #000000"/>
     <use xlink:href="#m5dbafc27e9" x="357.4125" y="191.979267" style="stroke: #000000"/>
    </g>
   </g>
   <g id="line2d_50">
    <g clip-path="url(#pb50b1ef25f)">
     <use xlink:href="#m5dbafc27e9" x="78.4125" y="275.377928" style="stroke: #000000"/>
     <use xlink:href="#m5dbafc27e9" x="134.2125" y="274.129833" style="stroke: #000000"/>
     <use xlink:href="#m5dbafc27e9" x="190.0125" y="191.045738" style="stroke: #000000"/>
     <use xlink:href="#m5dbafc27e9" x="245.8125" y="190.80824" style="stroke: #000000"/>
     <use xlink:href="#m5dbafc27e9" x="301.6125" y="191.979267" style="stroke: #000000"/>
     <use xlink:href="#m5dbafc27e9" x="357.4125" y="191.979267" style="stroke: #000000"/>
    </g>
   </g>
   <g id="LineCollection_3">
    <path d="M 85.3875 250.036779 
L 85.3875 246.731525 
" clip-path="url(#pb50b1ef25f)" style="fill: none; stroke: #000000; stroke-width: 0.5"/>
    <path d="M 141.1875 56.889337 
L 141.1875 54.327273 
" clip-path="url(#pb50b1ef25f)" style="fill: none; stroke: #000000; stroke-width: 0.5"/>
    <path d="M 196.9875 114.283596 
L 196.9875 112.019565 
" clip-path="url(#pb50b1ef25f)" style="fill: none; stroke: #000000; stroke-width: 0.5"/>
    <path d="M 252.7875 191.979872 
L 252.7875 191.975714 
" clip-path="url(#pb50b1ef25f)" style="fill: none; stroke: #000000; stroke-width: 0.5"/>
    <path d="M 308.5875 191.979267 
L 308.5875 191.979267 
" clip-path="url(#pb50b1ef25f)" style="fill: none; stroke: #000000; stroke-width: 0.5"/>
    <path d="M 364.3875 191.845671 
L 364.3875 191.368147 
" clip-path="url(#pb50b1ef25f)" style="fill: none; stroke: #000000; stroke-width: 0.5"/>
   </g>
   <g id="line2d_51">
    <g clip-path="url(#pb50b1ef25f)">
     <use xlink:href="#m5dbafc27e9" x="85.3875" y="250.036779" style="stroke: #000000"/>
     <use xlink:href="#m5dbafc27e9" x="141.1875" y="56.889337" style="stroke: #000000"/>
     <use xlink:href="#m5dbafc27e9" x="196.9875" y="114.283596" style="stroke: #000000"/>
     <use xlink:href="#m5dbafc27e9" x="252.7875" y="191.979872" style="stroke: #000000"/>
     <use xlink:href="#m5dbafc27e9" x="308.5875" y="191.979267" style="stroke: #000000"/>
     <use xlink:href="#m5dbafc27e9" x="364.3875" y="191.845671" style="stroke: #000000"/>
    </g>
   </g>
   <g id="line2d_52">
    <g clip-path="url(#pb50b1ef25f)">
     <use xlink:href="#m5dbafc27e9" x="85.3875" y="246.731525" style="stroke: #000000"/>
     <use xlink:href="#m5dbafc27e9" x="141.1875" y="54.327273" style="stroke: #000000"/>
     <use xlink:href="#m5dbafc27e9" x="196.9875" y="112.019565" style="stroke: #000000"/>
     <use xlink:href="#m5dbafc27e9" x="252.7875" y="191.975714" style="stroke: #000000"/>
     <use xlink:href="#m5dbafc27e9" x="308.5875" y="191.979267" style="stroke: #000000"/>
     <use xlink:href="#m5dbafc27e9" x="364.3875" y="191.368147" style="stroke: #000000"/>
    </g>
   </g>
   <g id="LineCollection_4">
    <path d="M 92.3625 249.229109 
L 92.3625 245.976618 
" clip-path="url(#pb50b1ef25f)" style="fill: none; stroke: #000000; stroke-width: 0.5"/>
    <path d="M 148.1625 191.930669 
L 148.1625 191.762989 
" clip-path="url(#pb50b1ef25f)" style="fill: none; stroke: #000000; stroke-width: 0.5"/>
    <path d="M 203.9625 139.963685 
L 203.9625 137.853956 
" clip-path="url(#pb50b1ef25f)" style="fill: none; stroke: #000000; stroke-width: 0.5"/>
    <path d="M 259.7625 191.979267 
L 259.7625 191.979267 
" clip-path="url(#pb50b1ef25f)" style="fill: none; stroke: #000000; stroke-width: 0.5"/>
    <path d="M 315.5625 191.979267 
L 315.5625 191.979267 
" clip-path="url(#pb50b1ef25f)" style="fill: none; stroke: #000000; stroke-width: 0.5"/>
    <path d="M 371.3625 178.608802 
L 371.3625 175.3482 
" clip-path="url(#pb50b1ef25f)" style="fill: none; stroke: #000000; stroke-width: 0.5"/>
   </g>
   <g id="line2d_53">
    <g clip-path="url(#pb50b1ef25f)">
     <use xlink:href="#m5dbafc27e9" x="92.3625" y="249.229109" style="stroke: #000000"/>
     <use xlink:href="#m5dbafc27e9" x="148.1625" y="191.930669" style="stroke: #000000"/>
     <use xlink:href="#m5dbafc27e9" x="203.9625" y="139.963685" style="stroke: #000000"/>
     <use xlink:href="#m5dbafc27e9" x="259.7625" y="191.979267" style="stroke: #000000"/>
     <use xlink:href="#m5dbafc27e9" x="315.5625" y="191.979267" style="stroke: #000000"/>
     <use xlink:href="#m5dbafc27e9" x="371.3625" y="178.608802" style="stroke: #000000"/>
    </g>
   </g>
   <g id="line2d_54">
    <g clip-path="url(#pb50b1ef25f)">
     <use xlink:href="#m5dbafc27e9" x="92.3625" y="245.976618" style="stroke: #000000"/>
     <use xlink:href="#m5dbafc27e9" x="148.1625" y="191.762989" style="stroke: #000000"/>
     <use xlink:href="#m5dbafc27e9" x="203.9625" y="137.853956" style="stroke: #000000"/>
     <use xlink:href="#m5dbafc27e9" x="259.7625" y="191.979267" style="stroke: #000000"/>
     <use xlink:href="#m5dbafc27e9" x="315.5625" y="191.979267" style="stroke: #000000"/>
     <use xlink:href="#m5dbafc27e9" x="371.3625" y="175.3482" style="stroke: #000000"/>
    </g>
   </g>
   <g id="line2d_55">
    <path d="M 54 191.979267 
L 388.8 191.979267 
" clip-path="url(#pb50b1ef25f)" style="fill: none; stroke: #000000; stroke-width: 0.5; stroke-linecap: square"/>
   </g>
   <g id="patch_27">
    <path d="M 54 288 
L 54 43.2 
" style="fill: none; stroke: #000000; stroke-width: 0.8; stroke-linejoin: miter; stroke-linecap: square"/>
   </g>
   <g id="patch_28">
    <path d="M 388.8 288 
L 388.8 43.2 
" style="fill: none; stroke: #000000; stroke-width: 0.8; stroke-linejoin: miter; stroke-linecap: square"/>
   </g>
   <g id="patch_29">
    <path d="M 54 288 
L 388.8 288 
" style="fill: none; stroke: #000000; stroke-width: 0.8; stroke-linejoin: miter; stroke-linecap: square"/>
   </g>
   <g id="patch_30">
    <path d="M 54 43.2 
L 388.8 43.2 
" style="fill: none; stroke: #000000; stroke-width: 0.8; stroke-linejoin: miter; stroke-linecap: square"/>
   </g>
  </g>
  <g id="text_18">
   <!-- NVMe randread, $\frac{R-C}{C}$ (Bare Metal, 1 core) -->
   <g transform="translate(91.98 18.84) scale(0.12 -0.12)">
    <defs>
     <path id="DejaVuSans-4e" d="M 628 4666 
L 1478 4666 
L 3547 763 
L 3547 4666 
L 4159 4666 
L 4159 0 
L 3309 0 
L 1241 3903 
L 1241 0 
L 628 0 
L 628 4666 
z
" transform="scale(0.015625)"/>
     <path id="DejaVuSans-56" d="M 1831 0 
L 50 4666 
L 709 4666 
L 2188 738 
L 3669 4666 
L 4325 4666 
L 2547 0 
L 1831 0 
z
" transform="scale(0.015625)"/>
     <path id="DejaVuSans-2c" d="M 750 794 
L 1409 794 
L 1409 256 
L 897 -744 
L 494 -744 
L 750 256 
L 750 794 
z
" transform="scale(0.015625)"/>
     <path id="DejaVuSans-Oblique-52" d="M 1613 4147 
L 1294 2491 
L 2106 2491 
Q 2584 2491 2879 2755 
Q 3175 3019 3175 3444 
Q 3175 3784 2976 3965 
Q 2778 4147 2406 4147 
L 1613 4147 
z
M 2772 2241 
Q 2972 2194 3105 2009 
Q 3238 1825 3413 1275 
L 3809 0 
L 3144 0 
L 2778 1197 
Q 2638 1659 2453 1815 
Q 2269 1972 1888 1972 
L 1191 1972 
L 806 0 
L 172 0 
L 1081 4666 
L 2503 4666 
Q 3150 4666 3495 4373 
Q 3841 4081 3841 3531 
Q 3841 3044 3547 2687 
Q 3253 2331 2772 2241 
z
" transform="scale(0.015625)"/>
     <path id="DejaVuSans-Oblique-43" d="M 4447 4306 
L 4319 3641 
Q 4019 3944 3683 4091 
Q 3347 4238 2956 4238 
Q 2422 4238 2017 3981 
Q 1613 3725 1319 3200 
Q 1131 2863 1032 2486 
Q 934 2109 934 1728 
Q 934 1091 1264 756 
Q 1594 422 2222 422 
Q 2656 422 3056 561 
Q 3456 700 3834 978 
L 3688 231 
Q 3316 72 2936 -9 
Q 2556 -91 2175 -91 
Q 1278 -91 773 396 
Q 269 884 269 1753 
Q 269 2309 461 2846 
Q 653 3384 1013 3828 
Q 1394 4300 1883 4525 
Q 2372 4750 3022 4750 
Q 3422 4750 3780 4639 
Q 4138 4528 4447 4306 
z
" transform="scale(0.015625)"/>
     <path id="DejaVuSans-28" d="M 1984 4856 
Q 1566 4138 1362 3434 
Q 1159 2731 1159 2009 
Q 1159 1288 1364 580 
Q 1569 -128 1984 -844 
L 1484 -844 
Q 1016 -109 783 600 
Q 550 1309 550 2009 
Q 550 2706 781 3412 
Q 1013 4119 1484 4856 
L 1984 4856 
z
" transform="scale(0.015625)"/>
     <path id="DejaVuSans-29" d="M 513 4856 
L 1013 4856 
Q 1481 4119 1714 3412 
Q 1947 2706 1947 2009 
Q 1947 1309 1714 600 
Q 1481 -109 1013 -844 
L 513 -844 
Q 928 -128 1133 580 
Q 1338 1288 1338 2009 
Q 1338 2731 1133 3434 
Q 928 4138 513 4856 
z
" transform="scale(0.015625)"/>
    </defs>
    <use xlink:href="#DejaVuSans-4e" transform="translate(0 0.254687)"/>
    <use xlink:href="#DejaVuSans-56" transform="translate(74.804688 0.254687)"/>
    <use xlink:href="#DejaVuSans-4d" transform="translate(143.212891 0.254687)"/>
    <use xlink:href="#DejaVuSans-65" transform="translate(229.492188 0.254687)"/>
    <use xlink:href="#DejaVuSans-20" transform="translate(291.015625 0.254687)"/>
    <use xlink:href="#DejaVuSans-72" transform="translate(322.802734 0.254687)"/>
    <use xlink:href="#DejaVuSans-61" transform="translate(363.916016 0.254687)"/>
    <use xlink:href="#DejaVuSans-6e" transform="translate(425.195312 0.254687)"/>
    <use xlink:href="#DejaVuSans-64" transform="translate(488.574219 0.254687)"/>
    <use xlink:href="#DejaVuSans-72" transform="translate(552.050781 0.254687)"/>
    <use xlink:href="#DejaVuSans-65" transform="translate(593.164062 0.254687)"/>
    <use xlink:href="#DejaVuSans-61" transform="translate(654.6875 0.254687)"/>
    <use xlink:href="#DejaVuSans-64" transform="translate(715.966797 0.254687)"/>
    <use xlink:href="#DejaVuSans-2c" transform="translate(779.443359 0.254687)"/>
    <use xlink:href="#DejaVuSans-20" transform="translate(811.230469 0.254687)"/>
    <use xlink:href="#DejaVuSans-Oblique-52" transform="translate(843.017578 45.046875) scale(0.7)"/>
    <use xlink:href="#DejaVuSans-2212" transform="translate(905.292969 45.046875) scale(0.7)"/>
    <use xlink:href="#DejaVuSans-Oblique-43" transform="translate(977.583008 45.046875) scale(0.7)"/>
    <use xlink:href="#DejaVuSans-Oblique-43" transform="translate(910.017578 -39.151563) scale(0.7)"/>
    <use xlink:href="#DejaVuSans-20" transform="translate(1038.959961 0.254687)"/>
    <use xlink:href="#DejaVuSans-28" transform="translate(1070.74707 0.254687)"/>
    <use xlink:href="#DejaVuSans-42" transform="translate(1109.760742 0.254687)"/>
    <use xlink:href="#DejaVuSans-61" transform="translate(1178.364258 0.254687)"/>
    <use xlink:href="#DejaVuSans-72" transform="translate(1239.643555 0.254687)"/>
    <use xlink:href="#DejaVuSans-65" transform="translate(1280.756836 0.254687)"/>
    <use xlink:href="#DejaVuSans-20" transform="translate(1342.280273 0.254687)"/>
    <use xlink:href="#DejaVuSans-4d" transform="translate(1374.067383 0.254687)"/>
    <use xlink:href="#DejaVuSans-65" transform="translate(1460.34668 0.254687)"/>
    <use xlink:href="#DejaVuSans-74" transform="translate(1521.870117 0.254687)"/>
    <use xlink:href="#DejaVuSans-61" transform="translate(1561.079102 0.254687)"/>
    <use xlink:href="#DejaVuSans-6c" transform="translate(1622.358398 0.254687)"/>
    <use xlink:href="#DejaVuSans-2c" transform="translate(1650.141602 0.254687)"/>
    <use xlink:href="#DejaVuSans-20" transform="translate(1681.928711 0.254687)"/>
    <use xlink:href="#DejaVuSans-31" transform="translate(1713.71582 0.254687)"/>
    <use xlink:href="#DejaVuSans-20" transform="translate(1777.338867 0.254687)"/>
    <use xlink:href="#DejaVuSans-63" transform="translate(1809.125977 0.254687)"/>
    <use xlink:href="#DejaVuSans-6f" transform="translate(1864.106445 0.254687)"/>
    <use xlink:href="#DejaVuSans-72" transform="translate(1925.288086 0.254687)"/>
    <use xlink:href="#DejaVuSans-65" transform="translate(1966.401367 0.254687)"/>
    <use xlink:href="#DejaVuSans-29" transform="translate(2027.924805 0.254687)"/>
    <path d="M 843.017578 19.051563 
L 843.017578 25.301563 
L 1026.459961 25.301563 
L 1026.459961 19.051563 
L 843.017578 19.051563 
z
"/>
   </g>
  </g>
  <g id="legend_1">
   <g id="patch_31">
    <path d="M 355.860937 81.390625 
L 425 81.390625 
Q 427 81.390625 427 79.390625 
L 427 7 
Q 427 5 425 5 
L 355.860937 5 
Q 353.860937 5 353.860937 7 
L 353.860937 79.390625 
Q 353.860937 81.390625 355.860937 81.390625 
z
" style="fill: #ffffff; opacity: 0.8; stroke: #cccccc; stroke-linejoin: miter"/>
   </g>
   <g id="text_19">
    <!-- Queue depth -->
    <g transform="translate(357.860937 16.598437) scale(0.1 -0.1)">
     <defs>
      <path id="DejaVuSans-51" d="M 2522 4238 
Q 1834 4238 1429 3725 
Q 1025 3213 1025 2328 
Q 1025 1447 1429 934 
Q 1834 422 2522 422 
Q 3209 422 3611 934 
Q 4013 1447 4013 2328 
Q 4013 3213 3611 3725 
Q 3209 4238 2522 4238 
z
M 3406 84 
L 4238 -825 
L 3475 -825 
L 2784 -78 
Q 2681 -84 2626 -87 
Q 2572 -91 2522 -91 
Q 1538 -91 948 567 
Q 359 1225 359 2328 
Q 359 3434 948 4092 
Q 1538 4750 2522 4750 
Q 3503 4750 4090 4092 
Q 4678 3434 4678 2328 
Q 4678 1516 4351 937 
Q 4025 359 3406 84 
z
" transform="scale(0.015625)"/>
      <path id="DejaVuSans-75" d="M 544 1381 
L 544 3500 
L 1119 3500 
L 1119 1403 
Q 1119 906 1312 657 
Q 1506 409 1894 409 
Q 2359 409 2629 706 
Q 2900 1003 2900 1516 
L 2900 3500 
L 3475 3500 
L 3475 0 
L 2900 0 
L 2900 538 
Q 2691 219 2414 64 
Q 2138 -91 1772 -91 
Q 1169 -91 856 284 
Q 544 659 544 1381 
z
M 1991 3584 
L 1991 3584 
z
" transform="scale(0.015625)"/>
      <path id="DejaVuSans-70" d="M 1159 525 
L 1159 -1331 
L 581 -1331 
L 581 3500 
L 1159 3500 
L 1159 2969 
Q 1341 3281 1617 3432 
Q 1894 3584 2278 3584 
Q 2916 3584 3314 3078 
Q 3713 2572 3713 1747 
Q 3713 922 3314 415 
Q 2916 -91 2278 -91 
Q 1894 -91 1617 61 
Q 1341 213 1159 525 
z
M 3116 1747 
Q 3116 2381 2855 2742 
Q 2594 3103 2138 3103 
Q 1681 3103 1420 2742 
Q 1159 2381 1159 1747 
Q 1159 1113 1420 752 
Q 1681 391 2138 391 
Q 2594 391 2855 752 
Q 3116 1113 3116 1747 
z
" transform="scale(0.015625)"/>
      <path id="DejaVuSans-68" d="M 3513 2113 
L 3513 0 
L 2938 0 
L 2938 2094 
Q 2938 2591 2744 2837 
Q 2550 3084 2163 3084 
Q 1697 3084 1428 2787 
Q 1159 2491 1159 1978 
L 1159 0 
L 581 0 
L 581 4863 
L 1159 4863 
L 1159 2956 
Q 1366 3272 1645 3428 
Q 1925 3584 2291 3584 
Q 2894 3584 3203 3211 
Q 3513 2838 3513 2113 
z
" transform="scale(0.015625)"/>
     </defs>
     <use xlink:href="#DejaVuSans-51"/>
     <use xlink:href="#DejaVuSans-75" x="78.710938"/>
     <use xlink:href="#DejaVuSans-65" x="142.089844"/>
     <use xlink:href="#DejaVuSans-75" x="203.613281"/>
     <use xlink:href="#DejaVuSans-65" x="266.992188"/>
     <use xlink:href="#DejaVuSans-20" x="328.515625"/>
     <use xlink:href="#DejaVuSans-64" x="360.302734"/>
     <use xlink:href="#DejaVuSans-65" x="423.779297"/>
     <use xlink:href="#DejaVuSans-70" x="485.302734"/>
     <use xlink:href="#DejaVuSans-74" x="548.779297"/>
     <use xlink:href="#DejaVuSans-68" x="587.988281"/>
    </g>
   </g>
   <g id="patch_32">
    <path d="M 366.886719 31.276563 
L 386.886719 31.276563 
L 386.886719 24.276563 
L 366.886719 24.276563 
z
" style="fill: #72ab97; stroke: #000000; stroke-width: 0.5; stroke-linejoin: miter"/>
   </g>
   <g id="text_20">
    <!-- 1 -->
    <g transform="translate(394.886719 31.276563) scale(0.1 -0.1)">
     <use xlink:href="#DejaVuSans-31"/>
    </g>
   </g>
   <g id="patch_33">
    <path d="M 366.886719 45.954688 
L 386.886719 45.954688 
L 386.886719 38.954688 
L 366.886719 38.954688 
z
" style="fill: #728ca6; stroke: #000000; stroke-width: 0.5; stroke-linejoin: miter"/>
   </g>
   <g id="text_21">
    <!-- 8 -->
    <g transform="translate(394.886719 45.954688) scale(0.1 -0.1)">
     <defs>
      <path id="DejaVuSans-38" d="M 2034 2216 
Q 1584 2216 1326 1975 
Q 1069 1734 1069 1313 
Q 1069 891 1326 650 
Q 1584 409 2034 409 
Q 2484 409 2743 651 
Q 3003 894 3003 1313 
Q 3003 1734 2745 1975 
Q 2488 2216 2034 2216 
z
M 1403 2484 
Q 997 2584 770 2862 
Q 544 3141 544 3541 
Q 544 4100 942 4425 
Q 1341 4750 2034 4750 
Q 2731 4750 3128 4425 
Q 3525 4100 3525 3541 
Q 3525 3141 3298 2862 
Q 3072 2584 2669 2484 
Q 3125 2378 3379 2068 
Q 3634 1759 3634 1313 
Q 3634 634 3220 271 
Q 2806 -91 2034 -91 
Q 1263 -91 848 271 
Q 434 634 434 1313 
Q 434 1759 690 2068 
Q 947 2378 1403 2484 
z
M 1172 3481 
Q 1172 3119 1398 2916 
Q 1625 2713 2034 2713 
Q 2441 2713 2670 2916 
Q 2900 3119 2900 3481 
Q 2900 3844 2670 4047 
Q 2441 4250 2034 4250 
Q 1625 4250 1398 4047 
Q 1172 3844 1172 3481 
z
" transform="scale(0.015625)"/>
     </defs>
     <use xlink:href="#DejaVuSans-38"/>
    </g>
   </g>
   <g id="patch_34">
    <path d="M 366.886719 60.632812 
L 386.886719 60.632812 
L 386.886719 53.632812 
L 366.886719 53.632812 
z
" style="fill: #ffdcaa; stroke: #000000; stroke-width: 0.5; stroke-linejoin: miter"/>
   </g>
   <g id="text_22">
    <!-- 32 -->
    <g transform="translate(394.886719 60.632812) scale(0.1 -0.1)">
     <use xlink:href="#DejaVuSans-33"/>
     <use xlink:href="#DejaVuSans-32" x="63.623047"/>
    </g>
   </g>
   <g id="patch_35">
    <path d="M 366.886719 75.310938 
L 386.886719 75.310938 
L 386.886719 68.310938 
L 366.886719 68.310938 
z
" style="fill: #ffc6aa; stroke: #000000; stroke-width: 0.5; stroke-linejoin: miter"/>
   </g>
   <g id="text_23">
    <!-- 128 -->
    <g transform="translate(394.886719 75.310938) scale(0.1 -0.1)">
     <use xlink:href="#DejaVuSans-31"/>
     <use xlink:href="#DejaVuSans-32" x="63.623047"/>
     <use xlink:href="#DejaVuSans-38" x="127.246094"/>
    </g>
   </g>
  </g>
 </g>
 <defs>
  <clipPath id="pb50b1ef25f">
   <rect x="54" y="43.2" width="334.8" height="244.8"/>
  </clipPath>
 </defs>
</svg>
