<svg width="228" height="53" viewBox="0 0 228 53" fill="none" xmlns="http://www.w3.org/2000/svg">
<g clip-path="url(#clip0_215_13230)">
<path d="M46.59 8.74102C45.9227 10.3974 44.5648 11.6855 42.8581 12.2443C42.854 12.2456 42.8502 12.2476 42.8461 12.2489C42.7269 12.4321 42.5711 12.5888 42.3886 12.709C42.0937 13.2519 41.133 13.5974 40.5789 13.7828C39.9407 13.9987 39.2769 14.1825 38.6134 14.3314C38.6209 14.3341 38.6287 14.3362 38.6362 14.3389C38.6671 14.3498 38.6984 14.3589 38.7294 14.3694C39.1341 14.5056 39.5513 14.6014 39.9756 14.6509C39.9887 14.6524 40.0016 14.652 40.0147 14.6534C40.0149 14.6557 40.0152 14.6578 40.0155 14.66C40.1727 14.6776 40.3285 14.6846 40.484 14.6899C40.5059 14.6901 40.5272 14.6875 40.549 14.6875C40.7489 14.6915 40.9468 14.6852 41.1427 14.6698C43.9708 14.4485 46.339 12.2547 46.675 9.33088C46.7086 9.03758 46.7212 8.74225 46.7125 8.44714C46.6834 8.53172 46.644 8.61079 46.6114 8.69358C46.6045 8.71115 46.597 8.72841 46.59 8.74589C46.59 8.74426 46.5899 8.74265 46.59 8.74102Z" fill="#6897B8"/>
<path d="M36.6367 21.774C36.6465 21.7769 36.6563 21.7799 36.6661 21.7828C36.6686 21.6602 36.6678 21.5376 36.6694 21.4151C36.6597 21.4121 36.6497 21.4092 36.6401 21.4062C36.6386 21.5288 36.6391 21.6514 36.6367 21.774Z" fill="#B8DEEB"/>
<path d="M36.6262 19.2123C36.6359 19.2138 36.6456 19.2156 36.6553 19.2171C36.653 19.1327 36.6483 19.0484 36.6456 18.964L36.618 19.0016C36.6202 19.0718 36.6242 19.142 36.6262 19.2123Z" fill="#B8DEEB"/>
<path d="M41.3417 18.1228C41.3442 18.1183 41.3465 18.1137 41.349 18.1092C41.0026 17.8308 40.6268 17.5932 40.2316 17.3925C40.2395 17.5304 40.2478 17.6682 40.2547 17.8062C40.5798 17.985 40.8905 18.1896 41.1791 18.4247C41.2327 18.324 41.2865 18.2233 41.3417 18.1228Z" fill="#B8DEEB"/>
<path d="M42.408 16.2572C42.4094 16.2549 42.4108 16.2525 42.4122 16.2502C42.0141 15.9718 41.5804 15.7483 41.1227 15.5856C40.7814 15.4594 40.4297 15.3665 40.0741 15.2908C40.0855 15.4122 40.0953 15.5338 40.1059 15.6552C40.4096 15.7256 40.7092 15.8135 41.0015 15.9233C41.4381 16.0769 41.8517 16.2895 42.2307 16.5552C42.2903 16.4565 42.3485 16.356 42.408 16.2572Z" fill="#B8DEEB"/>
<path d="M3.77438 22.3685C3.77451 22.372 3.77472 22.3753 3.77485 22.3787C3.90391 22.4678 4.04017 22.553 4.17239 22.6406C4.0358 22.5505 3.90121 22.4601 3.77438 22.3685Z" fill="#FFF5D1"/>
<path d="M4.79286 23.039C4.64463 22.9457 4.49583 22.8514 4.34851 22.7565C4.49532 22.8521 4.63664 22.9504 4.78607 23.0447C4.78669 23.0551 4.78802 23.0654 4.78866 23.0758C4.79091 23.0772 4.79314 23.0787 4.79538 23.0801C4.79439 23.0667 4.79384 23.0525 4.79286 23.039Z" fill="#FFF5D1"/>
<path d="M36.5551 23.8029L36.5573 23.8026C36.5956 23.1267 36.6239 22.4504 36.6367 21.7739C36.6391 21.6514 36.6386 21.5288 36.6401 21.4062C36.6434 21.1311 36.6481 20.8559 36.6472 20.5808C36.6498 21.6551 36.6167 22.7295 36.5551 23.8029Z" fill="#FFF5D1"/>
<path d="M34.9501 8.50574C34.9492 8.50587 34.9483 8.50602 34.9474 8.50614C34.7799 8.78678 34.6249 9.01443 34.472 9.20658C34.4723 9.20654 34.4727 9.20652 34.473 9.2065C34.6265 9.01415 34.782 8.78676 34.9501 8.50574Z" fill="#18355E"/>
<path d="M35.9242 29.5135C35.9109 29.5964 35.8976 29.6828 35.881 29.7659C35.8773 29.7661 35.8735 29.7663 35.8698 29.7665C35.4382 32.3728 34.7715 34.9349 33.8776 37.4209C33.758 37.7398 33.6317 38.0456 33.5021 38.3446C30.7611 41.3846 26.8937 42.9263 22.9068 43.0757H21.8901C21.3151 43.0626 20.7424 43.0186 20.1728 42.9509L20.1579 42.9704C20.7466 43.0423 21.3388 43.0888 21.9333 43.1023C22.2766 43.1156 22.6155 43.1156 22.95 43.1023C26.9297 42.9537 30.7637 41.4257 33.502 38.4165L33.542 38.3346C33.6715 38.0356 33.7978 37.7433 33.9174 37.4109C34.8122 34.9225 35.4794 32.3582 35.9109 29.7493C35.9275 29.6662 35.9541 29.5799 35.9541 29.4968C36.2669 27.6064 36.4744 25.7041 36.5843 23.7982L36.5573 23.8026L36.5551 23.8029C36.4453 25.7129 36.2377 27.6192 35.9242 29.5135Z" fill="white"/>
<path d="M5.2346 37.8662C4.28129 35.2243 3.5772 32.4992 3.13147 29.7261C3.57658 32.5025 4.28072 35.2311 5.2346 37.8762C7.83942 44.9363 13.3182 47.1758 19.6043 50.219C19.7785 50.3016 19.9666 50.3415 20.1546 50.3421C19.9659 50.3386 19.7777 50.295 19.6042 50.2092C13.3181 47.169 7.83942 44.9265 5.2346 37.8662Z" fill="#18355E"/>
<path d="M36.0099 6.34748C35.9368 6.31286 35.8199 6.38983 35.7419 6.5307C35.7434 6.53041 35.7448 6.53011 35.7463 6.52983C35.7352 6.54863 35.7227 6.56503 35.7133 6.58622C35.6391 6.75347 35.648 6.91562 35.7368 6.95511C35.8239 6.99442 35.9566 6.89065 36.0326 6.72361C36.0901 6.59704 36.097 6.46955 36.0589 6.40091C36.047 6.37624 36.0308 6.35738 36.0099 6.34748Z" fill="#18355E"/>
<path d="M19.637 52.8853C19.9681 53.0382 20.3496 53.0382 20.6807 52.8853C30.3618 48.4211 35.6945 45.9621 38.6349 34.5329C39.5623 30.8145 40.1032 27.0151 40.2707 23.2017L40.2722 23.2014C40.2939 22.6988 40.3113 22.1962 40.3198 21.6932C40.5524 21.1069 40.8096 20.5304 41.0917 19.9656C41.7149 18.6859 42.4232 17.4453 43.1547 16.2257C43.5299 15.5981 43.913 14.9769 44.2972 14.3569C44.3674 14.3124 44.4347 14.2642 44.5032 14.2173C44.5035 14.2167 44.5039 14.2161 44.5042 14.2155C47.5714 12.0909 48.3355 7.88206 46.2108 4.81491C44.8736 2.88452 42.7109 1.86844 40.5268 1.9086C39.201 1.90932 37.862 2.2962 36.6897 3.10831C35.7972 3.72651 35.0826 4.54067 34.5842 5.47014C33.8526 5.5737 33.1271 5.62637 32.4129 5.62646H32.4113C25.3592 5.62646 21.1847 0.521138 21.1454 0.472181C20.6465 -0.157329 19.6909 -0.157331 19.1923 0.472563C19.1515 0.524044 15.0265 5.63108 7.93344 5.63108C6.48406 5.63108 4.98817 5.41571 3.48737 4.99096C2.81864 4.80162 2.12426 5.19611 1.9446 5.86747C0.720539 10.4417 0.0741441 15.1566 0.00649842 19.8807C-0.0641584 24.5918 0.441323 29.3127 1.5252 33.9133C3.82622 43.3992 7.28105 46.7655 14.4466 50.4365L14.4683 50.4082C16.0118 51.1982 17.7238 52.0024 19.637 52.8853ZM3.14807 6.18983C13.8564 9.21998 20.169 1.24592 20.169 1.24592C20.169 1.24592 25.308 7.72153 34.173 6.77492C34.0618 7.15666 33.9838 7.54933 33.9414 7.94967C33.9176 8.17358 33.9037 8.39945 33.9026 8.62716C30.41 8.92041 26.8972 8.17498 23.8138 6.46554C22.6668 5.82929 21.5861 5.08025 20.5877 4.22958C20.3431 4.02983 19.9917 4.02983 19.7471 4.22958C18.7499 5.08025 17.6702 5.82929 16.5243 6.46554C13.035 8.39979 8.99585 9.10218 5.05849 8.45897C4.97423 8.44779 4.89123 8.4528 4.81285 8.47189C4.69532 8.50042 4.58822 8.56077 4.50296 8.64483C4.41771 8.72889 4.35433 8.83688 4.32423 8.96066C2.82467 15.7546 2.63745 22.7723 3.7727 29.6364C4.20984 32.3725 4.90398 35.0612 5.8459 37.6668C8.37098 44.5245 13.7733 46.6939 19.8867 49.651C20.0669 49.7353 20.2765 49.7291 20.4515 49.6344C26.5615 46.6774 31.9738 44.5112 34.4922 37.6668C35.4311 35.0602 36.1251 32.3717 36.5654 29.6364C37.3744 24.7476 37.5079 19.781 36.9772 14.8727C37.1913 14.831 37.4052 14.7888 37.6187 14.7438C37.6451 14.7383 37.6717 14.7335 37.6981 14.7279C37.8846 14.8188 38.0765 14.8973 38.2703 14.9703C38.3107 14.9856 38.3505 15.0017 38.3912 15.0162C38.5302 15.0655 38.6724 15.1049 38.8145 15.145C39.4464 21.5177 38.9865 27.9742 37.4259 34.2313C34.6882 44.8733 30.1664 47.1391 20.1591 51.7541C9.76975 46.9598 5.42395 44.6606 2.73608 33.5802C0.610025 24.5561 0.751573 15.1459 3.14807 6.18983ZM40.6536 2.60024L40.7651 2.60206C40.8292 2.60211 40.8953 2.60054 40.9603 2.60802L41.0543 2.61882C41.1501 2.62983 41.2459 2.64084 41.3452 2.65225C41.4446 2.66369 41.5422 2.67489 41.6416 2.68632L41.7392 2.69752C41.8038 2.70861 41.8676 2.72694 41.9309 2.73419L42.0451 2.76013L42.2231 2.80441L42.3403 2.83618L42.503 2.88601L42.6212 2.92523L42.7761 2.97964L42.8918 3.02406L43.0421 3.0871L43.1556 3.13493L43.305 3.20521L43.4122 3.25964C43.4626 3.28373 43.5125 3.31144 43.5608 3.33715L43.6624 3.39276L43.8147 3.48533C43.8202 3.48858 43.8252 3.49182 43.8306 3.49496C43.851 3.50625 43.8702 3.51762 43.8868 3.52922C43.8924 3.53276 43.8983 3.53575 43.9037 3.53951L44.0925 3.66557L44.1368 3.69446C44.2131 3.74717 44.2872 3.8033 44.3595 3.85921L44.44 3.92338C44.4853 3.95972 44.5324 3.99625 44.5756 4.03417L44.6653 4.11406L44.7833 4.21916L44.8755 4.30851L44.9824 4.41416L45.0722 4.50871C45.1067 4.54379 45.139 4.58049 45.1715 4.61716L45.2589 4.71692L45.3523 4.82835L45.4354 4.93314L45.523 5.04755L45.6021 5.15552L45.6836 5.27476C45.7086 5.31241 45.7338 5.34826 45.7569 5.38572L45.834 5.51176L45.9017 5.62391C45.9276 5.66898 45.9452 5.70763 45.9773 5.76259C46.0094 5.81755 46.0378 5.87389 46.0677 5.93227C46.0976 5.99064 46.1257 6.04878 46.1536 6.10877L46.209 6.23231L46.2651 6.3651L46.3161 6.49547C46.333 6.53952 46.3501 6.58176 46.3652 6.62563L46.4099 6.76259C46.4252 6.80464 46.4371 6.84445 46.4518 6.8919C46.4664 6.93937 46.4809 6.98863 46.4924 7.03207C46.5039 7.07551 46.5138 7.11692 46.5267 7.16418C46.5395 7.21144 46.5506 7.25849 46.5617 7.30554L46.5901 7.44064C46.5994 7.48747 46.608 7.53972 46.6175 7.58475C46.627 7.62978 46.633 7.67261 46.6403 7.72104C46.6475 7.76949 46.6564 7.81993 46.662 7.86636C46.6677 7.91278 46.6717 7.95719 46.6772 8.00543C46.6826 8.05367 46.6876 8.10551 46.6915 8.15173C46.6954 8.19793 46.6974 8.24394 46.7008 8.29379C46.7042 8.34362 46.7151 8.39246 46.7097 8.43945C46.7083 8.44412 46.7077 8.44902 46.708 8.45392C46.6803 8.53452 46.6424 8.60983 46.6115 8.6888C46.6114 8.69039 46.6114 8.69194 46.6114 8.69353C46.644 8.61074 46.6834 8.53166 46.7125 8.44709C46.7212 8.74219 46.7087 9.03752 46.675 9.33082C46.339 12.2546 43.9709 14.4484 41.1427 14.6698C40.9539 14.6877 40.7628 14.6954 40.5701 14.6953C40.5416 14.6948 40.5126 14.6909 40.4841 14.6899C40.3286 14.6845 40.1727 14.6775 40.0155 14.66C40.0153 14.6578 40.015 14.6556 40.0147 14.6534C40.0016 14.652 39.9887 14.6524 39.9756 14.6509C39.5513 14.6013 39.1341 14.5055 38.7295 14.3693C38.7295 14.3697 38.7296 14.37 38.7296 14.3704C38.698 14.3596 38.6659 14.3506 38.6345 14.3393C38.6351 14.3391 38.6357 14.339 38.6363 14.3388C38.6287 14.3362 38.621 14.3341 38.6134 14.3314C39.2769 14.1824 39.9407 13.9987 40.5789 13.7827C41.133 13.5974 42.0937 13.2519 42.3886 12.709C42.5711 12.5887 42.7269 12.4321 42.8461 12.2489C42.8779 12.1996 42.9065 12.1486 42.9325 12.0964C42.9367 12.0878 42.9404 12.0791 42.9444 12.0704C42.9814 11.9925 43.0107 11.9114 43.0346 11.8286C43.0575 11.7444 43.0801 11.66 43.0887 11.5718C43.1019 11.4641 43.1019 11.3557 43.0928 11.2482C43.0872 11.1859 43.0716 11.1264 43.0588 11.0661C43.05 11.0231 43.0445 10.9796 43.032 10.9373C43.0069 10.8541 42.9738 10.7741 42.9357 10.6969C42.9304 10.686 42.9265 10.6741 42.921 10.6634C42.6885 10.2188 42.248 9.89284 41.7121 9.8301C41.6781 9.82611 41.644 9.83084 41.6098 9.8291C41.5303 9.82503 41.4508 9.82 41.3719 9.82795C41.3565 9.82831 41.3411 9.8267 41.3257 9.82751C41.2319 9.83996 41.1379 9.85828 41.0447 9.88862C42.2513 9.20334 43.1908 7.76786 42.4668 6.73983C42.4425 6.70579 42.4125 6.67175 42.3854 6.6377C42.3549 6.59895 42.3269 6.56017 42.2929 6.5215C41.3038 5.40231 38.9076 4.32592 36.997 4.16301C36.9875 4.16193 36.9717 4.16179 36.958 4.16134C36.9353 4.16068 36.9079 4.16058 36.875 4.16115C36.8652 4.16134 36.8569 4.16132 36.8465 4.16162C36.8458 4.16164 36.8453 4.16164 36.8446 4.16166C36.8445 4.16164 36.8443 4.16164 36.8441 4.16164C36.7705 4.16346 36.6826 4.16717 36.5932 4.17154L36.6379 4.13272L36.7377 4.04533L36.8214 3.95423L36.9223 3.87245L37.0386 3.7851L37.1405 3.71075L37.2696 3.62306L37.3648 3.55894C37.4242 3.51999 37.4852 3.48306 37.546 3.44794L37.6443 3.38965C37.7141 3.35556 37.7765 3.32245 37.8389 3.28933L37.9343 3.23987L38.0837 3.16732L38.1917 3.1193C38.2382 3.09718 38.2863 3.07707 38.3362 3.05717L38.4476 3.01139L38.5969 2.95531L38.7057 2.91653L38.8672 2.86552L38.9696 2.83516C39.0287 2.8145 39.0947 2.79827 39.1588 2.78184L39.2342 2.76304C39.3154 2.74126 39.4129 2.72134 39.5028 2.7042L39.5774 2.69262C39.6447 2.68021 39.712 2.66782 39.7808 2.65923L39.8849 2.64557L40.0702 2.62656L40.1829 2.61755L40.3563 2.60635L40.4702 2.60298L40.6536 2.60024ZM35.2899 6.57419C35.4573 6.1851 35.7651 5.944 35.9671 6.03496C36.0875 6.0892 36.1434 6.25058 36.1331 6.45349C36.1357 6.4529 36.1382 6.45256 36.1409 6.45197C36.134 6.58987 36.0974 6.74654 36.0265 6.90419C35.913 7.15655 35.7442 7.34402 35.5819 7.42051C35.526 7.44768 35.4711 7.4623 35.4198 7.4591C35.3903 7.45776 35.3619 7.45165 35.335 7.43994C35.1332 7.35191 35.112 6.9926 35.2696 6.62395C35.2702 6.62385 35.2708 6.62368 35.2715 6.62357C35.2779 6.60707 35.2828 6.59074 35.2899 6.57419ZM40.667 9.14189C40.642 9.14094 40.6176 9.14376 40.5923 9.14085C40.591 9.14072 40.5899 9.14021 40.5886 9.14007C40.5874 9.13994 40.5862 9.14015 40.5851 9.14002C40.561 9.13725 40.539 9.12931 40.5155 9.12486C40.4743 9.11712 40.4326 9.11088 40.3936 9.09824C40.3808 9.0941 40.3696 9.08718 40.3571 9.08254C40.3087 9.06464 40.261 9.04557 40.2168 9.02069C40.2117 9.01782 40.2076 9.01377 40.2025 9.01082C40.1528 8.98161 40.1052 8.94928 40.0618 8.91214C40.0599 8.91049 40.0584 8.90839 40.0565 8.90671C40.0111 8.86722 39.9691 8.82415 39.9317 8.77715C39.9305 8.77556 39.9296 8.77369 39.9284 8.7721C39.8912 8.72467 39.858 8.67414 39.83 8.62046C39.8271 8.61496 39.8257 8.60881 39.8229 8.60325C39.7979 8.5529 39.7758 8.50097 39.7597 8.44643C39.7558 8.43322 39.755 8.41899 39.7516 8.40556C39.7397 8.35766 39.7286 8.30955 39.7241 8.25945C39.7217 8.23423 39.7247 8.20805 39.7244 8.18241C39.724 8.14467 39.7209 8.10742 39.7249 8.06896C39.7253 8.06533 39.7257 8.06169 39.7261 8.05806C39.7877 7.52212 40.2721 7.13756 40.8081 7.19916C41.344 7.26074 41.7286 7.74514 41.667 8.28111C41.6092 8.78443 41.1776 9.14919 40.6814 9.14136C40.6802 9.14147 40.6791 9.14193 40.6778 9.14204C40.6742 9.14196 40.6706 9.14202 40.667 9.14189ZM30.0548 14.4153C29.8445 14.406 29.6574 14.3918 29.4919 14.373C27.8545 14.1884 28.3335 13.5592 29.41 12.7894C29.9604 12.3954 30.6672 11.9645 31.3286 11.5369C32.6133 10.6982 33.6703 9.95153 34.2213 9.38303C34.3476 9.25194 34.4471 9.13037 34.5164 9.01939C34.676 8.75842 34.8623 8.51473 35.0723 8.29228C35.0713 8.29404 35.0704 8.29551 35.0694 8.29727C35.0718 8.29466 35.0739 8.29171 35.0763 8.2891L35.0776 8.27824C35.0787 8.27627 35.0807 8.27499 35.0818 8.27302L35.082 8.27143C35.1084 8.22864 35.1407 8.19201 35.1752 8.15835C35.2322 8.10033 35.2965 8.05023 35.3728 8.01922C35.376 8.01686 35.3791 8.01529 35.3822 8.01296C35.378 8.01466 35.3736 8.01519 35.3694 8.01699C35.8411 7.66837 36.2856 7.64531 36.6392 7.9349C36.6468 7.94095 36.6549 7.94502 36.6623 7.95134C37.2505 8.45508 37.5675 8.98742 37.9484 9.43069C37.9486 9.43164 37.9488 9.43256 37.949 9.43349C38.418 9.97866 38.9855 10.3882 40.2787 10.4359C40.0036 10.7949 39.8961 11.2547 39.9835 11.6984C39.8395 11.788 39.7121 11.8613 39.6426 11.9082C39.4219 12.0614 39.0139 12.2622 38.4827 12.4832L38.4831 12.4858C38.1601 12.62 37.7914 12.7615 37.3893 12.9048C37.1871 12.9768 36.977 13.0491 36.7599 13.1212C36.7598 13.1205 36.7597 13.1199 36.7596 13.1193C36.5567 13.1867 36.3484 13.2536 36.1353 13.3198C36.1354 13.3204 36.1354 13.321 36.1355 13.3215C34.1101 13.9497 31.6877 14.4928 30.0548 14.4153ZM41.6624 10.2013C42.3201 10.2769 42.792 10.8713 42.7165 11.5291C42.6461 12.1416 42.1246 12.5869 41.522 12.585C41.5217 12.585 41.5214 12.5851 41.521 12.5851C41.5203 12.5851 41.5196 12.5851 41.519 12.5851C41.4762 12.5848 41.434 12.5883 41.3905 12.5833C41.3899 12.5832 41.3893 12.5832 41.3887 12.5831C40.731 12.5075 40.2591 11.9131 40.3346 11.2554C40.4102 10.5976 41.0047 10.1257 41.6624 10.2013ZM5.01863 32.3243C4.97544 32.1315 4.93226 31.9422 4.89236 31.7496C4.89236 31.7096 4.89236 31.6664 4.86578 31.6265L4.80598 31.3242C4.7794 31.1946 4.74949 31.0651 4.72624 30.9355L4.68637 30.7163C4.65646 30.5667 4.6299 30.4173 4.60332 30.2709C4.57674 30.1248 4.56675 30.075 4.54683 29.9754C4.52026 29.8257 4.49699 29.6763 4.47041 29.5267C4.39067 29.0551 4.3209 28.5798 4.25447 28.1048C4.23453 27.9553 4.2179 27.8057 4.19798 27.6563C4.1559 27.3283 4.11599 26.9961 4.07837 26.6595C4.05842 26.4867 4.04182 26.3273 4.0219 26.1412C3.99199 25.8256 3.96208 25.51 3.93548 25.1944L3.89562 24.6826C3.87806 24.4632 3.8637 24.232 3.85004 23.9999C3.84302 23.8806 3.83595 23.761 3.82918 23.6427C3.82918 23.5364 3.82918 23.4335 3.80924 23.3105V23.327C3.80924 23.011 3.78576 22.695 3.77484 22.3788C3.77471 22.3753 3.7745 22.372 3.77437 22.3686C3.77395 22.3559 3.77308 22.3431 3.77269 22.3304V22.1476C3.77269 21.709 3.75609 21.2671 3.75275 20.8186V20.616C3.75275 20.1076 3.75275 19.596 3.776 19.0876V18.7122C3.776 18.3268 3.80924 17.9414 3.82918 17.556L3.85909 17.0842C3.88567 16.6987 3.91556 16.31 3.95211 15.9246L3.98199 15.5558C4.03184 15.0508 4.085 14.5592 4.14812 14.0475C4.14812 13.9543 4.17137 13.8647 4.18469 13.7717C4.23783 13.3597 4.29432 12.951 4.35745 12.5457C4.38069 12.3862 4.40727 12.2135 4.43387 12.0706C4.49034 11.7118 4.55347 11.353 4.61993 10.994L4.69964 10.5455C4.79467 10.0573 4.89316 9.56298 5.00098 9.08734C9.07229 9.7477 13.2477 9.01772 16.8532 7.01372C16.8574 7.01141 16.8614 7.00869 16.8656 7.00638C16.8714 7.0033 16.8774 7.0004 16.8831 6.99713C18.052 6.34004 19.1557 5.57325 20.1803 4.70833C20.1883 4.71509 20.1968 4.72129 20.2048 4.72806C20.2051 4.72782 20.2053 4.72763 20.2056 4.7274C20.4593 4.94259 20.7183 5.15138 20.9817 5.35417C21.7796 5.96627 22.6204 6.52113 23.4982 7.01372C26.4892 8.67585 29.8722 9.45902 33.2626 9.30218C33.0156 9.50739 32.7587 9.70381 32.4992 9.88988C31.9903 10.2562 31.4671 10.6025 30.9431 10.9396L30.5299 11.2053C29.9176 11.5945 29.293 11.9786 28.719 12.4162C28.3175 12.7235 27.8437 13.1341 27.7385 13.6511C27.711 13.7866 27.7118 13.9264 27.7408 14.0616C27.9388 14.9998 29.2542 15.0887 30.019 15.1253C30.3279 15.1392 30.6374 15.1374 30.9461 15.1202L31.047 15.1501C32.645 15.5846 34.198 15.3584 35.7983 15.0882C35.9792 15.0579 36.1595 15.024 36.3401 14.9915C36.349 14.9899 36.358 14.9884 36.3669 14.9867C36.4738 15.9844 36.5561 16.9841 36.6072 17.9854C36.5982 17.9972 36.5892 18.0091 36.5802 18.0209C36.5965 18.3476 36.6076 18.6746 36.618 19.0016L36.6456 18.964C36.6483 19.0484 36.653 19.1327 36.6554 19.2171C36.6554 19.2173 36.6553 19.2176 36.6554 19.2178C36.6456 19.2163 36.6359 19.2144 36.6262 19.2129C36.6388 19.6688 36.6461 20.1248 36.6472 20.5809C36.6481 20.856 36.6434 21.1311 36.6401 21.4063C36.6497 21.4092 36.6597 21.4121 36.6694 21.4151C36.6678 21.5377 36.6686 21.6602 36.6661 21.7828C36.6563 21.7799 36.6465 21.7769 36.6367 21.774C36.6239 22.4505 36.5956 23.1267 36.5573 23.8026L36.5843 23.7983C36.4743 25.7042 36.2669 27.6065 35.9541 29.4968C35.9541 29.5799 35.9275 29.6663 35.9109 29.7494C35.4794 32.3582 34.8121 34.9226 33.9174 37.4109C33.7978 37.7433 33.6715 38.0356 33.542 38.3347L33.502 38.4166L33.4755 38.4708C33.4423 38.5539 33.4058 38.6337 33.3692 38.71C33.3327 38.7864 33.2729 38.9094 33.2263 39.0091L33.1134 39.2351L32.9572 39.5306L32.8443 39.7368L32.6682 40.0391C32.6316 40.0988 32.5984 40.1621 32.5585 40.2219C32.4888 40.3381 32.4157 40.4544 32.3392 40.5541L32.2662 40.6703C32.1665 40.8209 32.0635 40.9672 31.9572 41.1089C31.9272 41.1554 31.894 41.1953 31.8608 41.2385C31.7877 41.3415 31.7113 41.4411 31.6382 41.5376L31.5086 41.697C31.4389 41.7801 31.3724 41.8665 31.3026 41.9461L31.1598 42.1123L30.9571 42.3416C30.9073 42.398 30.8541 42.4513 30.8043 42.5043C30.7544 42.5575 30.668 42.6506 30.5983 42.7202L30.4388 42.8799L30.2262 43.0891L30.0667 43.2387L29.8407 43.4446L29.6813 43.5842L29.4321 43.7969L29.2859 43.9197L28.9537 44.1722L28.8673 44.2388L28.4553 44.5509L28.3257 44.6408C28.2261 44.7106 28.1297 44.7836 28.0267 44.85L27.8606 44.9662L27.5915 45.1457L27.4054 45.262L27.1429 45.4315L26.9535 45.551L26.6844 45.7106L26.4917 45.8269L26.2159 45.9864L26.0233 46.0959L25.7342 46.2588L25.5481 46.3617L25.2159 46.5312L25.0464 46.6209L24.6245 46.8436L24.558 46.8767C24.3919 46.9631 24.2258 47.0495 24.0564 47.1326L23.9102 47.2057L23.5447 47.3885L23.362 47.4814L23.0297 47.6443L22.827 47.744L22.4948 47.9034L22.2921 48.0031L21.93 48.1759L21.7605 48.2555L21.2024 48.5247L21.096 48.5746L20.1657 49.0231L19.6806 48.8302L19.5777 48.7805L19.4547 48.7074L18.9696 48.4749L18.6806 48.3353L17.2852 47.6707L17.2386 47.6476L17.1689 47.6142C16.8665 47.4681 16.5708 47.3186 16.2785 47.1725H16.2552L15.3913 46.7238L15.3315 46.694H15.3083C15.0458 46.5544 14.7866 46.415 14.5308 46.2721L14.4544 46.2289L14.3149 46.1491L14.2052 46.0893L14.1222 46.0429L13.966 45.9497L13.6736 45.777L13.5939 45.7305L13.4843 45.664L13.1022 45.4247L12.9228 45.3119L12.5008 45.0328L12.3879 44.9564C12.2118 44.8367 12.039 44.7139 11.8695 44.5908L11.7433 44.4944L11.3745 44.1788L11.3014 44.1223L11.2482 44.0791L11.205 44.0427C10.9359 43.8267 10.6701 43.6008 10.4143 43.3781L10.3644 43.3349L10.3179 43.2917L10.2881 43.2653C10.0721 43.0625 9.85945 42.85 9.65346 42.6339L9.56375 42.5376C9.3644 42.325 9.17171 42.1058 8.98233 41.873L8.92915 41.8133L8.87266 41.7402C8.7431 41.5807 8.61682 41.408 8.49059 41.2485L8.4474 41.1886C8.31116 41.0025 8.18159 40.8099 8.05201 40.6105L7.94569 40.4478C7.84602 40.2916 7.74967 40.1154 7.65333 39.966L7.55698 39.8033C7.4407 39.5906 7.32108 39.3747 7.22472 39.1387C7.2241 39.1309 7.2241 39.1232 7.22472 39.1155L7.18819 39.0357C7.08851 38.8331 6.98882 38.6237 6.8958 38.411L6.80943 38.2117C6.70309 37.9593 6.60011 37.7067 6.50374 37.441C6.37087 37.082 6.24459 36.7166 6.12165 36.3511C6.08512 36.2348 6.04855 36.1185 6.00869 36.0023C5.92898 35.7464 5.84922 35.4939 5.77279 35.2382L5.6532 34.836L5.4439 34.0819L5.34422 33.7031C5.26447 33.4008 5.19137 33.0984 5.11829 32.7928C5.11829 32.7331 5.08839 32.6731 5.07508 32.6101V32.5669C5.05514 32.487 5.03855 32.4041 5.01863 32.3243ZM36.8982 14.1593C36.739 14.1904 36.5803 14.2208 36.4237 14.2497C36.1681 14.2969 35.9171 14.341 35.6744 14.3818C34.7688 14.5607 33.8494 14.6603 32.9266 14.6794C32.929 14.679 32.9312 14.6785 32.9336 14.678C32.9289 14.6781 32.9241 14.6785 32.9194 14.6786C33.3445 14.5994 33.7556 14.5081 34.1511 14.4148C34.2535 14.39 34.36 14.3674 34.4596 14.3411C35.8042 14.0107 37.1253 13.5911 38.4142 13.0854C38.8549 12.9189 39.284 12.7235 39.699 12.5006C39.8674 12.4121 40.0221 12.2997 40.1585 12.1671C40.3921 12.5795 40.7993 12.8645 41.2668 12.9426C40.6578 13.2363 39.7046 13.523 38.6586 13.7767C38.6586 13.7766 38.6586 13.7768 38.6586 13.7767C38.2933 13.8652 37.9173 13.9501 37.5398 14.0294C37.3254 14.0745 37.1111 14.1178 36.8982 14.1593ZM40.2557 17.8243C40.2554 17.8183 40.255 17.8122 40.2547 17.8062C40.2478 17.6682 40.2395 17.5304 40.2316 17.3925C40.6268 17.5932 41.0026 17.8308 41.349 18.1092C41.3465 18.1137 41.3442 18.1183 41.3417 18.1228L41.3419 18.123C41.2841 18.2281 41.228 18.3333 41.172 18.4386C40.8858 18.2054 40.5779 18.0021 40.2557 17.8243ZM41.0014 15.9233C40.7091 15.8136 40.4096 15.7257 40.1059 15.6553C40.0952 15.5338 40.0855 15.4122 40.0741 15.2908C40.4297 15.3665 40.7814 15.4594 41.1227 15.5857C41.5804 15.7483 42.0141 15.9718 42.4122 16.2502C42.4108 16.2525 42.4094 16.2549 42.408 16.2572C42.4091 16.2579 42.4101 16.2585 42.4112 16.2593C42.3501 16.3603 42.2907 16.4633 42.2296 16.5643C41.8515 16.2955 41.4382 16.0799 41.0014 15.9233Z" fill="#18355E"/>
<path d="M35.335 7.43992C35.3619 7.45162 35.3903 7.45773 35.4198 7.45907C35.4711 7.46227 35.526 7.44766 35.5819 7.42049C35.7442 7.344 35.9129 7.15652 36.0264 6.90416C36.0974 6.74651 36.134 6.58984 36.1409 6.45194C36.1382 6.45254 36.1357 6.45288 36.1331 6.45347C36.1434 6.25056 36.0875 6.08917 35.9671 6.03494C35.7651 5.94398 35.4572 6.18507 35.2899 6.57417C35.2828 6.59071 35.2779 6.60705 35.2714 6.62355C35.2708 6.62365 35.2702 6.62383 35.2695 6.62393C35.112 6.99257 35.1331 7.35189 35.335 7.43992ZM36.0326 6.72358C35.9566 6.89063 35.8238 6.9944 35.7368 6.95509C35.648 6.9156 35.6391 6.75345 35.7133 6.58619C35.7227 6.565 35.7352 6.54861 35.7463 6.52981C35.7448 6.53009 35.7433 6.53038 35.7419 6.53068C35.8199 6.38981 35.9368 6.31283 36.0099 6.34745C36.0308 6.35736 36.047 6.37622 36.0589 6.40089C36.0969 6.46953 36.0901 6.59701 36.0326 6.72358Z" fill="#B8DEEB"/>
<path d="M20.1591 51.7542C30.1664 47.1392 34.6882 44.8733 37.426 34.2314C38.9865 27.9742 39.4464 21.5177 38.8145 15.145C38.6724 15.105 38.5302 15.0656 38.3912 15.0162C38.3505 15.0017 38.3107 14.9856 38.2703 14.9704C38.0765 14.8973 37.8846 14.8188 37.6981 14.7279C37.6717 14.7335 37.6451 14.7383 37.6187 14.7439C38.1597 19.7246 38.025 24.7651 37.2034 29.7261C36.7582 32.5025 36.0541 35.2311 35.1002 37.8762C32.4987 44.9364 27.0167 47.1758 20.7339 50.2191C20.5596 50.3016 20.3716 50.3415 20.1835 50.3421C20.1787 50.3421 20.174 50.3436 20.1691 50.3436C20.1642 50.3436 20.1594 50.3423 20.1546 50.3421C19.9666 50.3415 19.7785 50.3016 19.6043 50.2191C13.3182 47.1758 7.83942 44.9364 5.2346 37.8762C4.28072 35.2311 3.57659 32.5025 3.13147 29.7261C1.98226 22.7772 2.17171 15.6725 3.68964 8.7947C3.78395 8.37786 4.07012 8.05124 4.43644 7.89083C4.58297 7.82663 4.74229 7.78902 4.90732 7.78306C4.98982 7.77996 5.07373 7.78458 5.15818 7.79788C7.29287 8.14455 9.45826 8.08189 11.543 7.62919C12.0063 7.52854 12.4656 7.40862 12.9197 7.26979C13.6008 7.06138 14.2702 6.81015 14.9238 6.51689C15.3595 6.32138 15.7883 6.10699 16.2087 5.87427C16.4859 5.72042 16.7591 5.55999 17.0281 5.39284C17.835 4.89135 18.604 4.33048 19.3285 3.71465C19.4491 3.61073 19.5841 3.53303 19.7263 3.48117C19.8685 3.42911 20.018 3.40328 20.1674 3.40328C20.2422 3.40328 20.3169 3.40964 20.3907 3.42275C20.6122 3.4617 20.8255 3.55887 21.0063 3.71465C21.2479 3.91998 21.4943 4.11916 21.7454 4.31196C22.4989 4.89077 23.2946 5.41289 24.1261 5.87427C27.1255 7.53496 30.5451 8.25055 33.9414 7.94972C33.9838 7.54939 34.0618 7.15671 34.173 6.77498C25.308 7.72159 20.1691 1.24597 20.1691 1.24597C20.1691 1.24597 13.8564 9.22003 3.14808 6.18989C0.751582 15.1459 0.610034 24.5562 2.7361 33.5803C5.42396 44.6607 9.76976 46.9599 20.1591 51.7542Z" fill="#B8DEEB"/>
<path d="M37.949 9.43352C37.9488 9.43259 37.9486 9.43168 37.9484 9.43072C37.5675 8.98746 37.2505 8.45512 36.6623 7.95138C36.6549 7.94505 36.6468 7.94098 36.6392 7.93494C36.6456 7.9402 36.6526 7.94368 36.6589 7.94915C37.2492 8.45385 37.5664 8.98871 37.949 9.43352Z" fill="#B8DEEB"/>
<path d="M37.389 12.9027C37.3891 12.9034 37.3891 12.9041 37.3893 12.9048C37.7914 12.7615 38.1601 12.6201 38.4831 12.4859L38.4827 12.4833C38.1598 12.6176 37.7912 12.7592 37.389 12.9027Z" fill="#B8DEEB"/>
<path d="M38.6363 14.3389C38.6357 14.339 38.6351 14.3392 38.6345 14.3393C38.6661 14.3506 38.6983 14.3598 38.73 14.3706L38.7299 14.3695C38.6988 14.359 38.6673 14.3498 38.6363 14.3389Z" fill="#B8DEEB"/>
<path d="M24.1261 5.87419C23.2946 5.41281 22.4989 4.89069 21.7454 4.31188C21.4943 4.11908 21.2478 3.9199 21.0063 3.71457C20.8255 3.55879 20.6121 3.46162 20.3907 3.42267C20.3169 3.40956 20.2421 3.4032 20.1674 3.4032C20.0179 3.4032 19.8685 3.42903 19.7263 3.48109C19.5841 3.53295 19.449 3.61065 19.3285 3.71457C18.6039 4.3304 17.835 4.89127 17.028 5.39276C16.759 5.55991 16.4859 5.72034 16.2087 5.87419C15.7883 6.10691 15.3595 6.3213 14.9238 6.51681C14.2702 6.81007 13.6008 7.0613 12.9196 7.26971C12.4655 7.40854 12.0063 7.52846 11.543 7.62911C9.45824 8.08181 7.29285 8.14448 5.15816 7.79781C5.07371 7.78451 4.9898 7.77988 4.9073 7.78298C4.74227 7.78894 4.58295 7.82655 4.43642 7.89076C4.0701 8.05116 3.78393 8.37778 3.68962 8.79462C2.17169 15.6724 1.98224 22.7771 3.13145 29.726C3.57718 32.4992 4.28127 35.2243 5.23458 37.8661C7.8394 44.9265 13.3181 47.169 19.6042 50.2091C19.7777 50.2949 19.9658 50.3385 20.1546 50.342C20.1594 50.3422 20.1642 50.3435 20.1691 50.3435C20.1739 50.3435 20.1787 50.342 20.1835 50.342C20.3715 50.3414 20.5596 50.3015 20.7339 50.219C27.0166 47.1757 32.4987 44.9363 35.1002 37.8761C36.0541 35.231 36.7582 32.5024 37.2033 29.726C38.025 24.765 38.1597 19.7246 37.6187 14.7438C37.4052 14.7887 37.1912 14.831 36.9772 14.8727C37.5079 19.781 37.3743 24.7476 36.5654 29.6364C36.1251 32.3717 35.4311 35.0602 34.4922 37.6667C31.9738 44.5112 26.5615 46.6773 20.4515 49.6344C20.2765 49.7291 20.0669 49.7352 19.8866 49.651C13.7733 46.6939 8.37097 44.5245 5.84589 37.6667C4.90397 35.0611 4.20983 32.3725 3.77269 29.6364C2.63744 22.7723 2.82466 15.7545 4.32422 8.96063C4.35432 8.83685 4.4177 8.72886 4.50296 8.6448C4.58821 8.56074 4.69531 8.50039 4.81284 8.47186C4.89122 8.45277 4.97422 8.44776 5.05848 8.45894C8.99584 9.10215 13.035 8.39976 16.5243 6.46551C17.6702 5.82926 18.7498 5.08022 19.7471 4.22955C19.9917 4.0298 20.3431 4.0298 20.5877 4.22955C21.5861 5.08022 22.6668 5.82926 23.8138 6.46551C26.8971 8.17495 30.41 8.92038 33.9025 8.62713C33.9037 8.39942 33.9176 8.17355 33.9414 7.94964C30.545 8.25047 27.1255 7.53488 24.1261 5.87419Z" fill="#6897B8"/>
<path d="M36.7596 13.1193C36.7597 13.1199 36.7598 13.1206 36.7599 13.1212C36.977 13.0492 37.1871 12.9769 37.3892 12.9049C37.3891 12.9041 37.3891 12.9034 37.389 12.9027C37.1868 12.9748 36.9767 13.0472 36.7596 13.1193Z" fill="#6897B8"/>
<path d="M35.8698 8.0542C36.1639 8.20716 36.2784 8.56961 36.1254 8.86374C36.2186 8.70057 36.2298 8.50311 36.1556 8.33049C36.0269 8.03104 35.6829 7.89159 35.3822 8.01296C35.3791 8.0153 35.376 8.01687 35.3728 8.01922C35.2965 8.05023 35.2322 8.10034 35.1752 8.15835C35.3567 7.98144 35.6355 7.93232 35.8698 8.0542Z" fill="#6897B8"/>
<path d="M34.9501 8.50577C34.9929 8.43426 35.0361 8.36121 35.0808 8.28232L35.0818 8.27307C35.0807 8.27504 35.0787 8.27632 35.0776 8.27829L35.0763 8.28915C35.0739 8.29176 35.0718 8.29471 35.0694 8.29732C35.0277 8.37088 34.9874 8.43908 34.9474 8.50617C34.9483 8.50605 34.9492 8.50589 34.9501 8.50577Z" fill="#6897B8"/>
<path d="M5.07509 32.61C5.08839 32.6731 5.1183 32.733 5.1183 32.7928C5.19137 33.0984 5.26447 33.4007 5.34423 33.703L5.4439 34.0819L5.6532 34.836L5.7728 35.2382C5.84923 35.4938 5.92898 35.7464 6.0087 36.0023C6.04856 36.1185 6.08513 36.2348 6.12165 36.3511C6.2446 36.7166 6.37087 37.082 6.50374 37.441C6.60011 37.7067 6.7031 37.9592 6.80943 38.2116L6.89581 38.411C6.98882 38.6236 7.08852 38.833 7.18819 39.0357L7.22472 39.1155C7.22411 39.1232 7.22411 39.1309 7.22472 39.1386C7.32109 39.3746 7.4407 39.5906 7.55699 39.8032L7.65333 39.966C7.74968 40.1154 7.84602 40.2916 7.9457 40.4478L8.05201 40.6105C8.1816 40.8099 8.31116 41.0025 8.44741 41.1885L8.49059 41.2485C8.61683 41.408 8.7431 41.5807 8.87267 41.7402L8.92915 41.8132L8.98233 41.873C9.17171 42.1057 9.3644 42.3249 9.56376 42.5376L9.65346 42.6338C9.85945 42.85 10.0721 43.0624 10.2881 43.2653L10.3179 43.2917L10.3644 43.3349L10.4143 43.3781C10.6701 43.6007 10.9359 43.8267 11.205 44.0426L11.2482 44.0791L11.3014 44.1223L11.3745 44.1788L11.7433 44.4944L11.8695 44.5908C12.039 44.7138 12.2118 44.8366 12.3879 44.9564L12.5008 45.0327L12.9228 45.3119L13.1022 45.4247L13.4843 45.664L13.5939 45.7305L13.6736 45.7769L13.966 45.9497L14.1222 46.0428L14.2053 46.0893L14.3149 46.1491L14.4544 46.2289L14.5308 46.2721C14.7867 46.4149 15.0458 46.5543 15.3083 46.6939H15.3315L15.3913 46.7238L16.2552 47.1725H16.2785C16.5708 47.3186 16.8665 47.4681 17.1689 47.6142L17.2386 47.6476L17.2852 47.6707L18.6806 48.3353L18.9696 48.4749L19.4547 48.7074L19.5777 48.7805L19.6807 48.8302L20.1658 49.023L21.096 48.5746L21.2024 48.5246L21.7605 48.2555L21.93 48.1758L22.2921 48.0031L22.4948 47.9034L22.827 47.744L23.0297 47.6443L23.362 47.4814L23.5447 47.3884L23.9102 47.2056L24.0564 47.1326C24.2258 47.0495 24.3919 46.9631 24.558 46.8767L24.6245 46.8435L25.0464 46.6208L25.2159 46.5312L25.5481 46.3617L25.7342 46.2588L26.0233 46.0958L26.2159 45.9863L26.4917 45.8269L26.6844 45.7106L26.9535 45.551L27.1429 45.4314L27.4054 45.262L27.5915 45.1457L27.8606 44.9662L28.0267 44.8499C28.1297 44.7836 28.2261 44.7105 28.3257 44.6407L28.4553 44.5509L28.8673 44.2387L28.9537 44.1722L29.2859 43.9196L29.4321 43.7968L29.6813 43.5842L29.8407 43.4446L30.0667 43.2386L30.2262 43.089L30.4388 42.8798L30.5983 42.7202C30.668 42.6506 30.7544 42.5575 30.8043 42.5043C30.8541 42.4512 30.9073 42.398 30.9571 42.3415L31.1598 42.1123L31.3026 41.9461C31.3724 41.8665 31.4389 41.7801 31.5086 41.697L31.6382 41.5375C31.7113 41.4411 31.7877 41.3414 31.8608 41.2385C31.8941 41.1953 31.9272 41.1554 31.9572 41.1089C32.0635 40.9672 32.1665 40.8209 32.2662 40.6703L32.3392 40.554C32.4157 40.4543 32.4888 40.3381 32.5585 40.2218C32.5984 40.162 32.6316 40.0988 32.6682 40.039L32.8443 39.7367L32.9572 39.5306L33.1134 39.235L33.2263 39.0091C33.2729 38.9094 33.3327 38.7864 33.3692 38.71C33.4058 38.6337 33.4423 38.5539 33.4755 38.4707L33.502 38.4166C30.7637 41.4257 26.9296 42.9537 22.9499 43.1023C22.6155 43.1156 22.2766 43.1156 21.9333 43.1023C21.3387 43.0888 20.7466 43.0423 20.1579 42.9704C18.8391 42.8093 17.5399 42.5064 16.2851 42.0591H16.2386C15.8698 41.9262 15.5043 41.7801 15.1421 41.6239L15.0956 41.6039L14.9727 41.5474C13.9453 41.0933 12.97 40.5397 12.0585 39.8985C10.5408 38.8353 9.20002 37.5281 8.09523 36.0221C7.81947 35.6467 7.55699 35.2547 7.31114 34.8493C6.85413 34.0927 6.45647 33.3018 6.1217 32.4837C6.04415 32.2977 5.97105 32.1116 5.90239 31.9256C5.86917 31.8259 5.83262 31.7295 5.79938 31.6333C5.70304 31.3707 5.62663 31.1547 5.52362 30.8391C5.42064 30.5235 5.31763 30.2244 5.22129 29.8922C4.63978 27.9644 4.18254 26.0012 3.85243 24.0147L3.85004 23.9999C3.8637 24.232 3.87806 24.4632 3.89562 24.6826L3.93548 25.1943C3.96208 25.5099 3.99199 25.8256 4.0219 26.1412C4.04182 26.3272 4.05842 26.4867 4.07837 26.6594C4.11599 26.9961 4.1559 27.3283 4.19798 27.6563C4.2179 27.8057 4.23453 27.9553 4.25447 28.1047C4.3209 28.5798 4.39067 29.0551 4.47041 29.5267C4.49699 29.6763 4.52026 29.8257 4.54683 29.9753C4.56675 30.075 4.57674 30.1247 4.60332 30.2709C4.6299 30.4172 4.65646 30.5667 4.68637 30.7163L4.72624 30.9355C4.74949 31.0651 4.7794 31.1946 4.80598 31.3242L4.86578 31.6265C4.89236 31.6664 4.89236 31.7096 4.89236 31.7495C4.93226 31.9421 4.97544 32.1315 5.01863 32.3243C5.03855 32.4041 5.05516 32.487 5.0751 32.5668L5.07509 32.61Z" fill="#F9C27A"/>
<path d="M5.22129 29.8922C5.31763 30.2244 5.42064 30.5235 5.52362 30.8391C5.62663 31.1547 5.70304 31.3707 5.79938 31.6333C5.83262 31.7295 5.86917 31.8259 5.90239 31.9256C5.97105 32.1116 6.04415 32.2977 6.1217 32.4838C6.45647 33.3018 6.85413 34.0927 7.31114 34.8493C7.55699 35.2548 7.81947 35.6467 8.09523 36.0221C9.20001 37.5281 10.5408 38.8354 12.0585 39.8985C12.97 40.5398 13.9453 41.0933 14.9727 41.5474L15.0956 41.6039L15.1421 41.6239C15.5043 41.7801 15.8698 41.9262 16.2386 42.0591H16.2851C17.5399 42.5064 18.8391 42.8093 20.1579 42.9704L20.1728 42.951C20.7424 43.0186 21.3151 43.0626 21.8901 43.0757H22.9068C26.8937 42.9263 30.7611 41.3846 33.5021 38.3447C33.6317 38.0456 33.758 37.7398 33.8775 37.4209C34.7714 34.9349 35.4382 32.3729 35.8697 29.7665C35.3775 29.7962 34.8813 29.8149 34.3847 29.8327C34.1214 29.8421 33.8572 29.8504 33.5924 29.8566C33.0762 29.8687 32.5592 29.8789 32.0369 29.8789C31.9015 29.8789 31.7668 29.8772 31.6317 29.8764C30.8768 29.8718 30.1288 29.8517 29.3854 29.8221C29.237 29.8161 29.0875 29.8124 28.9396 29.8057C29.3173 30.4514 29.5212 31.2287 29.5395 32.1467C29.5166 33.4277 29.0282 34.4388 28.0746 35.1799C27.1439 35.9211 26.0667 36.375 24.843 36.5415V37.5673H27.4542C27.8677 37.5788 28.2211 37.5299 28.5142 37.4207C28.7841 37.3174 28.9249 37.0301 28.9365 36.5589H29.3674V39.825H24.231V35.9211C24.639 35.7603 24.9722 35.5278 25.2307 35.2231C25.4777 34.9247 25.6672 34.5884 25.7995 34.2148C25.9431 33.8241 26.0378 33.425 26.0839 33.0171C26.1068 32.6033 26.1184 32.2127 26.1184 31.8448C26.1184 31.0215 25.9496 30.263 25.632 29.561C24.9765 29.4967 24.3245 29.4268 23.6818 29.3429C22.8535 29.235 22.0402 29.1062 21.2351 28.9674C21.2036 28.9619 21.1721 28.9564 21.1405 28.9511C21.0848 29.0299 21.031 29.1114 20.9822 29.1995C20.511 29.9981 20.2812 30.8796 20.2928 31.8448C20.2812 32.6264 20.399 33.4165 20.6462 34.2148C20.7896 34.5884 20.9765 34.9247 21.2063 35.2231C21.4591 35.5278 21.7837 35.7603 22.1801 35.9211V39.825H17.0438V36.5589H17.4662C17.4662 37.0301 17.6155 37.3174 17.9143 37.4207C18.0522 37.4956 18.2101 37.5384 18.3882 37.5499C18.5662 37.5615 18.753 37.5673 18.9483 37.5673H21.5595V36.5415C20.3645 36.375 19.3017 35.9211 18.3711 35.1799C17.3943 34.4388 16.8944 33.4277 16.8714 32.1467C16.905 30.4772 17.5431 29.2622 18.7759 28.4934C18.1691 28.3613 17.5717 28.2191 16.9813 28.07C16.5033 27.9492 16.0286 27.825 15.5621 27.6931C15.1156 27.5668 14.6771 27.4334 14.2417 27.2973C12.6894 26.8122 11.2077 26.2671 9.81071 25.6648C9.78604 25.6542 9.76004 25.6443 9.73541 25.6337C9.73558 25.6328 9.73571 25.6316 9.73588 25.6307C9.32498 25.4529 8.92116 25.2703 8.5248 25.0831L8.52384 25.0846L6.41214 28.5422L6.10507 29.0451L6.10077 29.0291L5.38683 26.3892C5.38757 26.4005 5.38725 26.4125 5.38802 26.4239L5.20468 25.7458C5.15161 25.5361 5.10403 25.3252 5.0604 25.1135C4.9219 24.4418 4.83099 23.7608 4.78865 23.0758C4.78801 23.0654 4.78668 23.0551 4.78606 23.0447C4.63662 22.9505 4.49531 22.8521 4.3485 22.7565C4.28866 22.7181 4.23124 22.6794 4.17238 22.6406C4.04016 22.5531 3.9039 22.4679 3.77484 22.3788C3.78576 22.695 3.80925 23.011 3.80925 23.327V23.3104C3.82919 23.4334 3.82919 23.5364 3.82919 23.6426C3.83595 23.761 3.84302 23.8806 3.85004 23.9999L3.85244 24.0147C4.18254 26.0012 4.63978 27.9644 5.22129 29.8922Z" fill="#FFE49F"/>
<path d="M25.4634 29.1995C25.0038 28.3893 24.2511 27.9728 23.2055 27.9497C22.284 27.9703 21.5967 28.3054 21.1405 28.951C21.1721 28.9563 21.2036 28.9618 21.2351 28.9673C22.0402 29.1061 22.8535 29.2349 23.6818 29.3429C24.3245 29.4268 24.9765 29.4967 25.632 29.561C25.5772 29.4399 25.5276 29.3169 25.4634 29.1995Z" fill="#FFF6D1"/>
<path d="M4.34848 22.7565C4.4958 22.8514 4.6446 22.9457 4.79284 23.039C4.79368 23.0395 4.79451 23.0401 4.79536 23.0406C4.54444 19.6561 4.95623 15.0326 5.69308 10.2431C6.13694 10.2913 6.57128 10.3255 6.99607 10.3463C7.42088 10.3671 7.83611 10.3748 8.24166 10.3708C8.51201 10.3681 8.77812 10.36 9.03987 10.3471C9.82514 10.3085 10.5716 10.2256 11.2784 10.1086C11.9852 9.99152 12.6525 9.84018 13.2795 9.66473C13.4885 9.6061 13.6931 9.5448 13.8931 9.48137C14.2932 9.35412 14.6753 9.2176 15.0392 9.07474C16.8588 8.36019 18.2236 7.48545 19.1083 6.81718C19.2852 6.68336 19.443 6.55803 19.5813 6.4437C20.0655 6.04383 20.3119 5.78104 20.3119 5.78104L15.0708 14.3637C15.1593 14.5317 15.2361 14.7092 15.2979 14.8986C15.441 15.3109 15.5461 15.7651 15.6133 16.2614H15.6639L16.4083 13.1445H20.055L17.4178 21.1826C17.5944 21.6283 17.8383 22.0325 18.1497 22.3938C18.4189 22.7894 18.7636 22.9868 19.1843 22.9868C19.5207 22.9868 19.8194 22.848 20.0803 22.5704C20.3242 22.3267 20.4798 22.0448 20.547 21.7251H21.2917C21.2411 22.5665 21.0686 23.3906 20.7742 24.1984C20.6228 24.5767 20.4084 24.8883 20.1308 25.132C19.8614 25.3761 19.5165 25.5064 19.096 25.5234C18.5492 25.5064 18.095 25.1868 17.7332 24.5644C17.3715 23.9416 17.1024 23.1469 16.9258 22.1794H16.8753C16.4463 23.0798 15.8784 23.8575 15.1718 24.5139C14.4482 25.1698 13.586 25.5064 12.5849 25.5234C11.1135 25.4966 9.92603 25.0788 9.01336 24.2829L8.52478 25.083C8.92115 25.2702 9.32496 25.4528 9.73586 25.6306C9.73569 25.6316 9.73556 25.6327 9.73539 25.6337C9.76002 25.6443 9.78603 25.6541 9.8107 25.6647C11.2077 26.267 12.6894 26.8121 14.2417 27.2972C14.6771 27.4333 15.1156 27.5668 15.5621 27.693C16.0286 27.8249 16.5033 27.9491 16.9813 28.07C17.5717 28.219 18.1691 28.3612 18.7758 28.4933C18.8116 28.471 18.8427 28.4452 18.8795 28.4236C20.1491 27.694 21.5911 27.3292 23.2055 27.3292C24.8314 27.3292 26.2792 27.694 27.549 28.4236C28.1509 28.7794 28.6105 29.2431 28.9395 29.8056C29.0875 29.8124 29.237 29.816 29.3854 29.822C30.1287 29.8517 30.8768 29.8718 31.6317 29.8764C31.7668 29.8771 31.9015 29.8789 32.0369 29.8789C32.5592 29.8789 33.0761 29.8687 33.5924 29.8565C33.8572 29.8504 34.1213 29.8421 34.3847 29.8326C34.8813 29.8149 35.3775 29.7962 35.8697 29.7665C35.8735 29.7663 35.8773 29.7661 35.881 29.7659C35.8976 29.6828 35.9109 29.5964 35.9242 29.5135C36.2377 27.6192 36.4453 25.7128 36.555 23.8029C36.6167 22.7295 36.6498 21.6551 36.6472 20.5808C36.6461 20.1247 36.6388 19.6687 36.6262 19.2128C36.6262 19.2126 36.6262 19.2124 36.6262 19.2123C36.6242 19.142 36.6202 19.0718 36.618 19.0015C36.6076 18.6745 36.5965 18.3476 36.5802 18.0208C36.5297 17.0093 36.4475 15.9992 36.34 14.9914C36.1595 15.0239 35.9792 15.0578 35.7982 15.0881C34.198 15.3583 32.645 15.5845 31.047 15.15L30.9461 15.1201C30.6374 15.1374 30.3279 15.1391 30.019 15.1252C29.2542 15.0886 27.9388 14.9997 27.7408 14.0615C27.7118 13.9263 27.711 13.7866 27.7385 13.6511C27.8437 13.134 28.3175 12.7234 28.719 12.4161C29.293 11.9786 29.9176 11.5944 30.5299 11.2052L30.9431 10.9396C31.4671 10.6025 31.9903 10.2561 32.4992 9.88981C32.7587 9.70373 33.0156 9.50731 33.2626 9.3021C29.8722 9.45894 26.4892 8.67578 23.4982 7.01364C22.6204 6.52106 21.7796 5.96619 20.9817 5.35409C20.7179 5.15171 20.459 4.94277 20.2048 4.72798C20.1968 4.72121 20.1883 4.71502 20.1803 4.70825C19.1556 5.57317 18.052 6.33997 16.8831 6.99705C16.8773 7.00032 16.8714 7.00322 16.8656 7.0063C16.8614 7.00861 16.8574 7.01133 16.8532 7.01364C13.2476 9.01765 9.07229 9.74762 5.00097 9.08727C4.89315 9.5629 4.79466 10.0573 4.69963 10.5454L4.61992 10.9939C4.55346 11.3529 4.49033 11.7117 4.43387 12.0705C4.40727 12.2134 4.38069 12.3862 4.35744 12.5456C4.29431 12.9509 4.23782 13.3596 4.18469 13.7717C4.17136 13.8646 4.14812 13.9543 4.14812 14.0474C4.08499 14.5591 4.03183 15.0507 3.98198 15.5557L3.9521 15.9245C3.91555 16.31 3.88566 16.6987 3.85908 17.0841L3.82917 17.5559C3.80923 17.9413 3.776 18.3267 3.776 18.7121V19.0875C3.75275 19.596 3.75275 20.1075 3.75275 20.6159V20.8185C3.75608 21.267 3.77269 21.7089 3.77269 22.1475V22.3303C3.77307 22.3431 3.77394 22.3558 3.77436 22.3685C3.90119 22.4601 4.03578 22.5505 4.17236 22.6406C4.23123 22.6793 4.28865 22.7181 4.34848 22.7565Z" fill="#FFF6D1"/>
<path d="M36.1355 13.3216C36.1354 13.321 36.1354 13.3204 36.1353 13.3198C34.1092 13.9487 31.685 14.4924 30.0512 14.4149C29.8424 14.4057 29.6565 14.3916 29.4919 14.373C29.6574 14.3918 29.8445 14.406 30.0548 14.4154C31.6877 14.4928 34.1101 13.9497 36.1355 13.3216Z" fill="#FFF6D1"/>
<path d="M34.1511 14.4148C33.7556 14.5081 33.3445 14.5994 32.9194 14.6786C32.9241 14.6785 32.9289 14.6781 32.9336 14.678C33.3532 14.5975 33.7589 14.5098 34.1511 14.4148Z" fill="#FFF6D1"/>
<path d="M32.47 11.7692C32.5845 11.7055 32.6988 11.6417 32.8123 11.5792C33.0241 11.4624 33.2175 11.3581 33.3959 11.2617C33.2186 11.3572 33.0266 11.4605 32.8163 11.576C32.7015 11.6396 32.5858 11.7044 32.47 11.7692Z" fill="#FFF6D1"/>
<path d="M30.3191 12.3261C29.9267 12.6419 29.5561 12.9817 29.2271 13.3644C29.3815 13.3097 29.5354 13.2507 29.6888 13.188C29.5368 13.2496 29.3843 13.3076 29.2312 13.3612C29.559 12.9798 29.9281 12.6409 30.3191 12.3261Z" fill="#FFF6D1"/>
<path d="M34.473 9.20642C34.4727 9.20644 34.4723 9.20646 34.472 9.20651C34.3406 9.3716 34.2103 9.51243 34.0738 9.63963C34.2106 9.5124 34.3413 9.37147 34.473 9.20642Z" fill="#FFF6D1"/>
<path d="M31.3245 11.5401C32.619 10.7007 33.6732 9.9522 34.2213 9.38306C33.6703 9.95156 32.6133 10.6982 31.3286 11.5369C30.6672 11.9646 29.9604 12.3954 29.4099 12.7894C29.9597 12.3962 30.665 11.9664 31.3245 11.5401Z" fill="#FFF6D1"/>
<path d="M11.2222 23.088C11.4071 24.106 11.9246 24.6146 12.7743 24.6146C13.2873 24.6146 13.6996 24.3921 14.011 23.9459C14.3219 23.5171 14.545 22.9997 14.6796 22.3939C14.9067 21.0816 15.0118 20.0386 14.995 19.2646C14.995 18.886 14.9866 18.3939 14.97 17.7881C14.953 17.2078 14.873 16.6147 14.7301 16.0093C14.6784 15.743 14.6065 15.4969 14.5206 15.2648L12.301 18.8995L11.782 19.7493L11.6357 19.9888L10.9868 21.0516C11.0347 21.8854 11.1127 22.5666 11.2222 23.088Z" fill="#FFF6D1"/>
<path d="M11.6357 19.9887L11.782 19.7493L12.301 18.8994L14.5206 15.2647C14.4111 14.9688 14.2768 14.6975 14.1118 14.4571C13.8006 14.0619 13.3799 13.8556 12.8501 13.8386C12.4211 13.8556 12.076 14.028 11.8153 14.3561C11.6975 14.5077 11.5839 14.6966 11.4746 14.9237C11.3738 15.1509 11.2895 15.3907 11.2222 15.6433C11.0119 16.7454 10.9151 17.6496 10.932 18.3561C10.9239 19.3882 10.9426 20.2841 10.9868 21.0515L11.6357 19.9887Z" fill="white"/>
<path d="M8.34534 23.58C7.38632 22.3434 6.90682 20.8379 6.90682 19.0626C6.9236 17.4391 7.44939 16.0008 8.48417 14.7472C9.45976 13.4855 10.7679 12.8376 12.4083 12.8041C13.4431 12.8211 14.2084 13.1573 14.7049 13.8136C14.8458 13.9818 14.9667 14.1661 15.0708 14.3638L20.3119 5.78113C20.3119 5.78113 20.0655 6.04392 19.5813 6.44379C19.443 6.55813 19.2852 6.68345 19.1083 6.81727C18.2236 7.48554 16.8588 8.36028 15.0393 9.07483C14.6753 9.21769 14.2932 9.35421 13.8931 9.48147C13.6931 9.54489 13.4885 9.60619 13.2795 9.66482C12.6525 9.84026 11.9852 9.99161 11.2784 10.1087C10.5716 10.2257 9.82516 10.3086 9.03989 10.3472C8.77813 10.3601 8.51203 10.3682 8.24168 10.3709C7.83612 10.3749 7.4209 10.3672 6.99608 10.3464C6.57129 10.3256 6.13695 10.2914 5.69309 10.2432C4.95625 15.0327 4.54446 19.6562 4.79538 23.0407C4.79453 23.0402 4.7937 23.0396 4.79285 23.0391C4.79383 23.0525 4.79438 23.0667 4.79538 23.0802C4.79563 23.0836 4.79576 23.0873 4.79601 23.0907C4.83657 23.7707 4.92513 24.4466 5.0604 25.1136C5.10403 25.3252 5.15161 25.5361 5.20469 25.7458L5.38802 26.4239C5.38726 26.4125 5.38757 26.4006 5.38683 26.3892L6.10077 29.0291L6.10507 29.0451L6.41214 28.5423L8.52384 25.0847L8.5248 25.0831L9.01337 24.283C8.77283 24.0733 8.54706 23.8432 8.34534 23.58Z" fill="white"/>
<path d="M20.4821 28.838C20.4514 28.8322 20.4217 28.8255 20.3911 28.8197C19.8624 28.7206 19.3383 28.6161 18.821 28.5041C18.8057 28.5007 18.7911 28.4968 18.7759 28.4934C17.5431 29.2622 16.905 30.4773 16.8714 32.1468C16.8944 33.4278 17.3943 34.4389 18.3711 35.18C19.3018 35.9211 20.3645 36.375 21.5595 36.5416V37.5673H18.9483C18.753 37.5673 18.5662 37.5615 18.3882 37.55C18.2101 37.5384 18.0522 37.4956 17.9143 37.4208C17.6155 37.3175 17.4662 37.0302 17.4662 36.559H17.0438V39.8251H22.1801V35.9212C21.7837 35.7604 21.4591 35.5278 21.2063 35.2232C20.9765 34.9247 20.7896 34.5885 20.6462 34.2148C20.399 33.4166 20.2812 32.6265 20.2928 31.8449C20.2812 30.8797 20.511 29.9982 20.9822 29.1996C21.031 29.1114 21.0848 29.03 21.1405 28.9511C20.9206 28.9139 20.6994 28.8783 20.4821 28.838Z" fill="#18355E"/>
<path d="M28.7092 29.7928C27.9468 29.7544 27.191 29.7033 26.4429 29.6393C26.2133 29.6196 25.9854 29.5971 25.7573 29.5751C25.7151 29.571 25.6741 29.5652 25.632 29.561C25.9496 30.263 26.1184 31.0215 26.1184 31.8448C26.1184 32.2127 26.1068 32.6033 26.0839 33.0171C26.0378 33.425 25.9431 33.8242 25.7995 34.2148C25.6672 34.5884 25.4777 34.9247 25.2307 35.2232C24.9721 35.5278 24.639 35.7603 24.231 35.9211V39.8251H29.3674V36.5589H28.9364C28.9249 37.0301 28.7841 37.3174 28.5142 37.4208C28.2211 37.5299 27.8677 37.5789 27.4541 37.5673H24.843V36.5416C26.0667 36.375 27.1439 35.9211 28.0746 35.18C29.0282 34.4388 29.5166 33.4277 29.5395 32.1467C29.5212 31.2287 29.3172 30.4514 28.9395 29.8057C28.9371 29.8056 28.9347 29.8056 28.9323 29.8055C28.8576 29.802 28.7838 29.7964 28.7092 29.7928Z" fill="#18355E"/>
<path d="M27.549 28.4236C26.2792 27.694 24.8314 27.3292 23.2055 27.3292C21.5911 27.3292 20.1491 27.694 18.8795 28.4236C18.8427 28.4452 18.8116 28.471 18.7758 28.4933C18.7911 28.4967 18.8057 28.5006 18.821 28.504C19.3383 28.616 19.8624 28.7205 20.3911 28.8196C20.4217 28.8254 20.4514 28.8321 20.4821 28.8379C20.6994 28.8782 20.9206 28.9138 21.1405 28.951C21.5966 28.3054 22.284 27.9703 23.2055 27.9497C24.2511 27.9728 25.0038 28.3893 25.4634 29.1995C25.5276 29.3169 25.5772 29.4399 25.632 29.561C25.6741 29.5651 25.7151 29.5709 25.7573 29.575C25.9854 29.597 26.2133 29.6196 26.4429 29.6392C27.191 29.7033 27.9468 29.7543 28.7092 29.7927C28.7838 29.7964 28.8576 29.802 28.9323 29.8054C28.9347 29.8055 28.9371 29.8055 28.9395 29.8056C28.6105 29.2431 28.1509 28.7794 27.549 28.4236Z" fill="#0E476C"/>
<path d="M14.5206 15.2647C14.6065 15.4969 14.6783 15.743 14.7301 16.0092C14.873 16.6147 14.953 17.2077 14.97 17.7881C14.9866 18.3939 14.995 18.8859 14.995 19.2646C15.0118 20.0385 14.9067 21.0816 14.6796 22.3938C14.545 22.9996 14.3219 23.5171 14.0109 23.9459C13.6996 24.3921 13.2873 24.6146 12.7743 24.6146C11.9246 24.6146 11.4071 24.1059 11.2222 23.0879C11.1127 22.5666 11.0346 21.8854 10.9867 21.0515L10.0098 22.6514L9.01337 24.2829C9.92604 25.0788 11.1135 25.4967 12.5849 25.5234C13.586 25.5065 14.4482 25.1698 15.1718 24.5139C15.8785 23.8576 16.4463 23.0798 16.8753 22.1794H16.9258C17.1024 23.1469 17.3716 23.9417 17.7333 24.5644C18.095 25.1868 18.5492 25.5065 19.096 25.5234C19.5165 25.5065 19.8614 25.3761 20.1308 25.1321C20.4084 24.8884 20.6229 24.5768 20.7742 24.1985C21.0686 23.3906 21.2412 22.5666 21.2917 21.7252H20.5471C20.4798 22.0448 20.3242 22.3267 20.0803 22.5704C19.8194 22.8481 19.5208 22.9869 19.1843 22.9869C18.7636 22.9869 18.4189 22.7895 18.1497 22.3938C17.8383 22.0325 17.5944 21.6284 17.4178 21.1826L20.055 13.1445H16.4083L15.6639 16.2614H15.6133C15.5461 15.7652 15.441 15.3109 15.2979 14.8987C15.2361 14.7093 15.1593 14.5318 15.0708 14.3637L14.5206 15.2647Z" fill="#0E476C"/>
<path d="M14.7049 13.8136C14.2084 13.1573 13.4432 12.821 12.4083 12.8041C10.768 12.8376 9.45976 13.4855 8.48418 14.7472C7.44939 16.0008 6.92361 17.4391 6.90683 19.0626C6.90683 20.8379 7.38633 22.3434 8.34535 23.58C8.54707 23.8432 8.77283 24.0733 9.01338 24.283L10.0098 22.6515L10.9868 21.0516C10.9426 20.2842 10.9239 19.3882 10.932 18.3561C10.9151 17.6497 11.0119 16.7454 11.2222 15.6433C11.2895 15.3908 11.3737 15.1509 11.4746 14.9238C11.5839 14.6967 11.6975 14.5077 11.8153 14.3562C12.076 14.028 12.4211 13.8556 12.8501 13.8387C13.3799 13.8556 13.8006 14.062 14.1118 14.4572C14.2768 14.6975 14.4111 14.9688 14.5206 15.2648L15.0708 14.3638C14.9667 14.1661 14.8458 13.9818 14.7049 13.8136Z" fill="#195B7F"/>
<path d="M43.8306 3.495C43.8498 3.50615 43.8685 3.51748 43.8868 3.52925C43.8701 3.51765 43.851 3.50628 43.8306 3.495Z" fill="#6897B8"/>
<path d="M40.4702 2.60295L40.3563 2.60633L40.1829 2.61753L40.0702 2.62654L39.8849 2.64555L39.7808 2.65921C39.712 2.6678 39.6447 2.68019 39.5774 2.6926L39.5028 2.70418C39.4129 2.72132 39.3154 2.74124 39.2342 2.76302L39.1588 2.78181C39.0946 2.79825 39.0287 2.81448 38.9696 2.83514L38.8672 2.8655L38.7057 2.91651L38.5969 2.95529L38.4476 3.01137L38.3362 3.05715C38.2863 3.07705 38.2382 3.09715 38.1917 3.11928L38.0837 3.1673L37.9343 3.23985L37.8389 3.28931C37.7765 3.32243 37.7141 3.35554 37.6443 3.38962L37.546 3.44791C37.4852 3.48304 37.4242 3.51997 37.3648 3.55892L37.2696 3.62304L37.1405 3.71073L37.0386 3.78508L36.9223 3.87243L36.8214 3.9542L36.7377 4.04531L36.6379 4.1327L36.5932 4.17152C36.6826 4.16715 36.7705 4.16344 36.8441 4.16161C36.8447 4.16159 36.8452 4.16159 36.8458 4.16157C36.846 4.16159 36.8463 4.16159 36.8465 4.16159C36.8569 4.1613 36.8652 4.16132 36.875 4.16113C36.9079 4.16055 36.9353 4.16066 36.958 4.16132C36.9717 4.16176 36.9875 4.16191 36.997 4.16299C38.9076 4.3259 41.3038 5.40229 42.2929 6.52148C42.3269 6.56015 42.3549 6.59892 42.3854 6.63768C42.4124 6.67172 42.4425 6.70577 42.4667 6.73981C43.1908 7.76784 42.2513 9.20332 41.0447 9.8886C41.1379 9.85826 41.2319 9.83993 41.3257 9.82748C41.4016 9.81741 41.4765 9.81728 41.5516 9.81832C41.5714 9.82012 41.5901 9.82651 41.6098 9.82907C41.6439 9.83081 41.6781 9.82608 41.7121 9.83007C42.248 9.89282 42.6885 10.2188 42.921 10.6633C42.9265 10.6741 42.9304 10.686 42.9357 10.6969C42.9738 10.7741 43.0069 10.854 43.032 10.9373C43.0445 10.9795 43.0499 11.023 43.0588 11.066C43.0716 11.1264 43.0872 11.1858 43.0928 11.2482C43.1019 11.3557 43.1019 11.4641 43.0887 11.5718C43.0801 11.6599 43.0575 11.7444 43.0346 11.8286C43.0107 11.9114 42.9814 11.9925 42.9444 12.0704C42.9404 12.0791 42.9367 12.0878 42.9325 12.0964C42.9065 12.1486 42.8779 12.1996 42.8461 12.2489C42.8503 12.2475 42.854 12.2455 42.8581 12.2442C44.5649 11.6854 45.9227 10.3973 46.59 8.74093C46.597 8.72348 46.6046 8.70632 46.6115 8.68877C46.6424 8.6098 46.6803 8.5345 46.708 8.45389C46.7077 8.44899 46.7083 8.44409 46.7097 8.43943C46.7151 8.39244 46.7042 8.34359 46.7008 8.29377C46.6974 8.24392 46.6953 8.19791 46.6915 8.15171C46.6876 8.10549 46.6826 8.05365 46.6772 8.00541C46.6717 7.95717 46.6677 7.91275 46.662 7.86634C46.6564 7.81991 46.6475 7.76947 46.6403 7.72102C46.633 7.67259 46.627 7.62977 46.6175 7.58473C46.608 7.5397 46.5994 7.48745 46.5901 7.44062L46.5617 7.30551C46.5506 7.25846 46.5395 7.21142 46.5267 7.16416C46.5138 7.1169 46.5039 7.07549 46.4924 7.03205C46.4809 6.98861 46.4664 6.93935 46.4517 6.89188C46.4371 6.84443 46.4252 6.80461 46.4099 6.76257L46.3652 6.6256C46.3501 6.58174 46.333 6.5395 46.3161 6.49545L46.2651 6.36508L46.209 6.23229L46.1536 6.10875C46.1257 6.04876 46.0976 5.99062 46.0677 5.93224C46.0378 5.87387 46.0094 5.81753 45.9773 5.76257C45.9452 5.70761 45.9276 5.66896 45.9017 5.62389L45.834 5.51174L45.7569 5.38569C45.7338 5.34823 45.7086 5.31239 45.6836 5.27473L45.6021 5.1555L45.523 5.04753L45.4354 4.93311L45.3523 4.82833L45.2589 4.7169L45.1715 4.61714C45.139 4.58047 45.1066 4.54377 45.0722 4.50869L44.9824 4.41414L44.8755 4.30849L44.7833 4.21914L44.6653 4.11404L44.5756 4.03415C44.5324 3.99622 44.4853 3.9597 44.44 3.92336L44.3595 3.85919C44.2872 3.80328 44.2131 3.74715 44.1368 3.69444L44.0925 3.66555L43.9037 3.53949C43.8983 3.53573 43.8924 3.53274 43.8868 3.5292C43.8685 3.51743 43.8498 3.5061 43.8306 3.49494C43.8252 3.4918 43.8202 3.48856 43.8147 3.48531L43.6624 3.39274L43.5608 3.33712C43.5125 3.31141 43.4626 3.28371 43.4122 3.25961L43.305 3.20518L43.1556 3.13491L43.0421 3.08708L42.8918 3.02403L42.7761 2.97962L42.6212 2.92521L42.503 2.88599L42.3403 2.83616L42.2231 2.80438L42.0451 2.76011L41.9309 2.73417C41.8676 2.72692 41.8038 2.70859 41.7392 2.6975L41.6416 2.6863C41.5422 2.67486 41.4446 2.66366 41.3452 2.65223C41.2459 2.64082 41.1501 2.62981 41.0543 2.6188L40.9603 2.608C40.8953 2.60051 40.8292 2.60208 40.7651 2.60204L40.6536 2.60022L40.4702 2.60295ZM42.5006 3.09811C45.1009 4.05242 46.4251 6.27911 46.3161 8.99661C46.2792 9.294 46.0303 9.51123 45.7398 9.52052C45.7135 9.52697 45.6867 9.53217 45.6592 9.53499C45.6543 9.5345 45.6495 9.53526 45.6445 9.53465C45.6216 9.53181 45.6004 9.52487 45.5784 9.51959C45.2855 9.44904 45.0848 9.17104 45.1228 8.86497C45.1307 8.79594 45.1329 8.72959 45.1385 8.66163C45.1463 8.56613 45.1563 8.46966 45.1596 8.37624C45.1608 8.34415 45.1589 8.3135 45.1595 8.28166C45.162 8.15867 45.1634 8.03619 45.1583 7.91687C45.157 7.88769 45.1529 7.85992 45.1512 7.83097C45.1441 7.71199 45.1358 7.5936 45.1212 7.47834C45.1099 7.38914 45.0926 7.30293 45.0767 7.21596C45.0674 7.16427 45.061 7.11107 45.0501 7.06016C44.6925 5.39972 43.5123 4.16111 41.7864 3.35476C41.5325 3.23521 41.3877 3.16898 41.3088 3.13449C41.3184 3.13962 41.3197 3.14028 41.3074 3.13389C40.9767 2.98967 41.8377 3.42068 40.7254 2.85199C40.7365 2.85127 40.7447 2.85088 40.7555 2.8502C40.745 2.84484 40.7381 2.8413 40.7273 2.83574C41.5419 2.80483 41.7065 2.80727 42.5006 3.09811Z" fill="#B8DEEB"/>
<path d="M40.6814 9.1413C41.1776 9.14913 41.6092 8.78437 41.667 8.28105C41.7286 7.74508 41.344 7.26069 40.8081 7.19911C40.2721 7.13751 39.7877 7.52206 39.7261 8.058C39.7257 8.06163 39.7253 8.06528 39.7249 8.06891C39.7209 8.10736 39.724 8.14461 39.7244 8.18235C39.7247 8.20799 39.7217 8.23417 39.7241 8.25939C39.7286 8.30949 39.7397 8.3576 39.7516 8.4055C39.755 8.41893 39.7558 8.43316 39.7597 8.44638C39.7758 8.50091 39.7979 8.55284 39.8229 8.6032C39.8257 8.60875 39.8272 8.6149 39.83 8.6204C39.858 8.67409 39.8912 8.72461 39.9284 8.77204C39.9297 8.77363 39.9305 8.7755 39.9318 8.77709C39.9691 8.8241 40.0111 8.86716 40.0565 8.90666C40.0585 8.90833 40.0599 8.91043 40.0618 8.91209C40.1052 8.94923 40.1528 8.98156 40.2025 9.01076C40.2076 9.01371 40.2117 9.01776 40.2168 9.02063C40.261 9.04551 40.3087 9.06458 40.3571 9.08248C40.3696 9.08713 40.3808 9.09404 40.3936 9.09818C40.4326 9.11082 40.4743 9.11706 40.5155 9.1248C40.539 9.12925 40.561 9.13719 40.5851 9.13997C40.5863 9.14009 40.5874 9.13988 40.5886 9.14001C40.5899 9.14016 40.591 9.14067 40.5923 9.14079C40.6176 9.1437 40.642 9.14088 40.667 9.14183C40.6682 9.14171 40.6694 9.14128 40.6706 9.14115C40.6742 9.14126 40.6778 9.14124 40.6814 9.1413ZM41.5437 8.04717C41.5437 8.04746 41.5435 8.04772 41.5435 8.04801C41.5434 8.04835 41.5436 8.04863 41.5435 8.04897C41.5435 8.04956 41.5431 8.05001 41.543 8.0506C41.543 8.05033 41.5429 8.0501 41.5429 8.04984C41.5148 8.28086 41.3059 8.44646 41.0743 8.41984C41.0737 8.41978 41.0731 8.41972 41.0725 8.41963C41.0653 8.4188 41.0598 8.41437 41.0527 8.4132C41.0515 8.41335 41.0503 8.41337 41.0491 8.41352C41.0475 8.41324 41.0462 8.4124 41.0447 8.4121C40.8851 8.38162 40.7591 8.26826 40.7156 8.11918C40.7001 8.06658 40.6947 8.01009 40.7014 7.9522C40.7015 7.95161 40.7016 7.95099 40.7016 7.9504C40.7283 7.71785 40.9385 7.551 41.1711 7.57772C41.4036 7.60443 41.5705 7.81462 41.5437 8.04717Z" fill="#B8DEEB"/>
<path d="M37.5397 14.0294C37.9173 13.95 38.2933 13.8654 38.6586 13.7767C39.7046 13.523 40.6578 13.2364 41.2668 12.9427C40.7993 12.8645 40.3921 12.5795 40.1585 12.1671C40.0221 12.2998 39.8674 12.4121 39.699 12.5007C39.284 12.7236 38.8548 12.9189 38.4142 13.0854C37.1253 13.5912 35.8042 14.0107 34.4596 14.3411C34.3599 14.3674 34.2535 14.39 34.1511 14.4148C33.7589 14.5098 33.3532 14.5976 32.9336 14.678C32.9312 14.6785 32.929 14.679 32.9266 14.6795C33.8494 14.6603 34.7688 14.5607 35.6744 14.3818C35.9171 14.3411 36.168 14.2969 36.4237 14.2497C36.5803 14.2208 36.7389 14.1904 36.8982 14.1593C37.1111 14.1178 37.3254 14.0745 37.5397 14.0294Z" fill="#F9C27A"/>
<path d="M36.1353 13.3198C36.3484 13.2536 36.5567 13.1867 36.7596 13.1192C36.9767 13.0471 37.1869 12.9747 37.389 12.9026C37.7912 12.7592 38.1598 12.6176 38.4827 12.4832C39.0139 12.2622 39.4219 12.0614 39.6426 11.9082C39.7121 11.8613 39.8395 11.788 39.9835 11.6984C39.8961 11.2547 40.0036 10.7949 40.2787 10.4359C38.9855 10.3882 38.418 9.97865 37.949 9.43348C37.5664 8.98867 37.2492 8.4538 36.6589 7.94911C36.6526 7.94363 36.6457 7.94015 36.6392 7.93489C36.2856 7.64531 35.8411 7.66836 35.3694 8.01698C35.3736 8.01518 35.378 8.01465 35.3822 8.01295C35.6829 7.89158 36.0269 8.03103 36.1556 8.33048C36.2298 8.5031 36.2186 8.70056 36.1254 8.86373C35.1582 10.3031 34.6451 10.5886 33.3959 11.2617C33.2175 11.3581 33.0241 11.4625 32.8123 11.5792C32.6989 11.6417 32.5845 11.7055 32.4701 11.7692C31.5699 12.273 30.6412 12.8019 29.6888 13.188C29.5354 13.2507 29.3815 13.3097 29.2272 13.3644C29.5561 12.9817 29.9267 12.6419 30.3192 12.3261C30.9719 11.8004 31.6855 11.3416 32.3691 10.8636C33.0659 10.3761 33.5324 10.1039 33.9304 9.76698C33.9336 9.76433 33.9366 9.76146 33.9397 9.75879C33.9852 9.72008 34.0299 9.68058 34.0738 9.63968C34.2103 9.51248 34.3406 9.37165 34.472 9.20656C34.6249 9.0144 34.7799 8.78675 34.9474 8.50611C34.9874 8.43902 35.0277 8.37082 35.0694 8.29726C35.0704 8.2955 35.0713 8.29404 35.0723 8.29228C34.8623 8.51473 34.676 8.75841 34.5164 9.01938C34.4471 9.13036 34.3476 9.25193 34.2213 9.38302C33.6732 9.95216 32.6191 10.7007 31.3246 11.5401C30.665 11.9664 29.9598 12.3962 29.41 12.7894C28.3335 13.5592 27.8545 14.1884 29.4919 14.373C29.6565 14.3916 29.8424 14.4056 30.0512 14.4149C31.685 14.4924 34.1092 13.9487 36.1353 13.3198Z" fill="#FFE49F"/>
<path d="M40.3346 11.2554C40.2591 11.9131 40.731 12.5075 41.3887 12.5831C41.3893 12.5832 41.3899 12.5833 41.3905 12.5833C41.434 12.5883 41.4761 12.5848 41.5189 12.5851C41.5193 12.5851 41.5196 12.585 41.5199 12.585C41.5206 12.585 41.5213 12.585 41.522 12.585C42.1246 12.587 42.6461 12.1416 42.7165 11.5291C42.792 10.8714 42.3201 10.2769 41.6624 10.2013C41.0047 10.1257 40.4102 10.5977 40.3346 11.2554ZM42.1125 12.1316C41.7045 12.4547 41.112 12.3866 40.7879 11.9794C40.7475 11.9285 40.7133 11.8747 40.685 11.8188C40.6716 11.7923 40.6639 11.7641 40.6532 11.7367C40.6413 11.7065 40.6267 11.6771 40.6181 11.6462C40.6098 11.6162 40.6075 11.5855 40.6022 11.5551C40.5971 11.5257 40.589 11.4966 40.5867 11.4669C40.5845 11.4373 40.5879 11.4079 40.5884 11.3783C40.589 11.3476 40.5867 11.3167 40.5902 11.2862C40.5933 11.2593 40.6018 11.2333 40.6072 11.2067C40.6138 11.1742 40.6179 11.1412 40.628 11.1094C40.6366 11.082 40.6507 11.0563 40.6619 11.0296C40.6742 11.0003 40.6839 10.9701 40.6993 10.942C40.7141 10.9149 40.7343 10.8905 40.7519 10.8648C40.7692 10.8395 40.7837 10.8128 40.8036 10.7891C40.8237 10.7652 40.849 10.745 40.8717 10.7229C40.8944 10.7007 40.9145 10.6766 40.94 10.6564C40.9401 10.6563 40.9403 10.6562 40.9404 10.6561C40.9406 10.656 40.9407 10.6558 40.9408 10.6557C40.9672 10.6348 40.9962 10.62 41.0241 10.6024C41.0498 10.586 41.0743 10.5666 41.1011 10.553C41.1316 10.5376 41.1639 10.5282 41.1954 10.5164C41.2216 10.5065 41.2469 10.4935 41.2736 10.4861C41.3051 10.4773 41.3374 10.4746 41.3694 10.4692C41.6967 10.4141 42.0428 10.5295 42.2639 10.8077C42.5877 11.2151 42.5199 11.8078 42.1125 12.1316Z" fill="#B8DEEB"/>
<path d="M42.2639 10.8077C42.0428 10.5295 41.6967 10.4141 41.3694 10.4692C41.3374 10.4746 41.3051 10.4773 41.2737 10.4861C41.2469 10.4935 41.2216 10.5065 41.1955 10.5164C41.1639 10.5282 41.1316 10.5376 41.1011 10.553C41.0743 10.5666 41.0498 10.586 41.0241 10.6024C40.9963 10.62 40.9672 10.6348 40.9409 10.6557C40.9407 10.6558 40.9406 10.656 40.9404 10.6561C40.9403 10.6562 40.9401 10.6563 40.94 10.6564C40.9146 10.6766 40.8945 10.7007 40.8717 10.7229C40.849 10.745 40.8237 10.7652 40.8037 10.7891C40.7837 10.8128 40.7692 10.8395 40.752 10.8648C40.7344 10.8905 40.7141 10.9149 40.6993 10.942C40.6839 10.9701 40.6742 11.0003 40.6619 11.0296C40.6507 11.0563 40.6367 11.082 40.628 11.1094C40.618 11.1412 40.6138 11.1742 40.6072 11.2067C40.6018 11.2333 40.5934 11.2593 40.5902 11.2862C40.5867 11.3167 40.589 11.3476 40.5884 11.3783C40.5879 11.4079 40.5845 11.4373 40.5868 11.4669C40.589 11.4966 40.5971 11.5257 40.6022 11.5551C40.6075 11.5855 40.6099 11.6162 40.6182 11.6462C40.6267 11.6771 40.6414 11.7065 40.6532 11.7367C40.6639 11.7641 40.6716 11.7923 40.685 11.8188C40.7133 11.8747 40.7476 11.9285 40.7879 11.9794C41.1121 12.3866 41.7046 12.4547 42.1126 12.1317C42.52 11.8079 42.5877 11.2151 42.2639 10.8077ZM41.4627 12.1417C41.4542 12.1424 41.4457 12.1431 41.4371 12.1435C41.4282 12.1424 41.4201 12.1379 41.4112 12.1365C41.3541 12.1279 41.298 12.1133 41.2436 12.0916C41.2325 12.0871 41.2222 12.0815 41.2113 12.0763C41.149 12.048 41.0889 12.0135 41.0347 11.9675L42.1932 11.0478C42.3573 11.368 42.2733 11.7595 41.9922 11.9842C41.8376 12.1061 41.648 12.1567 41.4627 12.1417ZM40.8265 11.6658C40.8112 11.6265 40.7994 11.5867 40.791 11.5463C40.7887 11.5352 40.7858 11.5246 40.784 11.5135C40.7738 11.4503 40.7722 11.387 40.7779 11.3242C40.7791 11.3122 40.7808 11.3006 40.7825 11.2887C40.7915 11.2244 40.807 11.1613 40.8321 11.1012C40.8343 11.096 40.8373 11.0914 40.8396 11.0862C40.8672 11.0241 40.903 10.9655 40.9472 10.912C40.9487 10.9102 40.9493 10.9079 40.9508 10.9062C40.9516 10.9053 40.9525 10.9047 40.9533 10.9038C40.9843 10.8673 41.0183 10.8327 41.0569 10.8019C41.0964 10.7705 41.1385 10.7448 41.1819 10.7225C41.1891 10.7188 41.1966 10.7164 41.2039 10.7129C41.239 10.6962 41.2748 10.6819 41.3116 10.6709C41.323 10.6675 41.3346 10.6654 41.3461 10.6625C41.3795 10.6543 41.413 10.6479 41.447 10.6442C41.6449 10.623 41.8506 10.6781 42.0147 10.8167L40.8559 11.7382C40.8435 11.714 40.84 11.6877 40.8304 11.6627L40.8265 11.6658Z" fill="#18355E"/>
<path d="M42.0146 10.8167C41.8506 10.6781 41.6449 10.6229 41.447 10.6442C41.413 10.6478 41.3795 10.6542 41.3461 10.6625C41.3346 10.6653 41.323 10.6674 41.3116 10.6708C41.2748 10.6818 41.239 10.6962 41.2038 10.7129C41.1966 10.7163 41.189 10.7187 41.1819 10.7224C41.1384 10.7448 41.0963 10.7705 41.0569 10.8018C41.0183 10.8327 40.9843 10.8672 40.9532 10.9037C40.9525 10.9046 40.9516 10.9052 40.9508 10.9061C40.9493 10.9079 40.9487 10.9101 40.9472 10.9119C40.903 10.9654 40.8672 11.0241 40.8396 11.0862C40.8373 11.0913 40.8343 11.096 40.8321 11.1011C40.807 11.1612 40.7915 11.2243 40.7825 11.2886C40.7808 11.3006 40.7791 11.3121 40.7779 11.3241C40.7721 11.387 40.7737 11.4502 40.7839 11.5134C40.7857 11.5245 40.7887 11.5352 40.791 11.5462C40.7994 11.5867 40.8112 11.6264 40.8264 11.6657L40.8304 11.6626C40.84 11.6876 40.8435 11.714 40.8559 11.7382L42.0146 10.8167Z" fill="#B8DEEB"/>
<path d="M41.9922 11.9841C42.2733 11.7595 42.3573 11.3679 42.1932 11.0477L41.0346 11.9674C41.0889 12.0134 41.149 12.048 41.2112 12.0763C41.2221 12.0814 41.2325 12.087 41.2436 12.0916C41.298 12.1132 41.354 12.1278 41.4112 12.1364C41.42 12.1378 41.4282 12.1423 41.4371 12.1434C41.4457 12.143 41.4541 12.1423 41.4627 12.1417C41.6479 12.1566 41.8376 12.106 41.9922 11.9841Z" fill="#B8DEEB"/>
<path d="M41.1711 7.57776C40.9385 7.55104 40.7284 7.71789 40.7016 7.95044C40.7016 7.95103 40.7015 7.95164 40.7014 7.95224C40.6948 8.01013 40.7001 8.06661 40.7156 8.11922C40.7591 8.2683 40.8851 8.38166 41.0447 8.41214C41.0459 8.41201 41.0471 8.41199 41.0483 8.41184C41.0499 8.41212 41.0512 8.41299 41.0527 8.41324C41.0598 8.41441 41.0653 8.41884 41.0725 8.41967C41.0731 8.41975 41.0737 8.41982 41.0743 8.41988C41.3059 8.4465 41.5148 8.2809 41.5429 8.04988C41.543 8.0492 41.5434 8.04873 41.5435 8.04806C41.5435 8.04776 41.5437 8.0475 41.5437 8.04721C41.5705 7.81466 41.4036 7.60447 41.1711 7.57776Z" fill="#18355E"/>
<path d="M40.7273 2.83572C40.7381 2.84128 40.745 2.84482 40.7555 2.85019C40.7447 2.85087 40.7365 2.85125 40.7254 2.85197C41.8377 3.42067 40.9767 2.98966 41.3074 3.13388C41.3197 3.14026 41.3184 3.13961 41.3088 3.13447C41.3878 3.16896 41.5325 3.23519 41.7864 3.35474C43.5123 4.16109 44.6925 5.39971 45.0501 7.06014C45.061 7.11105 45.0674 7.16425 45.0767 7.21595C45.0926 7.30292 45.1099 7.38912 45.1212 7.47832C45.1358 7.59359 45.1441 7.71197 45.1512 7.83095C45.1529 7.8599 45.157 7.88767 45.1583 7.91686C45.1634 8.03618 45.162 8.15865 45.1596 8.28164C45.1589 8.31348 45.1608 8.34413 45.1596 8.37622C45.1563 8.46964 45.1463 8.56612 45.1385 8.66161C45.1329 8.72958 45.1307 8.79593 45.1228 8.86495C45.0848 9.17102 45.2855 9.44902 45.5784 9.51957C45.6063 9.52057 45.634 9.52146 45.6611 9.5187C45.6877 9.52136 45.7138 9.52134 45.7399 9.52051C46.0303 9.51122 46.2792 9.29398 46.3161 8.99659C46.4251 6.27909 45.1009 4.0524 42.5006 3.09809C41.7065 2.80725 41.5419 2.80481 40.7273 2.83572Z" fill="#D2E5EA"/>
<path d="M34.9501 8.50571C34.7819 8.78673 34.6265 9.01412 34.473 9.20647C34.3413 9.37152 34.2106 9.51246 34.0738 9.63969C34.0299 9.68058 33.9852 9.72008 33.9397 9.75879C33.9365 9.76147 33.9336 9.76433 33.9304 9.76698C33.5324 10.1039 33.0658 10.3762 32.3691 10.8636C31.6855 11.3416 30.9719 11.8004 30.3191 12.3261C29.9281 12.641 29.559 12.9798 29.2312 13.3612C29.3843 13.3076 29.5368 13.2496 29.6888 13.188C30.6411 12.8019 31.5699 12.273 32.47 11.7692C32.5858 11.7044 32.7015 11.6396 32.8163 11.576C33.0266 11.4605 33.2186 11.3572 33.3959 11.2617C34.6451 10.5886 35.1582 10.3031 36.1254 8.86373C36.2783 8.5696 36.1639 8.20715 35.8698 8.05419C35.6355 7.93231 35.3567 7.98144 35.1752 8.15834C35.1407 8.19201 35.1084 8.22864 35.082 8.27143L35.0818 8.27302L35.0808 8.28226C35.0361 8.36115 34.9929 8.43421 34.9501 8.50571Z" fill="white"/>
<path d="M49.7684 39.5278V39.6086H54.3237L55.251 33.7633H61.0155L61.9424 39.6086H66.4978V39.5278L64.2117 27.662L60.572 8.77002H55.7346L52.4938 25.4774L49.7684 39.5278ZM58.1131 15.9455L59.8838 26.8552L60.3704 29.8531H55.8554L56.4461 26.2143L58.1131 15.9455Z" fill="#18355E"/>
<path d="M73.3908 8.81042H68.9563V39.6086H73.3908V8.81042Z" fill="#18355E"/>
<path d="M87.5401 19.6543C87.3246 19.6543 87.0898 19.6679 86.8349 19.6943C86.579 19.7215 86.3309 19.7619 86.0889 19.8155L81.2515 20.4604V19.7347H76.7366V46.8646H81.2515V39.6086H85.8472C87.1634 39.6086 88.1853 39.2458 88.9109 38.5201C89.6366 37.7945 89.9994 36.8269 89.9994 35.6176V22.0728C89.9994 20.4604 89.1791 19.6543 87.5401 19.6543ZM85.4844 34.368C85.4844 34.8788 85.3765 35.2548 85.1617 35.4968C84.9465 35.7385 84.5704 35.8596 84.0332 35.8596H81.2515V23.5644L85.4844 23.4837V34.368Z" fill="#18355E"/>
<path d="M103.987 19.6544C103.772 19.6544 103.537 19.6679 103.282 19.6944C103.026 19.7216 102.778 19.762 102.536 19.8156L97.6985 20.4604V8.81042H93.1836V39.6086H97.6985V23.5645L101.931 23.4837V39.6086H106.446V22.0729C106.446 20.4604 105.626 19.6544 103.987 19.6544Z" fill="#18355E"/>
<path d="M119.991 19.7347H112.372C110.679 19.7347 109.832 20.5551 109.832 22.194V25.9025H113.904V23.0808H118.217V27.6358H112.13C110.437 27.6358 109.59 28.4561 109.59 30.095V37.2705C109.59 38.8829 110.41 39.6893 112.049 39.6893C112.264 39.6893 112.473 39.6754 112.674 39.649C112.876 39.6218 113.124 39.5821 113.42 39.5278L118.177 38.9233V39.6086H122.49V22.194C122.49 20.5551 121.657 19.7347 119.991 19.7347ZM118.217 36.0208L113.904 36.1821V30.6995H118.217V36.0208Z" fill="#18355E"/>
<path d="M134.987 25.7009H125.594V29.8127H134.987V25.7009Z" fill="#18355E"/>
<path d="M151.111 8.81042H141.114C139.286 8.81042 138.373 9.75122 138.373 11.6321V36.7869C138.373 38.6682 139.286 39.6086 141.114 39.6086H151.111C151.998 39.6086 152.683 39.3666 153.167 38.883C153.651 38.3994 153.893 37.7009 153.893 36.7869V11.6321C153.893 10.7188 153.651 10.0197 153.167 9.53605C152.683 9.05208 151.998 8.81042 151.111 8.81042ZM149.297 35.6985H142.968V12.7206H149.297V35.6985Z" fill="#18355E"/>
<path d="M176.864 19.6543C176.649 19.6543 176.413 19.6679 176.157 19.6943C175.901 19.7215 175.652 19.7619 175.41 19.8155L170.198 20.5411L170.076 20.3395C169.941 20.1783 169.712 20.0239 169.389 19.8759C169.066 19.7286 168.662 19.6543 168.177 19.6543C167.962 19.6543 167.712 19.6679 167.429 19.6944C167.147 19.7215 166.871 19.7619 166.601 19.8155L161.874 20.4604V19.7347H157.359V39.6086H161.874V23.5644L166.107 23.4837V39.6086H170.622V23.5644L174.814 23.4837V39.6086H179.329V22.0728C179.329 20.4604 178.507 19.6543 176.864 19.6543Z" fill="#18355E"/>
<path d="M192.833 19.7347H185.053C183.36 19.7347 182.513 20.5551 182.513 22.194V37.1497C182.513 38.7889 183.36 39.6086 185.053 39.6086H192.833C194.526 39.6086 195.373 38.7889 195.373 37.1497V32.9975H191.06V36.3029H186.827V30.7399H194.123L195.373 29.4903V22.194C195.373 20.5551 194.526 19.7347 192.833 19.7347ZM191.06 27.797H186.827V23.0404H191.06V27.797Z" fill="#18355E"/>
<path d="M207.305 20.4604L203.894 19.8155C203.627 19.7619 203.346 19.7215 203.051 19.6943C202.758 19.6679 202.477 19.6543 202.209 19.6543C201.085 19.6543 200.203 19.9767 199.561 20.6216C198.918 21.2668 198.598 22.1675 198.598 23.3225V35.4968C198.598 36.7061 198.959 37.6737 199.681 38.3993C200.403 39.1249 201.406 39.4877 202.691 39.4877H207.305V43.5995H203.314V41.221H198.96V44.4055C198.96 46.0443 199.807 46.8646 201.5 46.8646H209.292C210.977 46.8646 211.82 46.0443 211.82 44.4055V19.7347H207.305V20.4604ZM207.305 35.8596H204.576C203.6 35.8596 203.113 35.3624 203.113 34.368V24.8545C203.113 23.8869 203.587 23.4032 204.537 23.4032H204.991C205.162 23.4032 205.314 23.4171 205.446 23.4436L207.305 23.6449L207.305 35.8596Z" fill="#18355E"/>
<path d="M225.405 19.7347H217.786C216.093 19.7347 215.246 20.5551 215.246 22.194V25.9025H219.318V23.0808H223.631V27.6358H217.544C215.851 27.6358 215.005 28.4561 215.005 30.095V37.2705C215.005 38.8829 215.824 39.6893 217.463 39.6893C217.678 39.6893 217.887 39.6754 218.088 39.649C218.29 39.6218 218.538 39.5821 218.834 39.5278L223.591 38.9233V39.6086H227.904V22.194C227.904 20.5551 227.071 19.7347 225.405 19.7347ZM223.631 36.0208L219.318 36.1821V30.6995H223.631V36.0208Z" fill="#18355E"/>
</g>
<defs>
<clipPath id="clip0_215_13230">
<rect width="227.904" height="53" fill="white"/>
</clipPath>
</defs>
</svg>
