<?xml version="1.0" encoding="utf-8" standalone="no"?>
<!DOCTYPE svg PUBLIC "-//W3C//DTD SVG 1.1//EN"
  "http://www.w3.org/Graphics/SVG/1.1/DTD/svg11.dtd">
<svg xmlns:xlink="http://www.w3.org/1999/xlink" width="720pt" height="288pt" viewBox="0 0 720 288" xmlns="http://www.w3.org/2000/svg" version="1.1">
 <metadata>
  <rdf:RDF xmlns:dc="http://purl.org/dc/elements/1.1/" xmlns:cc="http://creativecommons.org/ns#" xmlns:rdf="http://www.w3.org/1999/02/22-rdf-syntax-ns#">
   <cc:Work>
    <dc:type rdf:resource="http://purl.org/dc/dcmitype/StillImage"/>
    <dc:date>2023-09-14T10:02:37.021226</dc:date>
    <dc:format>image/svg+xml</dc:format>
    <dc:creator>
     <cc:Agent>
      <dc:title>Matplotlib v3.7.2, https://matplotlib.org/</dc:title>
     </cc:Agent>
    </dc:creator>
   </cc:Work>
  </rdf:RDF>
 </metadata>
 <defs>
  <style type="text/css">*{stroke-linejoin: round; stroke-linecap: butt}</style>
 </defs>
 <g id="figure_1">
  <g id="patch_1">
   <path d="M 0 288 
L 720 288 
L 720 0 
L 0 0 
z
" style="fill: #ffffff"/>
  </g>
  <g id="axes_1">
   <g id="patch_2">
    <path d="M 107.75 256.108333 
L 599.96875 256.108333 
L 599.96875 21.2 
L 107.75 21.2 
z
" style="fill: #ffffff"/>
   </g>
   <g id="matplotlib.axis_1">
    <g id="xtick_1">
     <g id="line2d_1">
      <path d="M 148.768229 256.108333 
L 148.768229 21.2 
" clip-path="url(#p690959ec05)" style="fill: none; stroke: #b0b0b0; stroke-width: 0.8; stroke-linecap: square"/>
     </g>
     <g id="line2d_2">
      <defs>
       <path id="m63b9318bf8" d="M 0 0 
L 0 3.5 
" style="stroke: #000000; stroke-width: 0.8"/>
      </defs>
      <g>
       <use xlink:href="#m63b9318bf8" x="148.768229" y="256.108333" style="stroke: #000000; stroke-width: 0.8"/>
      </g>
     </g>
     <g id="text_1">
      <!-- 1 -->
      <g transform="translate(151.527604 269.470833) rotate(-90) scale(0.1 -0.1)">
       <defs>
        <path id="DejaVuSans-31" d="M 794 531 
L 1825 531 
L 1825 4091 
L 703 3866 
L 703 4441 
L 1819 4666 
L 2450 4666 
L 2450 531 
L 3481 531 
L 3481 0 
L 794 0 
L 794 531 
z
" transform="scale(0.015625)"/>
       </defs>
       <use xlink:href="#DejaVuSans-31"/>
      </g>
     </g>
    </g>
    <g id="xtick_2">
     <g id="line2d_3">
      <path d="M 230.804688 256.108333 
L 230.804688 21.2 
" clip-path="url(#p690959ec05)" style="fill: none; stroke: #b0b0b0; stroke-width: 0.8; stroke-linecap: square"/>
     </g>
     <g id="line2d_4">
      <g>
       <use xlink:href="#m63b9318bf8" x="230.804688" y="256.108333" style="stroke: #000000; stroke-width: 0.8"/>
      </g>
     </g>
     <g id="text_2">
      <!-- 2 -->
      <g transform="translate(233.564063 269.470833) rotate(-90) scale(0.1 -0.1)">
       <defs>
        <path id="DejaVuSans-32" d="M 1228 531 
L 3431 531 
L 3431 0 
L 469 0 
L 469 531 
Q 828 903 1448 1529 
Q 2069 2156 2228 2338 
Q 2531 2678 2651 2914 
Q 2772 3150 2772 3378 
Q 2772 3750 2511 3984 
Q 2250 4219 1831 4219 
Q 1534 4219 1204 4116 
Q 875 4013 500 3803 
L 500 4441 
Q 881 4594 1212 4672 
Q 1544 4750 1819 4750 
Q 2544 4750 2975 4387 
Q 3406 4025 3406 3419 
Q 3406 3131 3298 2873 
Q 3191 2616 2906 2266 
Q 2828 2175 2409 1742 
Q 1991 1309 1228 531 
z
" transform="scale(0.015625)"/>
       </defs>
       <use xlink:href="#DejaVuSans-32"/>
      </g>
     </g>
    </g>
    <g id="xtick_3">
     <g id="line2d_5">
      <path d="M 312.841146 256.108333 
L 312.841146 21.2 
" clip-path="url(#p690959ec05)" style="fill: none; stroke: #b0b0b0; stroke-width: 0.8; stroke-linecap: square"/>
     </g>
     <g id="line2d_6">
      <g>
       <use xlink:href="#m63b9318bf8" x="312.841146" y="256.108333" style="stroke: #000000; stroke-width: 0.8"/>
      </g>
     </g>
     <g id="text_3">
      <!-- 3 -->
      <g transform="translate(315.600521 269.470833) rotate(-90) scale(0.1 -0.1)">
       <defs>
        <path id="DejaVuSans-33" d="M 2597 2516 
Q 3050 2419 3304 2112 
Q 3559 1806 3559 1356 
Q 3559 666 3084 287 
Q 2609 -91 1734 -91 
Q 1441 -91 1130 -33 
Q 819 25 488 141 
L 488 750 
Q 750 597 1062 519 
Q 1375 441 1716 441 
Q 2309 441 2620 675 
Q 2931 909 2931 1356 
Q 2931 1769 2642 2001 
Q 2353 2234 1838 2234 
L 1294 2234 
L 1294 2753 
L 1863 2753 
Q 2328 2753 2575 2939 
Q 2822 3125 2822 3475 
Q 2822 3834 2567 4026 
Q 2313 4219 1838 4219 
Q 1578 4219 1281 4162 
Q 984 4106 628 3988 
L 628 4550 
Q 988 4650 1302 4700 
Q 1616 4750 1894 4750 
Q 2613 4750 3031 4423 
Q 3450 4097 3450 3541 
Q 3450 3153 3228 2886 
Q 3006 2619 2597 2516 
z
" transform="scale(0.015625)"/>
       </defs>
       <use xlink:href="#DejaVuSans-33"/>
      </g>
     </g>
    </g>
    <g id="xtick_4">
     <g id="line2d_7">
      <path d="M 394.877604 256.108333 
L 394.877604 21.2 
" clip-path="url(#p690959ec05)" style="fill: none; stroke: #b0b0b0; stroke-width: 0.8; stroke-linecap: square"/>
     </g>
     <g id="line2d_8">
      <g>
       <use xlink:href="#m63b9318bf8" x="394.877604" y="256.108333" style="stroke: #000000; stroke-width: 0.8"/>
      </g>
     </g>
     <g id="text_4">
      <!-- 4 -->
      <g transform="translate(397.636979 269.470833) rotate(-90) scale(0.1 -0.1)">
       <defs>
        <path id="DejaVuSans-34" d="M 2419 4116 
L 825 1625 
L 2419 1625 
L 2419 4116 
z
M 2253 4666 
L 3047 4666 
L 3047 1625 
L 3713 1625 
L 3713 1100 
L 3047 1100 
L 3047 0 
L 2419 0 
L 2419 1100 
L 313 1100 
L 313 1709 
L 2253 4666 
z
" transform="scale(0.015625)"/>
       </defs>
       <use xlink:href="#DejaVuSans-34"/>
      </g>
     </g>
    </g>
    <g id="xtick_5">
     <g id="line2d_9">
      <path d="M 476.914063 256.108333 
L 476.914063 21.2 
" clip-path="url(#p690959ec05)" style="fill: none; stroke: #b0b0b0; stroke-width: 0.8; stroke-linecap: square"/>
     </g>
     <g id="line2d_10">
      <g>
       <use xlink:href="#m63b9318bf8" x="476.914063" y="256.108333" style="stroke: #000000; stroke-width: 0.8"/>
      </g>
     </g>
     <g id="text_5">
      <!-- 5 -->
      <g transform="translate(479.673438 269.470833) rotate(-90) scale(0.1 -0.1)">
       <defs>
        <path id="DejaVuSans-35" d="M 691 4666 
L 3169 4666 
L 3169 4134 
L 1269 4134 
L 1269 2991 
Q 1406 3038 1543 3061 
Q 1681 3084 1819 3084 
Q 2600 3084 3056 2656 
Q 3513 2228 3513 1497 
Q 3513 744 3044 326 
Q 2575 -91 1722 -91 
Q 1428 -91 1123 -41 
Q 819 9 494 109 
L 494 744 
Q 775 591 1075 516 
Q 1375 441 1709 441 
Q 2250 441 2565 725 
Q 2881 1009 2881 1497 
Q 2881 1984 2565 2268 
Q 2250 2553 1709 2553 
Q 1456 2553 1204 2497 
Q 953 2441 691 2322 
L 691 4666 
z
" transform="scale(0.015625)"/>
       </defs>
       <use xlink:href="#DejaVuSans-35"/>
      </g>
     </g>
    </g>
    <g id="xtick_6">
     <g id="line2d_11">
      <path d="M 558.950521 256.108333 
L 558.950521 21.2 
" clip-path="url(#p690959ec05)" style="fill: none; stroke: #b0b0b0; stroke-width: 0.8; stroke-linecap: square"/>
     </g>
     <g id="line2d_12">
      <g>
       <use xlink:href="#m63b9318bf8" x="558.950521" y="256.108333" style="stroke: #000000; stroke-width: 0.8"/>
      </g>
     </g>
     <g id="text_6">
      <!-- 6 -->
      <g transform="translate(561.709896 269.470833) rotate(-90) scale(0.1 -0.1)">
       <defs>
        <path id="DejaVuSans-36" d="M 2113 2584 
Q 1688 2584 1439 2293 
Q 1191 2003 1191 1497 
Q 1191 994 1439 701 
Q 1688 409 2113 409 
Q 2538 409 2786 701 
Q 3034 994 3034 1497 
Q 3034 2003 2786 2293 
Q 2538 2584 2113 2584 
z
M 3366 4563 
L 3366 3988 
Q 3128 4100 2886 4159 
Q 2644 4219 2406 4219 
Q 1781 4219 1451 3797 
Q 1122 3375 1075 2522 
Q 1259 2794 1537 2939 
Q 1816 3084 2150 3084 
Q 2853 3084 3261 2657 
Q 3669 2231 3669 1497 
Q 3669 778 3244 343 
Q 2819 -91 2113 -91 
Q 1303 -91 875 529 
Q 447 1150 447 2328 
Q 447 3434 972 4092 
Q 1497 4750 2381 4750 
Q 2619 4750 2861 4703 
Q 3103 4656 3366 4563 
z
" transform="scale(0.015625)"/>
       </defs>
       <use xlink:href="#DejaVuSans-36"/>
      </g>
     </g>
    </g>
    <g id="text_7">
     <!-- Jobs -->
     <g transform="translate(343.546094 281.069271) scale(0.1 -0.1)">
      <defs>
       <path id="DejaVuSans-4a" d="M 628 4666 
L 1259 4666 
L 1259 325 
Q 1259 -519 939 -900 
Q 619 -1281 -91 -1281 
L -331 -1281 
L -331 -750 
L -134 -750 
Q 284 -750 456 -515 
Q 628 -281 628 325 
L 628 4666 
z
" transform="scale(0.015625)"/>
       <path id="DejaVuSans-6f" d="M 1959 3097 
Q 1497 3097 1228 2736 
Q 959 2375 959 1747 
Q 959 1119 1226 758 
Q 1494 397 1959 397 
Q 2419 397 2687 759 
Q 2956 1122 2956 1747 
Q 2956 2369 2687 2733 
Q 2419 3097 1959 3097 
z
M 1959 3584 
Q 2709 3584 3137 3096 
Q 3566 2609 3566 1747 
Q 3566 888 3137 398 
Q 2709 -91 1959 -91 
Q 1206 -91 779 398 
Q 353 888 353 1747 
Q 353 2609 779 3096 
Q 1206 3584 1959 3584 
z
" transform="scale(0.015625)"/>
       <path id="DejaVuSans-62" d="M 3116 1747 
Q 3116 2381 2855 2742 
Q 2594 3103 2138 3103 
Q 1681 3103 1420 2742 
Q 1159 2381 1159 1747 
Q 1159 1113 1420 752 
Q 1681 391 2138 391 
Q 2594 391 2855 752 
Q 3116 1113 3116 1747 
z
M 1159 2969 
Q 1341 3281 1617 3432 
Q 1894 3584 2278 3584 
Q 2916 3584 3314 3078 
Q 3713 2572 3713 1747 
Q 3713 922 3314 415 
Q 2916 -91 2278 -91 
Q 1894 -91 1617 61 
Q 1341 213 1159 525 
L 1159 0 
L 581 0 
L 581 4863 
L 1159 4863 
L 1159 2969 
z
" transform="scale(0.015625)"/>
       <path id="DejaVuSans-73" d="M 2834 3397 
L 2834 2853 
Q 2591 2978 2328 3040 
Q 2066 3103 1784 3103 
Q 1356 3103 1142 2972 
Q 928 2841 928 2578 
Q 928 2378 1081 2264 
Q 1234 2150 1697 2047 
L 1894 2003 
Q 2506 1872 2764 1633 
Q 3022 1394 3022 966 
Q 3022 478 2636 193 
Q 2250 -91 1575 -91 
Q 1294 -91 989 -36 
Q 684 19 347 128 
L 347 722 
Q 666 556 975 473 
Q 1284 391 1588 391 
Q 1994 391 2212 530 
Q 2431 669 2431 922 
Q 2431 1156 2273 1281 
Q 2116 1406 1581 1522 
L 1381 1569 
Q 847 1681 609 1914 
Q 372 2147 372 2553 
Q 372 3047 722 3315 
Q 1072 3584 1716 3584 
Q 2034 3584 2315 3537 
Q 2597 3491 2834 3397 
z
" transform="scale(0.015625)"/>
      </defs>
      <use xlink:href="#DejaVuSans-4a"/>
      <use xlink:href="#DejaVuSans-6f" x="29.492188"/>
      <use xlink:href="#DejaVuSans-62" x="90.673828"/>
      <use xlink:href="#DejaVuSans-73" x="154.150391"/>
     </g>
    </g>
   </g>
   <g id="matplotlib.axis_2">
    <g id="ytick_1">
     <g id="line2d_13">
      <path d="M 107.75 243.97866 
L 599.96875 243.97866 
" clip-path="url(#p690959ec05)" style="fill: none; stroke: #b0b0b0; stroke-width: 0.8; stroke-linecap: square"/>
     </g>
     <g id="line2d_14">
      <defs>
       <path id="mb98853cb26" d="M 0 0 
L -3.5 0 
" style="stroke: #000000; stroke-width: 0.8"/>
      </defs>
      <g>
       <use xlink:href="#mb98853cb26" x="107.75" y="243.97866" style="stroke: #000000; stroke-width: 0.8"/>
      </g>
     </g>
     <g id="text_8">
      <!-- −0.025 -->
      <g transform="translate(63.742188 247.777878) scale(0.1 -0.1)">
       <defs>
        <path id="DejaVuSans-2212" d="M 678 2272 
L 4684 2272 
L 4684 1741 
L 678 1741 
L 678 2272 
z
" transform="scale(0.015625)"/>
        <path id="DejaVuSans-30" d="M 2034 4250 
Q 1547 4250 1301 3770 
Q 1056 3291 1056 2328 
Q 1056 1369 1301 889 
Q 1547 409 2034 409 
Q 2525 409 2770 889 
Q 3016 1369 3016 2328 
Q 3016 3291 2770 3770 
Q 2525 4250 2034 4250 
z
M 2034 4750 
Q 2819 4750 3233 4129 
Q 3647 3509 3647 2328 
Q 3647 1150 3233 529 
Q 2819 -91 2034 -91 
Q 1250 -91 836 529 
Q 422 1150 422 2328 
Q 422 3509 836 4129 
Q 1250 4750 2034 4750 
z
" transform="scale(0.015625)"/>
        <path id="DejaVuSans-2e" d="M 684 794 
L 1344 794 
L 1344 0 
L 684 0 
L 684 794 
z
" transform="scale(0.015625)"/>
       </defs>
       <use xlink:href="#DejaVuSans-2212"/>
       <use xlink:href="#DejaVuSans-30" x="83.789062"/>
       <use xlink:href="#DejaVuSans-2e" x="147.412109"/>
       <use xlink:href="#DejaVuSans-30" x="179.199219"/>
       <use xlink:href="#DejaVuSans-32" x="242.822266"/>
       <use xlink:href="#DejaVuSans-35" x="306.445312"/>
      </g>
     </g>
    </g>
    <g id="ytick_2">
     <g id="line2d_15">
      <path d="M 107.75 212.788964 
L 599.96875 212.788964 
" clip-path="url(#p690959ec05)" style="fill: none; stroke: #b0b0b0; stroke-width: 0.8; stroke-linecap: square"/>
     </g>
     <g id="line2d_16">
      <g>
       <use xlink:href="#mb98853cb26" x="107.75" y="212.788964" style="stroke: #000000; stroke-width: 0.8"/>
      </g>
     </g>
     <g id="text_9">
      <!-- 0.000 -->
      <g transform="translate(72.121875 216.588182) scale(0.1 -0.1)">
       <use xlink:href="#DejaVuSans-30"/>
       <use xlink:href="#DejaVuSans-2e" x="63.623047"/>
       <use xlink:href="#DejaVuSans-30" x="95.410156"/>
       <use xlink:href="#DejaVuSans-30" x="159.033203"/>
       <use xlink:href="#DejaVuSans-30" x="222.65625"/>
      </g>
     </g>
    </g>
    <g id="ytick_3">
     <g id="line2d_17">
      <path d="M 107.75 181.599267 
L 599.96875 181.599267 
" clip-path="url(#p690959ec05)" style="fill: none; stroke: #b0b0b0; stroke-width: 0.8; stroke-linecap: square"/>
     </g>
     <g id="line2d_18">
      <g>
       <use xlink:href="#mb98853cb26" x="107.75" y="181.599267" style="stroke: #000000; stroke-width: 0.8"/>
      </g>
     </g>
     <g id="text_10">
      <!-- 0.025 -->
      <g transform="translate(72.121875 185.398486) scale(0.1 -0.1)">
       <use xlink:href="#DejaVuSans-30"/>
       <use xlink:href="#DejaVuSans-2e" x="63.623047"/>
       <use xlink:href="#DejaVuSans-30" x="95.410156"/>
       <use xlink:href="#DejaVuSans-32" x="159.033203"/>
       <use xlink:href="#DejaVuSans-35" x="222.65625"/>
      </g>
     </g>
    </g>
    <g id="ytick_4">
     <g id="line2d_19">
      <path d="M 107.75 150.409571 
L 599.96875 150.409571 
" clip-path="url(#p690959ec05)" style="fill: none; stroke: #b0b0b0; stroke-width: 0.8; stroke-linecap: square"/>
     </g>
     <g id="line2d_20">
      <g>
       <use xlink:href="#mb98853cb26" x="107.75" y="150.409571" style="stroke: #000000; stroke-width: 0.8"/>
      </g>
     </g>
     <g id="text_11">
      <!-- 0.050 -->
      <g transform="translate(72.121875 154.20879) scale(0.1 -0.1)">
       <use xlink:href="#DejaVuSans-30"/>
       <use xlink:href="#DejaVuSans-2e" x="63.623047"/>
       <use xlink:href="#DejaVuSans-30" x="95.410156"/>
       <use xlink:href="#DejaVuSans-35" x="159.033203"/>
       <use xlink:href="#DejaVuSans-30" x="222.65625"/>
      </g>
     </g>
    </g>
    <g id="ytick_5">
     <g id="line2d_21">
      <path d="M 107.75 119.219875 
L 599.96875 119.219875 
" clip-path="url(#p690959ec05)" style="fill: none; stroke: #b0b0b0; stroke-width: 0.8; stroke-linecap: square"/>
     </g>
     <g id="line2d_22">
      <g>
       <use xlink:href="#mb98853cb26" x="107.75" y="119.219875" style="stroke: #000000; stroke-width: 0.8"/>
      </g>
     </g>
     <g id="text_12">
      <!-- 0.075 -->
      <g transform="translate(72.121875 123.019094) scale(0.1 -0.1)">
       <defs>
        <path id="DejaVuSans-37" d="M 525 4666 
L 3525 4666 
L 3525 4397 
L 1831 0 
L 1172 0 
L 2766 4134 
L 525 4134 
L 525 4666 
z
" transform="scale(0.015625)"/>
       </defs>
       <use xlink:href="#DejaVuSans-30"/>
       <use xlink:href="#DejaVuSans-2e" x="63.623047"/>
       <use xlink:href="#DejaVuSans-30" x="95.410156"/>
       <use xlink:href="#DejaVuSans-37" x="159.033203"/>
       <use xlink:href="#DejaVuSans-35" x="222.65625"/>
      </g>
     </g>
    </g>
    <g id="ytick_6">
     <g id="line2d_23">
      <path d="M 107.75 88.030179 
L 599.96875 88.030179 
" clip-path="url(#p690959ec05)" style="fill: none; stroke: #b0b0b0; stroke-width: 0.8; stroke-linecap: square"/>
     </g>
     <g id="line2d_24">
      <g>
       <use xlink:href="#mb98853cb26" x="107.75" y="88.030179" style="stroke: #000000; stroke-width: 0.8"/>
      </g>
     </g>
     <g id="text_13">
      <!-- 0.100 -->
      <g transform="translate(72.121875 91.829398) scale(0.1 -0.1)">
       <use xlink:href="#DejaVuSans-30"/>
       <use xlink:href="#DejaVuSans-2e" x="63.623047"/>
       <use xlink:href="#DejaVuSans-31" x="95.410156"/>
       <use xlink:href="#DejaVuSans-30" x="159.033203"/>
       <use xlink:href="#DejaVuSans-30" x="222.65625"/>
      </g>
     </g>
    </g>
    <g id="ytick_7">
     <g id="line2d_25">
      <path d="M 107.75 56.840483 
L 599.96875 56.840483 
" clip-path="url(#p690959ec05)" style="fill: none; stroke: #b0b0b0; stroke-width: 0.8; stroke-linecap: square"/>
     </g>
     <g id="line2d_26">
      <g>
       <use xlink:href="#mb98853cb26" x="107.75" y="56.840483" style="stroke: #000000; stroke-width: 0.8"/>
      </g>
     </g>
     <g id="text_14">
      <!-- 0.125 -->
      <g transform="translate(72.121875 60.639702) scale(0.1 -0.1)">
       <use xlink:href="#DejaVuSans-30"/>
       <use xlink:href="#DejaVuSans-2e" x="63.623047"/>
       <use xlink:href="#DejaVuSans-31" x="95.410156"/>
       <use xlink:href="#DejaVuSans-32" x="159.033203"/>
       <use xlink:href="#DejaVuSans-35" x="222.65625"/>
      </g>
     </g>
    </g>
    <g id="ytick_8">
     <g id="line2d_27">
      <path d="M 107.75 25.650787 
L 599.96875 25.650787 
" clip-path="url(#p690959ec05)" style="fill: none; stroke: #b0b0b0; stroke-width: 0.8; stroke-linecap: square"/>
     </g>
     <g id="line2d_28">
      <g>
       <use xlink:href="#mb98853cb26" x="107.75" y="25.650787" style="stroke: #000000; stroke-width: 0.8"/>
      </g>
     </g>
     <g id="text_15">
      <!-- 0.150 -->
      <g transform="translate(72.121875 29.450006) scale(0.1 -0.1)">
       <use xlink:href="#DejaVuSans-30"/>
       <use xlink:href="#DejaVuSans-2e" x="63.623047"/>
       <use xlink:href="#DejaVuSans-31" x="95.410156"/>
       <use xlink:href="#DejaVuSans-35" x="159.033203"/>
       <use xlink:href="#DejaVuSans-30" x="222.65625"/>
      </g>
     </g>
    </g>
    <g id="text_16">
     <!-- Relative IOPS Rust/C -->
     <g transform="translate(57.6625 189.754948) rotate(-90) scale(0.1 -0.1)">
      <defs>
       <path id="DejaVuSans-52" d="M 2841 2188 
Q 3044 2119 3236 1894 
Q 3428 1669 3622 1275 
L 4263 0 
L 3584 0 
L 2988 1197 
Q 2756 1666 2539 1819 
Q 2322 1972 1947 1972 
L 1259 1972 
L 1259 0 
L 628 0 
L 628 4666 
L 2053 4666 
Q 2853 4666 3247 4331 
Q 3641 3997 3641 3322 
Q 3641 2881 3436 2590 
Q 3231 2300 2841 2188 
z
M 1259 4147 
L 1259 2491 
L 2053 2491 
Q 2509 2491 2742 2702 
Q 2975 2913 2975 3322 
Q 2975 3731 2742 3939 
Q 2509 4147 2053 4147 
L 1259 4147 
z
" transform="scale(0.015625)"/>
       <path id="DejaVuSans-65" d="M 3597 1894 
L 3597 1613 
L 953 1613 
Q 991 1019 1311 708 
Q 1631 397 2203 397 
Q 2534 397 2845 478 
Q 3156 559 3463 722 
L 3463 178 
Q 3153 47 2828 -22 
Q 2503 -91 2169 -91 
Q 1331 -91 842 396 
Q 353 884 353 1716 
Q 353 2575 817 3079 
Q 1281 3584 2069 3584 
Q 2775 3584 3186 3129 
Q 3597 2675 3597 1894 
z
M 3022 2063 
Q 3016 2534 2758 2815 
Q 2500 3097 2075 3097 
Q 1594 3097 1305 2825 
Q 1016 2553 972 2059 
L 3022 2063 
z
" transform="scale(0.015625)"/>
       <path id="DejaVuSans-6c" d="M 603 4863 
L 1178 4863 
L 1178 0 
L 603 0 
L 603 4863 
z
" transform="scale(0.015625)"/>
       <path id="DejaVuSans-61" d="M 2194 1759 
Q 1497 1759 1228 1600 
Q 959 1441 959 1056 
Q 959 750 1161 570 
Q 1363 391 1709 391 
Q 2188 391 2477 730 
Q 2766 1069 2766 1631 
L 2766 1759 
L 2194 1759 
z
M 3341 1997 
L 3341 0 
L 2766 0 
L 2766 531 
Q 2569 213 2275 61 
Q 1981 -91 1556 -91 
Q 1019 -91 701 211 
Q 384 513 384 1019 
Q 384 1609 779 1909 
Q 1175 2209 1959 2209 
L 2766 2209 
L 2766 2266 
Q 2766 2663 2505 2880 
Q 2244 3097 1772 3097 
Q 1472 3097 1187 3025 
Q 903 2953 641 2809 
L 641 3341 
Q 956 3463 1253 3523 
Q 1550 3584 1831 3584 
Q 2591 3584 2966 3190 
Q 3341 2797 3341 1997 
z
" transform="scale(0.015625)"/>
       <path id="DejaVuSans-74" d="M 1172 4494 
L 1172 3500 
L 2356 3500 
L 2356 3053 
L 1172 3053 
L 1172 1153 
Q 1172 725 1289 603 
Q 1406 481 1766 481 
L 2356 481 
L 2356 0 
L 1766 0 
Q 1100 0 847 248 
Q 594 497 594 1153 
L 594 3053 
L 172 3053 
L 172 3500 
L 594 3500 
L 594 4494 
L 1172 4494 
z
" transform="scale(0.015625)"/>
       <path id="DejaVuSans-69" d="M 603 3500 
L 1178 3500 
L 1178 0 
L 603 0 
L 603 3500 
z
M 603 4863 
L 1178 4863 
L 1178 4134 
L 603 4134 
L 603 4863 
z
" transform="scale(0.015625)"/>
       <path id="DejaVuSans-76" d="M 191 3500 
L 800 3500 
L 1894 563 
L 2988 3500 
L 3597 3500 
L 2284 0 
L 1503 0 
L 191 3500 
z
" transform="scale(0.015625)"/>
       <path id="DejaVuSans-20" transform="scale(0.015625)"/>
       <path id="DejaVuSans-49" d="M 628 4666 
L 1259 4666 
L 1259 0 
L 628 0 
L 628 4666 
z
" transform="scale(0.015625)"/>
       <path id="DejaVuSans-4f" d="M 2522 4238 
Q 1834 4238 1429 3725 
Q 1025 3213 1025 2328 
Q 1025 1447 1429 934 
Q 1834 422 2522 422 
Q 3209 422 3611 934 
Q 4013 1447 4013 2328 
Q 4013 3213 3611 3725 
Q 3209 4238 2522 4238 
z
M 2522 4750 
Q 3503 4750 4090 4092 
Q 4678 3434 4678 2328 
Q 4678 1225 4090 567 
Q 3503 -91 2522 -91 
Q 1538 -91 948 565 
Q 359 1222 359 2328 
Q 359 3434 948 4092 
Q 1538 4750 2522 4750 
z
" transform="scale(0.015625)"/>
       <path id="DejaVuSans-50" d="M 1259 4147 
L 1259 2394 
L 2053 2394 
Q 2494 2394 2734 2622 
Q 2975 2850 2975 3272 
Q 2975 3691 2734 3919 
Q 2494 4147 2053 4147 
L 1259 4147 
z
M 628 4666 
L 2053 4666 
Q 2838 4666 3239 4311 
Q 3641 3956 3641 3272 
Q 3641 2581 3239 2228 
Q 2838 1875 2053 1875 
L 1259 1875 
L 1259 0 
L 628 0 
L 628 4666 
z
" transform="scale(0.015625)"/>
       <path id="DejaVuSans-53" d="M 3425 4513 
L 3425 3897 
Q 3066 4069 2747 4153 
Q 2428 4238 2131 4238 
Q 1616 4238 1336 4038 
Q 1056 3838 1056 3469 
Q 1056 3159 1242 3001 
Q 1428 2844 1947 2747 
L 2328 2669 
Q 3034 2534 3370 2195 
Q 3706 1856 3706 1288 
Q 3706 609 3251 259 
Q 2797 -91 1919 -91 
Q 1588 -91 1214 -16 
Q 841 59 441 206 
L 441 856 
Q 825 641 1194 531 
Q 1563 422 1919 422 
Q 2459 422 2753 634 
Q 3047 847 3047 1241 
Q 3047 1584 2836 1778 
Q 2625 1972 2144 2069 
L 1759 2144 
Q 1053 2284 737 2584 
Q 422 2884 422 3419 
Q 422 4038 858 4394 
Q 1294 4750 2059 4750 
Q 2388 4750 2728 4690 
Q 3069 4631 3425 4513 
z
" transform="scale(0.015625)"/>
       <path id="DejaVuSans-75" d="M 544 1381 
L 544 3500 
L 1119 3500 
L 1119 1403 
Q 1119 906 1312 657 
Q 1506 409 1894 409 
Q 2359 409 2629 706 
Q 2900 1003 2900 1516 
L 2900 3500 
L 3475 3500 
L 3475 0 
L 2900 0 
L 2900 538 
Q 2691 219 2414 64 
Q 2138 -91 1772 -91 
Q 1169 -91 856 284 
Q 544 659 544 1381 
z
M 1991 3584 
L 1991 3584 
z
" transform="scale(0.015625)"/>
       <path id="DejaVuSans-2f" d="M 1625 4666 
L 2156 4666 
L 531 -594 
L 0 -594 
L 1625 4666 
z
" transform="scale(0.015625)"/>
       <path id="DejaVuSans-43" d="M 4122 4306 
L 4122 3641 
Q 3803 3938 3442 4084 
Q 3081 4231 2675 4231 
Q 1875 4231 1450 3742 
Q 1025 3253 1025 2328 
Q 1025 1406 1450 917 
Q 1875 428 2675 428 
Q 3081 428 3442 575 
Q 3803 722 4122 1019 
L 4122 359 
Q 3791 134 3420 21 
Q 3050 -91 2638 -91 
Q 1578 -91 968 557 
Q 359 1206 359 2328 
Q 359 3453 968 4101 
Q 1578 4750 2638 4750 
Q 3056 4750 3426 4639 
Q 3797 4528 4122 4306 
z
" transform="scale(0.015625)"/>
      </defs>
      <use xlink:href="#DejaVuSans-52"/>
      <use xlink:href="#DejaVuSans-65" x="64.982422"/>
      <use xlink:href="#DejaVuSans-6c" x="126.505859"/>
      <use xlink:href="#DejaVuSans-61" x="154.289062"/>
      <use xlink:href="#DejaVuSans-74" x="215.568359"/>
      <use xlink:href="#DejaVuSans-69" x="254.777344"/>
      <use xlink:href="#DejaVuSans-76" x="282.560547"/>
      <use xlink:href="#DejaVuSans-65" x="341.740234"/>
      <use xlink:href="#DejaVuSans-20" x="403.263672"/>
      <use xlink:href="#DejaVuSans-49" x="435.050781"/>
      <use xlink:href="#DejaVuSans-4f" x="464.542969"/>
      <use xlink:href="#DejaVuSans-50" x="543.253906"/>
      <use xlink:href="#DejaVuSans-53" x="603.556641"/>
      <use xlink:href="#DejaVuSans-20" x="667.033203"/>
      <use xlink:href="#DejaVuSans-52" x="698.820312"/>
      <use xlink:href="#DejaVuSans-75" x="763.802734"/>
      <use xlink:href="#DejaVuSans-73" x="827.181641"/>
      <use xlink:href="#DejaVuSans-74" x="879.28125"/>
      <use xlink:href="#DejaVuSans-2f" x="918.490234"/>
      <use xlink:href="#DejaVuSans-43" x="952.181641"/>
     </g>
    </g>
   </g>
   <g id="patch_3">
    <path d="M 128.259115 212.788964 
L 131.414363 212.788964 
L 131.414363 94.821591 
L 128.259115 94.821591 
z
" clip-path="url(#p690959ec05)" style="fill: #1f77b4"/>
   </g>
   <g id="patch_4">
    <path d="M 210.295573 212.788964 
L 213.450821 212.788964 
L 213.450821 31.877652 
L 210.295573 31.877652 
z
" clip-path="url(#p690959ec05)" style="fill: #1f77b4"/>
   </g>
   <g id="patch_5">
    <path d="M 292.332031 212.788964 
L 295.48728 212.788964 
L 295.48728 37.576401 
L 292.332031 37.576401 
z
" clip-path="url(#p690959ec05)" style="fill: #1f77b4"/>
   </g>
   <g id="patch_6">
    <path d="M 374.36849 212.788964 
L 377.523738 212.788964 
L 377.523738 58.7224 
L 374.36849 58.7224 
z
" clip-path="url(#p690959ec05)" style="fill: #1f77b4"/>
   </g>
   <g id="patch_7">
    <path d="M 456.404948 212.788964 
L 459.560196 212.788964 
L 459.560196 64.505105 
L 456.404948 64.505105 
z
" clip-path="url(#p690959ec05)" style="fill: #1f77b4"/>
   </g>
   <g id="patch_8">
    <path d="M 538.441406 212.788964 
L 541.596655 212.788964 
L 541.596655 59.828855 
L 538.441406 59.828855 
z
" clip-path="url(#p690959ec05)" style="fill: #1f77b4"/>
   </g>
   <g id="patch_9">
    <path d="M 131.414363 212.788964 
L 134.569611 212.788964 
L 134.569611 127.296957 
L 131.414363 127.296957 
z
" clip-path="url(#p690959ec05)" style="fill: #ff7f0e"/>
   </g>
   <g id="patch_10">
    <path d="M 213.450821 212.788964 
L 216.60607 212.788964 
L 216.60607 121.608722 
L 213.450821 121.608722 
z
" clip-path="url(#p690959ec05)" style="fill: #ff7f0e"/>
   </g>
   <g id="patch_11">
    <path d="M 295.48728 212.788964 
L 298.642528 212.788964 
L 298.642528 111.342359 
L 295.48728 111.342359 
z
" clip-path="url(#p690959ec05)" style="fill: #ff7f0e"/>
   </g>
   <g id="patch_12">
    <path d="M 377.523738 212.788964 
L 380.678986 212.788964 
L 380.678986 121.355195 
L 377.523738 121.355195 
z
" clip-path="url(#p690959ec05)" style="fill: #ff7f0e"/>
   </g>
   <g id="patch_13">
    <path d="M 459.560196 212.788964 
L 462.715445 212.788964 
L 462.715445 128.307671 
L 459.560196 128.307671 
z
" clip-path="url(#p690959ec05)" style="fill: #ff7f0e"/>
   </g>
   <g id="patch_14">
    <path d="M 541.596655 212.788964 
L 544.751903 212.788964 
L 544.751903 133.788464 
L 541.596655 133.788464 
z
" clip-path="url(#p690959ec05)" style="fill: #ff7f0e"/>
   </g>
   <g id="patch_15">
    <path d="M 134.569611 212.788964 
L 137.72486 212.788964 
L 137.72486 153.005612 
L 134.569611 153.005612 
z
" clip-path="url(#p690959ec05)" style="fill: #2ca02c"/>
   </g>
   <g id="patch_16">
    <path d="M 216.60607 212.788964 
L 219.761318 212.788964 
L 219.761318 142.198391 
L 216.60607 142.198391 
z
" clip-path="url(#p690959ec05)" style="fill: #2ca02c"/>
   </g>
   <g id="patch_17">
    <path d="M 298.642528 212.788964 
L 301.797776 212.788964 
L 301.797776 175.258496 
L 298.642528 175.258496 
z
" clip-path="url(#p690959ec05)" style="fill: #2ca02c"/>
   </g>
   <g id="patch_18">
    <path d="M 380.678986 212.788964 
L 383.834235 212.788964 
L 383.834235 181.254807 
L 380.678986 181.254807 
z
" clip-path="url(#p690959ec05)" style="fill: #2ca02c"/>
   </g>
   <g id="patch_19">
    <path d="M 462.715445 212.788964 
L 465.870693 212.788964 
L 465.870693 182.603335 
L 462.715445 182.603335 
z
" clip-path="url(#p690959ec05)" style="fill: #2ca02c"/>
   </g>
   <g id="patch_20">
    <path d="M 544.751903 212.788964 
L 547.907151 212.788964 
L 547.907151 185.237818 
L 544.751903 185.237818 
z
" clip-path="url(#p690959ec05)" style="fill: #2ca02c"/>
   </g>
   <g id="patch_21">
    <path d="M 137.72486 212.788964 
L 140.880108 212.788964 
L 140.880108 182.778639 
L 137.72486 182.778639 
z
" clip-path="url(#p690959ec05)" style="fill: #d62728"/>
   </g>
   <g id="patch_22">
    <path d="M 219.761318 212.788964 
L 222.916567 212.788964 
L 222.916567 219.653819 
L 219.761318 219.653819 
z
" clip-path="url(#p690959ec05)" style="fill: #d62728"/>
   </g>
   <g id="patch_23">
    <path d="M 301.797776 212.788964 
L 304.953025 212.788964 
L 304.953025 215.590419 
L 301.797776 215.590419 
z
" clip-path="url(#p690959ec05)" style="fill: #d62728"/>
   </g>
   <g id="patch_24">
    <path d="M 383.834235 212.788964 
L 386.989483 212.788964 
L 386.989483 195.61072 
L 383.834235 195.61072 
z
" clip-path="url(#p690959ec05)" style="fill: #d62728"/>
   </g>
   <g id="patch_25">
    <path d="M 465.870693 212.788964 
L 469.025942 212.788964 
L 469.025942 197.297801 
L 465.870693 197.297801 
z
" clip-path="url(#p690959ec05)" style="fill: #d62728"/>
   </g>
   <g id="patch_26">
    <path d="M 547.907151 212.788964 
L 551.0624 212.788964 
L 551.0624 196.76315 
L 547.907151 196.76315 
z
" clip-path="url(#p690959ec05)" style="fill: #d62728"/>
   </g>
   <g id="patch_27">
    <path d="M 140.880108 212.788964 
L 144.035357 212.788964 
L 144.035357 211.123078 
L 140.880108 211.123078 
z
" clip-path="url(#p690959ec05)" style="fill: #9467bd"/>
   </g>
   <g id="patch_28">
    <path d="M 222.916567 212.788964 
L 226.071815 212.788964 
L 226.071815 204.391426 
L 222.916567 204.391426 
z
" clip-path="url(#p690959ec05)" style="fill: #9467bd"/>
   </g>
   <g id="patch_29">
    <path d="M 304.953025 212.788964 
L 308.108273 212.788964 
L 308.108273 208.277816 
L 304.953025 208.277816 
z
" clip-path="url(#p690959ec05)" style="fill: #9467bd"/>
   </g>
   <g id="patch_30">
    <path d="M 386.989483 212.788964 
L 390.144732 212.788964 
L 390.144732 208.689551 
L 386.989483 208.689551 
z
" clip-path="url(#p690959ec05)" style="fill: #9467bd"/>
   </g>
   <g id="patch_31">
    <path d="M 469.025942 212.788964 
L 472.18119 212.788964 
L 472.18119 209.895044 
L 469.025942 209.895044 
z
" clip-path="url(#p690959ec05)" style="fill: #9467bd"/>
   </g>
   <g id="patch_32">
    <path d="M 551.0624 212.788964 
L 554.217648 212.788964 
L 554.217648 210.285856 
L 551.0624 210.285856 
z
" clip-path="url(#p690959ec05)" style="fill: #9467bd"/>
   </g>
   <g id="patch_33">
    <path d="M 144.035357 212.788964 
L 147.190605 212.788964 
L 147.190605 199.935399 
L 144.035357 199.935399 
z
" clip-path="url(#p690959ec05)" style="fill: #8c564b"/>
   </g>
   <g id="patch_34">
    <path d="M 226.071815 212.788964 
L 229.227063 212.788964 
L 229.227063 216.970865 
L 226.071815 216.970865 
z
" clip-path="url(#p690959ec05)" style="fill: #8c564b"/>
   </g>
   <g id="patch_35">
    <path d="M 308.108273 212.788964 
L 311.263522 212.788964 
L 311.263522 218.888383 
L 308.108273 218.888383 
z
" clip-path="url(#p690959ec05)" style="fill: #8c564b"/>
   </g>
   <g id="patch_36">
    <path d="M 390.144732 212.788964 
L 393.29998 212.788964 
L 393.29998 219.264274 
L 390.144732 219.264274 
z
" clip-path="url(#p690959ec05)" style="fill: #8c564b"/>
   </g>
   <g id="patch_37">
    <path d="M 472.18119 212.788964 
L 475.336438 212.788964 
L 475.336438 221.053003 
L 472.18119 221.053003 
z
" clip-path="url(#p690959ec05)" style="fill: #8c564b"/>
   </g>
   <g id="patch_38">
    <path d="M 554.217648 212.788964 
L 557.372897 212.788964 
L 557.372897 223.450823 
L 554.217648 223.450823 
z
" clip-path="url(#p690959ec05)" style="fill: #8c564b"/>
   </g>
   <g id="patch_39">
    <path d="M 147.190605 212.788964 
L 150.345853 212.788964 
L 150.345853 211.036351 
L 147.190605 211.036351 
z
" clip-path="url(#p690959ec05)" style="fill: #e377c2"/>
   </g>
   <g id="patch_40">
    <path d="M 229.227063 212.788964 
L 232.382312 212.788964 
L 232.382312 225.420694 
L 229.227063 225.420694 
z
" clip-path="url(#p690959ec05)" style="fill: #e377c2"/>
   </g>
   <g id="patch_41">
    <path d="M 311.263522 212.788964 
L 314.41877 212.788964 
L 314.41877 223.84128 
L 311.263522 223.84128 
z
" clip-path="url(#p690959ec05)" style="fill: #e377c2"/>
   </g>
   <g id="patch_42">
    <path d="M 393.29998 212.788964 
L 396.455228 212.788964 
L 396.455228 227.65027 
L 393.29998 227.65027 
z
" clip-path="url(#p690959ec05)" style="fill: #e377c2"/>
   </g>
   <g id="patch_43">
    <path d="M 475.336438 212.788964 
L 478.491687 212.788964 
L 478.491687 227.424951 
L 475.336438 227.424951 
z
" clip-path="url(#p690959ec05)" style="fill: #e377c2"/>
   </g>
   <g id="patch_44">
    <path d="M 557.372897 212.788964 
L 560.528145 212.788964 
L 560.528145 226.55677 
L 557.372897 226.55677 
z
" clip-path="url(#p690959ec05)" style="fill: #e377c2"/>
   </g>
   <g id="patch_45">
    <path d="M 150.345853 212.788964 
L 153.501102 212.788964 
L 153.501102 221.630202 
L 150.345853 221.630202 
z
" clip-path="url(#p690959ec05)" style="fill: #7f7f7f"/>
   </g>
   <g id="patch_46">
    <path d="M 232.382312 212.788964 
L 235.53756 212.788964 
L 235.53756 226.65639 
L 232.382312 226.65639 
z
" clip-path="url(#p690959ec05)" style="fill: #7f7f7f"/>
   </g>
   <g id="patch_47">
    <path d="M 314.41877 212.788964 
L 317.574018 212.788964 
L 317.574018 227.729469 
L 314.41877 227.729469 
z
" clip-path="url(#p690959ec05)" style="fill: #7f7f7f"/>
   </g>
   <g id="patch_48">
    <path d="M 396.455228 212.788964 
L 399.610477 212.788964 
L 399.610477 227.929289 
L 396.455228 227.929289 
z
" clip-path="url(#p690959ec05)" style="fill: #7f7f7f"/>
   </g>
   <g id="patch_49">
    <path d="M 478.491687 212.788964 
L 481.646935 212.788964 
L 481.646935 230.414867 
L 478.491687 230.414867 
z
" clip-path="url(#p690959ec05)" style="fill: #7f7f7f"/>
   </g>
   <g id="patch_50">
    <path d="M 560.528145 212.788964 
L 563.683393 212.788964 
L 563.683393 228.78747 
L 560.528145 228.78747 
z
" clip-path="url(#p690959ec05)" style="fill: #7f7f7f"/>
   </g>
   <g id="patch_51">
    <path d="M 153.501102 212.788964 
L 156.65635 212.788964 
L 156.65635 225.977892 
L 153.501102 225.977892 
z
" clip-path="url(#p690959ec05)" style="fill: #bcbd22"/>
   </g>
   <g id="patch_52">
    <path d="M 235.53756 212.788964 
L 238.692808 212.788964 
L 238.692808 232.50759 
L 235.53756 232.50759 
z
" clip-path="url(#p690959ec05)" style="fill: #bcbd22"/>
   </g>
   <g id="patch_53">
    <path d="M 317.574018 212.788964 
L 320.729267 212.788964 
L 320.729267 230.104527 
L 317.574018 230.104527 
z
" clip-path="url(#p690959ec05)" style="fill: #bcbd22"/>
   </g>
   <g id="patch_54">
    <path d="M 399.610477 212.788964 
L 402.765725 212.788964 
L 402.765725 233.091769 
L 399.610477 233.091769 
z
" clip-path="url(#p690959ec05)" style="fill: #bcbd22"/>
   </g>
   <g id="patch_55">
    <path d="M 481.646935 212.788964 
L 484.802183 212.788964 
L 484.802183 234.915816 
L 481.646935 234.915816 
z
" clip-path="url(#p690959ec05)" style="fill: #bcbd22"/>
   </g>
   <g id="patch_56">
    <path d="M 563.683393 212.788964 
L 566.838642 212.788964 
L 566.838642 233.185777 
L 563.683393 233.185777 
z
" clip-path="url(#p690959ec05)" style="fill: #bcbd22"/>
   </g>
   <g id="patch_57">
    <path d="M 156.65635 212.788964 
L 159.811599 212.788964 
L 159.811599 228.517265 
L 156.65635 228.517265 
z
" clip-path="url(#p690959ec05)" style="fill: #17becf"/>
   </g>
   <g id="patch_58">
    <path d="M 238.692808 212.788964 
L 241.848057 212.788964 
L 241.848057 240.170191 
L 238.692808 240.170191 
z
" clip-path="url(#p690959ec05)" style="fill: #17becf"/>
   </g>
   <g id="patch_59">
    <path d="M 320.729267 212.788964 
L 323.884515 212.788964 
L 323.884515 234.608454 
L 320.729267 234.608454 
z
" clip-path="url(#p690959ec05)" style="fill: #17becf"/>
   </g>
   <g id="patch_60">
    <path d="M 402.765725 212.788964 
L 405.920974 212.788964 
L 405.920974 235.720294 
L 402.765725 235.720294 
z
" clip-path="url(#p690959ec05)" style="fill: #17becf"/>
   </g>
   <g id="patch_61">
    <path d="M 484.802183 212.788964 
L 487.957432 212.788964 
L 487.957432 236.443852 
L 484.802183 236.443852 
z
" clip-path="url(#p690959ec05)" style="fill: #17becf"/>
   </g>
   <g id="patch_62">
    <path d="M 566.838642 212.788964 
L 569.99389 212.788964 
L 569.99389 236.01542 
L 566.838642 236.01542 
z
" clip-path="url(#p690959ec05)" style="fill: #17becf"/>
   </g>
   <g id="patch_63">
    <path d="M 159.811599 212.788964 
L 162.966847 212.788964 
L 162.966847 233.067236 
L 159.811599 233.067236 
z
" clip-path="url(#p690959ec05)" style="fill: #1f77b4"/>
   </g>
   <g id="patch_64">
    <path d="M 241.848057 212.788964 
L 245.003305 212.788964 
L 245.003305 232.766432 
L 241.848057 232.766432 
z
" clip-path="url(#p690959ec05)" style="fill: #1f77b4"/>
   </g>
   <g id="patch_65">
    <path d="M 323.884515 212.788964 
L 327.039764 212.788964 
L 327.039764 237.094591 
L 323.884515 237.094591 
z
" clip-path="url(#p690959ec05)" style="fill: #1f77b4"/>
   </g>
   <g id="patch_66">
    <path d="M 405.920974 212.788964 
L 409.076222 212.788964 
L 409.076222 237.897481 
L 405.920974 237.897481 
z
" clip-path="url(#p690959ec05)" style="fill: #1f77b4"/>
   </g>
   <g id="patch_67">
    <path d="M 487.957432 212.788964 
L 491.11268 212.788964 
L 491.11268 239.139544 
L 487.957432 239.139544 
z
" clip-path="url(#p690959ec05)" style="fill: #1f77b4"/>
   </g>
   <g id="patch_68">
    <path d="M 569.99389 212.788964 
L 573.149139 212.788964 
L 573.149139 239.064767 
L 569.99389 239.064767 
z
" clip-path="url(#p690959ec05)" style="fill: #1f77b4"/>
   </g>
   <g id="patch_69">
    <path d="M 162.966847 212.788964 
L 166.122095 212.788964 
L 166.122095 236.803267 
L 162.966847 236.803267 
z
" clip-path="url(#p690959ec05)" style="fill: #ff7f0e"/>
   </g>
   <g id="patch_70">
    <path d="M 245.003305 212.788964 
L 248.158554 212.788964 
L 248.158554 235.625152 
L 245.003305 235.625152 
z
" clip-path="url(#p690959ec05)" style="fill: #ff7f0e"/>
   </g>
   <g id="patch_71">
    <path d="M 327.039764 212.788964 
L 330.195012 212.788964 
L 330.195012 238.031325 
L 327.039764 238.031325 
z
" clip-path="url(#p690959ec05)" style="fill: #ff7f0e"/>
   </g>
   <g id="patch_72">
    <path d="M 409.076222 212.788964 
L 412.23147 212.788964 
L 412.23147 240.587351 
L 409.076222 240.587351 
z
" clip-path="url(#p690959ec05)" style="fill: #ff7f0e"/>
   </g>
   <g id="patch_73">
    <path d="M 491.11268 212.788964 
L 494.267929 212.788964 
L 494.267929 245.430682 
L 491.11268 245.430682 
z
" clip-path="url(#p690959ec05)" style="fill: #ff7f0e"/>
   </g>
   <g id="patch_74">
    <path d="M 573.149139 212.788964 
L 576.304387 212.788964 
L 576.304387 242.208361 
L 573.149139 242.208361 
z
" clip-path="url(#p690959ec05)" style="fill: #ff7f0e"/>
   </g>
   <g id="patch_75">
    <path d="M 166.122095 212.788964 
L 169.277344 212.788964 
L 169.277344 236.992336 
L 166.122095 236.992336 
z
" clip-path="url(#p690959ec05)" style="fill: #2ca02c"/>
   </g>
   <g id="patch_76">
    <path d="M 248.158554 212.788964 
L 251.313802 212.788964 
L 251.313802 235.95733 
L 248.158554 235.95733 
z
" clip-path="url(#p690959ec05)" style="fill: #2ca02c"/>
   </g>
   <g id="patch_77">
    <path d="M 330.195012 212.788964 
L 333.35026 212.788964 
L 333.35026 240.12278 
L 330.195012 240.12278 
z
" clip-path="url(#p690959ec05)" style="fill: #2ca02c"/>
   </g>
   <g id="patch_78">
    <path d="M 412.23147 212.788964 
L 415.386719 212.788964 
L 415.386719 240.001391 
L 412.23147 240.001391 
z
" clip-path="url(#p690959ec05)" style="fill: #2ca02c"/>
   </g>
   <g id="patch_79">
    <path d="M 494.267929 212.788964 
L 497.423177 212.788964 
L 497.423177 240.445995 
L 494.267929 240.445995 
z
" clip-path="url(#p690959ec05)" style="fill: #2ca02c"/>
   </g>
   <g id="patch_80">
    <path d="M 576.304387 212.788964 
L 579.459635 212.788964 
L 579.459635 236.564888 
L 576.304387 236.564888 
z
" clip-path="url(#p690959ec05)" style="fill: #2ca02c"/>
   </g>
   <g id="line2d_29">
    <path d="M 107.75 200.828816 
L 599.96875 200.828816 
" clip-path="url(#p690959ec05)" style="fill: none; stroke: #1f77b4; stroke-width: 1.5; stroke-linecap: square"/>
   </g>
   <g id="patch_81">
    <path d="M 107.75 256.108333 
L 107.75 21.2 
" style="fill: none; stroke: #000000; stroke-width: 0.8; stroke-linejoin: miter; stroke-linecap: square"/>
   </g>
   <g id="patch_82">
    <path d="M 599.96875 256.108333 
L 599.96875 21.2 
" style="fill: none; stroke: #000000; stroke-width: 0.8; stroke-linejoin: miter; stroke-linecap: square"/>
   </g>
   <g id="patch_83">
    <path d="M 107.75 256.108333 
L 599.96875 256.108333 
" style="fill: none; stroke: #000000; stroke-width: 0.8; stroke-linejoin: miter; stroke-linecap: square"/>
   </g>
   <g id="patch_84">
    <path d="M 107.75 21.2 
L 599.96875 21.2 
" style="fill: none; stroke: #000000; stroke-width: 0.8; stroke-linejoin: miter; stroke-linecap: square"/>
   </g>
   <g id="text_17">
    <!-- IOPS - randwrite -->
    <g transform="translate(305.121563 15.2) scale(0.12 -0.12)">
     <defs>
      <path id="DejaVuSans-2d" d="M 313 2009 
L 1997 2009 
L 1997 1497 
L 313 1497 
L 313 2009 
z
" transform="scale(0.015625)"/>
      <path id="DejaVuSans-72" d="M 2631 2963 
Q 2534 3019 2420 3045 
Q 2306 3072 2169 3072 
Q 1681 3072 1420 2755 
Q 1159 2438 1159 1844 
L 1159 0 
L 581 0 
L 581 3500 
L 1159 3500 
L 1159 2956 
Q 1341 3275 1631 3429 
Q 1922 3584 2338 3584 
Q 2397 3584 2469 3576 
Q 2541 3569 2628 3553 
L 2631 2963 
z
" transform="scale(0.015625)"/>
      <path id="DejaVuSans-6e" d="M 3513 2113 
L 3513 0 
L 2938 0 
L 2938 2094 
Q 2938 2591 2744 2837 
Q 2550 3084 2163 3084 
Q 1697 3084 1428 2787 
Q 1159 2491 1159 1978 
L 1159 0 
L 581 0 
L 581 3500 
L 1159 3500 
L 1159 2956 
Q 1366 3272 1645 3428 
Q 1925 3584 2291 3584 
Q 2894 3584 3203 3211 
Q 3513 2838 3513 2113 
z
" transform="scale(0.015625)"/>
      <path id="DejaVuSans-64" d="M 2906 2969 
L 2906 4863 
L 3481 4863 
L 3481 0 
L 2906 0 
L 2906 525 
Q 2725 213 2448 61 
Q 2172 -91 1784 -91 
Q 1150 -91 751 415 
Q 353 922 353 1747 
Q 353 2572 751 3078 
Q 1150 3584 1784 3584 
Q 2172 3584 2448 3432 
Q 2725 3281 2906 2969 
z
M 947 1747 
Q 947 1113 1208 752 
Q 1469 391 1925 391 
Q 2381 391 2643 752 
Q 2906 1113 2906 1747 
Q 2906 2381 2643 2742 
Q 2381 3103 1925 3103 
Q 1469 3103 1208 2742 
Q 947 2381 947 1747 
z
" transform="scale(0.015625)"/>
      <path id="DejaVuSans-77" d="M 269 3500 
L 844 3500 
L 1563 769 
L 2278 3500 
L 2956 3500 
L 3675 769 
L 4391 3500 
L 4966 3500 
L 4050 0 
L 3372 0 
L 2619 2869 
L 1863 0 
L 1184 0 
L 269 3500 
z
" transform="scale(0.015625)"/>
     </defs>
     <use xlink:href="#DejaVuSans-49"/>
     <use xlink:href="#DejaVuSans-4f" x="29.492188"/>
     <use xlink:href="#DejaVuSans-50" x="108.203125"/>
     <use xlink:href="#DejaVuSans-53" x="168.505859"/>
     <use xlink:href="#DejaVuSans-20" x="231.982422"/>
     <use xlink:href="#DejaVuSans-2d" x="263.769531"/>
     <use xlink:href="#DejaVuSans-20" x="299.853516"/>
     <use xlink:href="#DejaVuSans-72" x="331.640625"/>
     <use xlink:href="#DejaVuSans-61" x="372.753906"/>
     <use xlink:href="#DejaVuSans-6e" x="434.033203"/>
     <use xlink:href="#DejaVuSans-64" x="497.412109"/>
     <use xlink:href="#DejaVuSans-77" x="560.888672"/>
     <use xlink:href="#DejaVuSans-72" x="642.675781"/>
     <use xlink:href="#DejaVuSans-69" x="683.789062"/>
     <use xlink:href="#DejaVuSans-74" x="711.572266"/>
     <use xlink:href="#DejaVuSans-65" x="750.78125"/>
    </g>
   </g>
   <g id="legend_1">
    <g id="patch_85">
     <path d="M 606.96875 242.901042 
L 663.846875 242.901042 
Q 665.846875 242.901042 665.846875 240.901042 
L 665.846875 36.407292 
Q 665.846875 34.407292 663.846875 34.407292 
L 606.96875 34.407292 
Q 604.96875 34.407292 604.96875 36.407292 
L 604.96875 240.901042 
Q 604.96875 242.901042 606.96875 242.901042 
z
" style="fill: #ffffff; opacity: 0.8; stroke: #cccccc; stroke-linejoin: miter"/>
    </g>
    <g id="line2d_30">
     <path d="M 608.96875 42.505729 
L 618.96875 42.505729 
L 628.96875 42.505729 
" style="fill: none; stroke: #1f77b4; stroke-width: 1.5; stroke-linecap: square"/>
    </g>
    <g id="text_18">
     <!-- avg -->
     <g transform="translate(636.96875 46.005729) scale(0.1 -0.1)">
      <defs>
       <path id="DejaVuSans-67" d="M 2906 1791 
Q 2906 2416 2648 2759 
Q 2391 3103 1925 3103 
Q 1463 3103 1205 2759 
Q 947 2416 947 1791 
Q 947 1169 1205 825 
Q 1463 481 1925 481 
Q 2391 481 2648 825 
Q 2906 1169 2906 1791 
z
M 3481 434 
Q 3481 -459 3084 -895 
Q 2688 -1331 1869 -1331 
Q 1566 -1331 1297 -1286 
Q 1028 -1241 775 -1147 
L 775 -588 
Q 1028 -725 1275 -790 
Q 1522 -856 1778 -856 
Q 2344 -856 2625 -561 
Q 2906 -266 2906 331 
L 2906 616 
Q 2728 306 2450 153 
Q 2172 0 1784 0 
Q 1141 0 747 490 
Q 353 981 353 1791 
Q 353 2603 747 3093 
Q 1141 3584 1784 3584 
Q 2172 3584 2450 3431 
Q 2728 3278 2906 2969 
L 2906 3500 
L 3481 3500 
L 3481 434 
z
" transform="scale(0.015625)"/>
      </defs>
      <use xlink:href="#DejaVuSans-61"/>
      <use xlink:href="#DejaVuSans-76" x="61.279297"/>
      <use xlink:href="#DejaVuSans-67" x="120.458984"/>
     </g>
    </g>
    <g id="patch_86">
     <path d="M 608.96875 60.683854 
L 628.96875 60.683854 
L 628.96875 53.683854 
L 608.96875 53.683854 
z
" style="fill: #1f77b4"/>
    </g>
    <g id="text_19">
     <!-- 4k -->
     <g transform="translate(636.96875 60.683854) scale(0.1 -0.1)">
      <defs>
       <path id="DejaVuSans-6b" d="M 581 4863 
L 1159 4863 
L 1159 1991 
L 2875 3500 
L 3609 3500 
L 1753 1863 
L 3688 0 
L 2938 0 
L 1159 1709 
L 1159 0 
L 581 0 
L 581 4863 
z
" transform="scale(0.015625)"/>
      </defs>
      <use xlink:href="#DejaVuSans-34"/>
      <use xlink:href="#DejaVuSans-6b" x="63.623047"/>
     </g>
    </g>
    <g id="patch_87">
     <path d="M 608.96875 75.361979 
L 628.96875 75.361979 
L 628.96875 68.361979 
L 608.96875 68.361979 
z
" style="fill: #ff7f0e"/>
    </g>
    <g id="text_20">
     <!-- 8k -->
     <g transform="translate(636.96875 75.361979) scale(0.1 -0.1)">
      <defs>
       <path id="DejaVuSans-38" d="M 2034 2216 
Q 1584 2216 1326 1975 
Q 1069 1734 1069 1313 
Q 1069 891 1326 650 
Q 1584 409 2034 409 
Q 2484 409 2743 651 
Q 3003 894 3003 1313 
Q 3003 1734 2745 1975 
Q 2488 2216 2034 2216 
z
M 1403 2484 
Q 997 2584 770 2862 
Q 544 3141 544 3541 
Q 544 4100 942 4425 
Q 1341 4750 2034 4750 
Q 2731 4750 3128 4425 
Q 3525 4100 3525 3541 
Q 3525 3141 3298 2862 
Q 3072 2584 2669 2484 
Q 3125 2378 3379 2068 
Q 3634 1759 3634 1313 
Q 3634 634 3220 271 
Q 2806 -91 2034 -91 
Q 1263 -91 848 271 
Q 434 634 434 1313 
Q 434 1759 690 2068 
Q 947 2378 1403 2484 
z
M 1172 3481 
Q 1172 3119 1398 2916 
Q 1625 2713 2034 2713 
Q 2441 2713 2670 2916 
Q 2900 3119 2900 3481 
Q 2900 3844 2670 4047 
Q 2441 4250 2034 4250 
Q 1625 4250 1398 4047 
Q 1172 3844 1172 3481 
z
" transform="scale(0.015625)"/>
      </defs>
      <use xlink:href="#DejaVuSans-38"/>
      <use xlink:href="#DejaVuSans-6b" x="63.623047"/>
     </g>
    </g>
    <g id="patch_88">
     <path d="M 608.96875 90.040104 
L 628.96875 90.040104 
L 628.96875 83.040104 
L 608.96875 83.040104 
z
" style="fill: #2ca02c"/>
    </g>
    <g id="text_21">
     <!-- 16k -->
     <g transform="translate(636.96875 90.040104) scale(0.1 -0.1)">
      <use xlink:href="#DejaVuSans-31"/>
      <use xlink:href="#DejaVuSans-36" x="63.623047"/>
      <use xlink:href="#DejaVuSans-6b" x="127.246094"/>
     </g>
    </g>
    <g id="patch_89">
     <path d="M 608.96875 104.718229 
L 628.96875 104.718229 
L 628.96875 97.718229 
L 608.96875 97.718229 
z
" style="fill: #d62728"/>
    </g>
    <g id="text_22">
     <!-- 32k -->
     <g transform="translate(636.96875 104.718229) scale(0.1 -0.1)">
      <use xlink:href="#DejaVuSans-33"/>
      <use xlink:href="#DejaVuSans-32" x="63.623047"/>
      <use xlink:href="#DejaVuSans-6b" x="127.246094"/>
     </g>
    </g>
    <g id="patch_90">
     <path d="M 608.96875 119.396354 
L 628.96875 119.396354 
L 628.96875 112.396354 
L 608.96875 112.396354 
z
" style="fill: #9467bd"/>
    </g>
    <g id="text_23">
     <!-- 64k -->
     <g transform="translate(636.96875 119.396354) scale(0.1 -0.1)">
      <use xlink:href="#DejaVuSans-36"/>
      <use xlink:href="#DejaVuSans-34" x="63.623047"/>
      <use xlink:href="#DejaVuSans-6b" x="127.246094"/>
     </g>
    </g>
    <g id="patch_91">
     <path d="M 608.96875 134.074479 
L 628.96875 134.074479 
L 628.96875 127.074479 
L 608.96875 127.074479 
z
" style="fill: #8c564b"/>
    </g>
    <g id="text_24">
     <!-- 128k -->
     <g transform="translate(636.96875 134.074479) scale(0.1 -0.1)">
      <use xlink:href="#DejaVuSans-31"/>
      <use xlink:href="#DejaVuSans-32" x="63.623047"/>
      <use xlink:href="#DejaVuSans-38" x="127.246094"/>
      <use xlink:href="#DejaVuSans-6b" x="190.869141"/>
     </g>
    </g>
    <g id="patch_92">
     <path d="M 608.96875 148.752604 
L 628.96875 148.752604 
L 628.96875 141.752604 
L 608.96875 141.752604 
z
" style="fill: #e377c2"/>
    </g>
    <g id="text_25">
     <!-- 256k -->
     <g transform="translate(636.96875 148.752604) scale(0.1 -0.1)">
      <use xlink:href="#DejaVuSans-32"/>
      <use xlink:href="#DejaVuSans-35" x="63.623047"/>
      <use xlink:href="#DejaVuSans-36" x="127.246094"/>
      <use xlink:href="#DejaVuSans-6b" x="190.869141"/>
     </g>
    </g>
    <g id="patch_93">
     <path d="M 608.96875 163.430729 
L 628.96875 163.430729 
L 628.96875 156.430729 
L 608.96875 156.430729 
z
" style="fill: #7f7f7f"/>
    </g>
    <g id="text_26">
     <!-- 512k -->
     <g transform="translate(636.96875 163.430729) scale(0.1 -0.1)">
      <use xlink:href="#DejaVuSans-35"/>
      <use xlink:href="#DejaVuSans-31" x="63.623047"/>
      <use xlink:href="#DejaVuSans-32" x="127.246094"/>
      <use xlink:href="#DejaVuSans-6b" x="190.869141"/>
     </g>
    </g>
    <g id="patch_94">
     <path d="M 608.96875 178.108854 
L 628.96875 178.108854 
L 628.96875 171.108854 
L 608.96875 171.108854 
z
" style="fill: #bcbd22"/>
    </g>
    <g id="text_27">
     <!-- 1M -->
     <g transform="translate(636.96875 178.108854) scale(0.1 -0.1)">
      <defs>
       <path id="DejaVuSans-4d" d="M 628 4666 
L 1569 4666 
L 2759 1491 
L 3956 4666 
L 4897 4666 
L 4897 0 
L 4281 0 
L 4281 4097 
L 3078 897 
L 2444 897 
L 1241 4097 
L 1241 0 
L 628 0 
L 628 4666 
z
" transform="scale(0.015625)"/>
      </defs>
      <use xlink:href="#DejaVuSans-31"/>
      <use xlink:href="#DejaVuSans-4d" x="63.623047"/>
     </g>
    </g>
    <g id="patch_95">
     <path d="M 608.96875 192.786979 
L 628.96875 192.786979 
L 628.96875 185.786979 
L 608.96875 185.786979 
z
" style="fill: #17becf"/>
    </g>
    <g id="text_28">
     <!-- 2M -->
     <g transform="translate(636.96875 192.786979) scale(0.1 -0.1)">
      <use xlink:href="#DejaVuSans-32"/>
      <use xlink:href="#DejaVuSans-4d" x="63.623047"/>
     </g>
    </g>
    <g id="patch_96">
     <path d="M 608.96875 207.465104 
L 628.96875 207.465104 
L 628.96875 200.465104 
L 608.96875 200.465104 
z
" style="fill: #1f77b4"/>
    </g>
    <g id="text_29">
     <!-- 4M -->
     <g transform="translate(636.96875 207.465104) scale(0.1 -0.1)">
      <use xlink:href="#DejaVuSans-34"/>
      <use xlink:href="#DejaVuSans-4d" x="63.623047"/>
     </g>
    </g>
    <g id="patch_97">
     <path d="M 608.96875 222.143229 
L 628.96875 222.143229 
L 628.96875 215.143229 
L 608.96875 215.143229 
z
" style="fill: #ff7f0e"/>
    </g>
    <g id="text_30">
     <!-- 8M -->
     <g transform="translate(636.96875 222.143229) scale(0.1 -0.1)">
      <use xlink:href="#DejaVuSans-38"/>
      <use xlink:href="#DejaVuSans-4d" x="63.623047"/>
     </g>
    </g>
    <g id="patch_98">
     <path d="M 608.96875 236.821354 
L 628.96875 236.821354 
L 628.96875 229.821354 
L 608.96875 229.821354 
z
" style="fill: #2ca02c"/>
    </g>
    <g id="text_31">
     <!-- 16M -->
     <g transform="translate(636.96875 236.821354) scale(0.1 -0.1)">
      <use xlink:href="#DejaVuSans-31"/>
      <use xlink:href="#DejaVuSans-36" x="63.623047"/>
      <use xlink:href="#DejaVuSans-4d" x="127.246094"/>
     </g>
    </g>
   </g>
  </g>
 </g>
 <defs>
  <clipPath id="p690959ec05">
   <rect x="107.75" y="21.2" width="492.21875" height="234.908333"/>
  </clipPath>
 </defs>
</svg>
